<svg width="328" height="238" viewBox="0 0 328 238" fill="none" xmlns="http://www.w3.org/2000/svg">
<rect width="328" height="238" rx="10" fill="#F7F7F7"/>
<path d="M120.516 34V20.9091H128.634V22.6094H122.491V26.598H128.053V28.2919H122.491V34H120.516ZM130.787 34V24.1818H132.634V25.7415H132.736C132.915 25.2131 133.231 24.7976 133.682 24.495C134.138 24.1882 134.654 24.0348 135.229 24.0348C135.349 24.0348 135.489 24.0391 135.651 24.0476C135.817 24.0561 135.947 24.0668 136.041 24.0795V25.9077C135.964 25.8864 135.828 25.8629 135.632 25.8374C135.436 25.8075 135.24 25.7926 135.044 25.7926C134.592 25.7926 134.189 25.8885 133.836 26.0803C133.486 26.2678 133.209 26.5298 133.005 26.8665C132.8 27.1989 132.698 27.5781 132.698 28.0043V34H130.787ZM137.695 34V24.1818H139.606V34H137.695ZM138.66 22.6669C138.328 22.6669 138.042 22.5561 137.804 22.3345C137.569 22.1087 137.452 21.8402 137.452 21.5291C137.452 21.2138 137.569 20.9453 137.804 20.7237C138.042 20.4979 138.328 20.3849 138.66 20.3849C138.993 20.3849 139.276 20.4979 139.51 20.7237C139.749 20.9453 139.868 21.2138 139.868 21.5291C139.868 21.8402 139.749 22.1087 139.51 22.3345C139.276 22.5561 138.993 22.6669 138.66 22.6669ZM146.409 34.1982C145.442 34.1982 144.608 33.9915 143.91 33.5781C143.215 33.1605 142.678 32.5746 142.299 31.8203C141.924 31.0618 141.736 30.1733 141.736 29.1548C141.736 28.1491 141.924 27.2628 142.299 26.4957C142.678 25.7287 143.206 25.13 143.884 24.6996C144.566 24.2692 145.363 24.054 146.275 24.054C146.829 24.054 147.366 24.1456 147.885 24.3288C148.405 24.5121 148.872 24.7997 149.285 25.1918C149.699 25.5838 150.025 26.093 150.263 26.7195C150.502 27.3416 150.621 28.098 150.621 28.9886V29.6662H142.817V28.2344H148.748C148.748 27.7315 148.646 27.2862 148.442 26.8984C148.237 26.5064 147.949 26.1974 147.579 25.9716C147.212 25.7457 146.782 25.6328 146.287 25.6328C145.751 25.6328 145.282 25.7649 144.881 26.0291C144.485 26.2891 144.178 26.63 143.961 27.0518C143.748 27.4695 143.641 27.9233 143.641 28.4134V29.532C143.641 30.1882 143.756 30.7464 143.986 31.2067C144.221 31.6669 144.547 32.0185 144.964 32.2614C145.382 32.5 145.87 32.6193 146.428 32.6193C146.79 32.6193 147.121 32.5682 147.419 32.4659C147.717 32.3594 147.975 32.2017 148.192 31.9929C148.41 31.7841 148.576 31.5263 148.691 31.2195L150.5 31.5455C150.355 32.0781 150.095 32.5447 149.72 32.9453C149.349 33.3416 148.883 33.6506 148.32 33.8722C147.762 34.0895 147.125 34.1982 146.409 34.1982ZM156.417 34.1918C155.625 34.1918 154.917 33.9893 154.295 33.5845C153.677 33.1754 153.191 32.5937 152.838 31.8395C152.488 31.081 152.314 30.1712 152.314 29.1101C152.314 28.049 152.49 27.1413 152.844 26.3871C153.202 25.6328 153.692 25.0554 154.314 24.6548C154.936 24.2543 155.642 24.054 156.43 24.054C157.039 24.054 157.529 24.1562 157.9 24.3608C158.275 24.5611 158.565 24.7955 158.77 25.0639C158.978 25.3324 159.14 25.5689 159.255 25.7734H159.37V20.9091H161.282V34H159.415V32.4723H159.255C159.14 32.6811 158.974 32.9197 158.757 33.1882C158.544 33.4567 158.25 33.6911 157.875 33.8913C157.5 34.0916 157.014 34.1918 156.417 34.1918ZM156.839 32.5618C157.389 32.5618 157.853 32.4169 158.233 32.1271C158.616 31.8331 158.906 31.4261 159.102 30.9062C159.302 30.3864 159.402 29.7812 159.402 29.0909C159.402 28.4091 159.304 27.8125 159.108 27.3011C158.912 26.7898 158.625 26.3913 158.245 26.1058C157.866 25.8203 157.397 25.6776 156.839 25.6776C156.264 25.6776 155.784 25.8267 155.401 26.125C155.017 26.4233 154.728 26.8303 154.532 27.3459C154.34 27.8615 154.244 28.4432 154.244 29.0909C154.244 29.7472 154.342 30.3374 154.538 30.8615C154.734 31.3857 155.024 31.8011 155.407 32.108C155.795 32.4105 156.272 32.5618 156.839 32.5618ZM173.005 34.1982C172.037 34.1982 171.204 33.9915 170.505 33.5781C169.811 33.1605 169.274 32.5746 168.895 31.8203C168.52 31.0618 168.332 30.1733 168.332 29.1548C168.332 28.1491 168.52 27.2628 168.895 26.4957C169.274 25.7287 169.802 25.13 170.48 24.6996C171.162 24.2692 171.958 24.054 172.87 24.054C173.424 24.054 173.961 24.1456 174.481 24.3288C175.001 24.5121 175.468 24.7997 175.881 25.1918C176.294 25.5838 176.62 26.093 176.859 26.7195C177.098 27.3416 177.217 28.098 177.217 28.9886V29.6662H169.412V28.2344H175.344C175.344 27.7315 175.242 27.2862 175.037 26.8984C174.833 26.5064 174.545 26.1974 174.174 25.9716C173.808 25.7457 173.377 25.6328 172.883 25.6328C172.346 25.6328 171.877 25.7649 171.477 26.0291C171.081 26.2891 170.774 26.63 170.556 27.0518C170.343 27.4695 170.237 27.9233 170.237 28.4134V29.532C170.237 30.1882 170.352 30.7464 170.582 31.2067C170.816 31.6669 171.142 32.0185 171.56 32.2614C171.978 32.5 172.466 32.6193 173.024 32.6193C173.386 32.6193 173.716 32.5682 174.015 32.4659C174.313 32.3594 174.571 32.2017 174.788 31.9929C175.005 31.7841 175.172 31.5263 175.287 31.2195L177.096 31.5455C176.951 32.0781 176.691 32.5447 176.316 32.9453C175.945 33.3416 175.478 33.6506 174.916 33.8722C174.358 34.0895 173.721 34.1982 173.005 34.1982ZM183.454 37.8864C182.674 37.8864 182.003 37.7841 181.441 37.5795C180.882 37.375 180.426 37.1044 180.073 36.7678C179.719 36.4311 179.455 36.0625 179.28 35.6619L180.923 34.9844C181.038 35.1719 181.191 35.37 181.383 35.5788C181.579 35.7919 181.843 35.973 182.176 36.1222C182.512 36.2713 182.945 36.3459 183.473 36.3459C184.198 36.3459 184.796 36.169 185.269 35.8153C185.742 35.4659 185.979 34.9077 185.979 34.1406V32.2102H185.857C185.742 32.419 185.576 32.6513 185.359 32.907C185.146 33.1626 184.852 33.3842 184.477 33.5717C184.102 33.7592 183.614 33.853 183.013 33.853C182.237 33.853 181.539 33.6719 180.916 33.3097C180.298 32.9432 179.808 32.4041 179.446 31.6925C179.088 30.9766 178.909 30.0966 178.909 29.0526C178.909 28.0085 179.086 27.1136 179.44 26.3679C179.798 25.6222 180.288 25.0511 180.91 24.6548C181.532 24.2543 182.237 24.054 183.026 24.054C183.635 24.054 184.127 24.1562 184.502 24.3608C184.877 24.5611 185.169 24.7955 185.378 25.0639C185.591 25.3324 185.755 25.5689 185.87 25.7734H186.011V24.1818H187.884V34.2173C187.884 35.0611 187.688 35.7536 187.296 36.2947C186.904 36.8359 186.373 37.2365 185.704 37.4964C185.039 37.7564 184.289 37.8864 183.454 37.8864ZM183.435 32.2678C183.985 32.2678 184.449 32.1399 184.828 31.8842C185.212 31.6243 185.502 31.2536 185.698 30.772C185.898 30.2862 185.998 29.7045 185.998 29.027C185.998 28.3665 185.9 27.7848 185.704 27.282C185.508 26.7791 185.22 26.3871 184.841 26.1058C184.462 25.8203 183.993 25.6776 183.435 25.6776C182.86 25.6776 182.38 25.8267 181.997 26.125C181.613 26.419 181.323 26.8196 181.127 27.3267C180.936 27.8338 180.84 28.4006 180.84 29.027C180.84 29.6705 180.938 30.2351 181.134 30.7209C181.33 31.2067 181.619 31.5859 182.003 31.8587C182.391 32.1314 182.868 32.2678 183.435 32.2678ZM194.563 37.8864C193.784 37.8864 193.112 37.7841 192.55 37.5795C191.992 37.375 191.536 37.1044 191.182 36.7678C190.828 36.4311 190.564 36.0625 190.389 35.6619L192.032 34.9844C192.147 35.1719 192.301 35.37 192.492 35.5788C192.688 35.7919 192.953 35.973 193.285 36.1222C193.622 36.2713 194.054 36.3459 194.583 36.3459C195.307 36.3459 195.906 36.169 196.379 35.8153C196.852 35.4659 197.088 34.9077 197.088 34.1406V32.2102H196.967C196.852 32.419 196.686 32.6513 196.468 32.907C196.255 33.1626 195.961 33.3842 195.586 33.5717C195.211 33.7592 194.723 33.853 194.122 33.853C193.347 33.853 192.648 33.6719 192.026 33.3097C191.408 32.9432 190.918 32.4041 190.556 31.6925C190.198 30.9766 190.019 30.0966 190.019 29.0526C190.019 28.0085 190.195 27.1136 190.549 26.3679C190.907 25.6222 191.397 25.0511 192.019 24.6548C192.642 24.2543 193.347 24.054 194.135 24.054C194.744 24.054 195.237 24.1562 195.612 24.3608C195.987 24.5611 196.279 24.7955 196.487 25.0639C196.7 25.3324 196.865 25.5689 196.98 25.7734H197.12V24.1818H198.993V34.2173C198.993 35.0611 198.797 35.7536 198.405 36.2947C198.013 36.8359 197.482 37.2365 196.813 37.4964C196.149 37.7564 195.399 37.8864 194.563 37.8864ZM194.544 32.2678C195.094 32.2678 195.558 32.1399 195.938 31.8842C196.321 31.6243 196.611 31.2536 196.807 30.772C197.007 30.2862 197.107 29.7045 197.107 29.027C197.107 28.3665 197.009 27.7848 196.813 27.282C196.617 26.7791 196.33 26.3871 195.95 26.1058C195.571 25.8203 195.102 25.6776 194.544 25.6776C193.969 25.6776 193.49 25.8267 193.106 26.125C192.722 26.419 192.433 26.8196 192.237 27.3267C192.045 27.8338 191.949 28.4006 191.949 29.027C191.949 29.6705 192.047 30.2351 192.243 30.7209C192.439 31.2067 192.729 31.5859 193.112 31.8587C193.5 32.1314 193.977 32.2678 194.544 32.2678ZM208.914 26.5788L207.181 26.8857C207.109 26.6641 206.994 26.4531 206.836 26.2528C206.683 26.0526 206.474 25.8885 206.21 25.7607C205.945 25.6328 205.615 25.5689 205.219 25.5689C204.678 25.5689 204.226 25.6903 203.864 25.9332C203.502 26.1719 203.32 26.4808 203.32 26.8601C203.32 27.1882 203.442 27.4524 203.685 27.6527C203.928 27.853 204.32 28.017 204.861 28.1449L206.421 28.5028C207.324 28.7116 207.997 29.0334 208.441 29.468C208.884 29.9027 209.105 30.4673 209.105 31.1619C209.105 31.75 208.935 32.2741 208.594 32.7344C208.257 33.1903 207.786 33.5483 207.181 33.8082C206.58 34.0682 205.884 34.1982 205.091 34.1982C203.992 34.1982 203.095 33.9638 202.4 33.495C201.705 33.022 201.279 32.3509 201.122 31.4815L202.969 31.2003C203.084 31.6818 203.32 32.0462 203.678 32.2933C204.036 32.5362 204.503 32.6577 205.078 32.6577C205.705 32.6577 206.205 32.5277 206.58 32.2678C206.955 32.0036 207.143 31.6818 207.143 31.3026C207.143 30.9957 207.028 30.7379 206.798 30.5291C206.572 30.3203 206.225 30.1626 205.756 30.0561L204.094 29.6918C203.178 29.483 202.5 29.1506 202.061 28.6946C201.627 28.2386 201.409 27.6612 201.409 26.9624C201.409 26.3828 201.571 25.8757 201.895 25.4411C202.219 25.0064 202.666 24.6676 203.237 24.4247C203.808 24.1776 204.463 24.054 205.2 24.054C206.261 24.054 207.096 24.2841 207.705 24.7443C208.315 25.2003 208.718 25.8118 208.914 26.5788Z" fill="#0D1220"/>
<path d="M35.3516 69.7273V68.3068L40.38 60.3636H41.4993V62.4545H40.7891L37.1925 68.1477V68.2386H44.0845V69.7273H35.3516ZM40.8686 72V69.2955L40.88 68.6477V60.3636H42.5447V72H40.8686ZM50.3232 60.3636V72H48.5618V62.125H48.4936L45.7095 63.9432V62.2614L48.6129 60.3636H50.3232ZM57.5334 72.1591C57.0144 72.1515 56.5031 72.0568 55.9993 71.875C55.4993 71.6932 55.0447 71.3902 54.6357 70.9659C54.2266 70.5417 53.8989 69.9716 53.6527 69.2557C53.4103 68.5398 53.2891 67.6458 53.2891 66.5739C53.2891 65.5587 53.3894 64.6572 53.5902 63.8693C53.7947 63.0814 54.0883 62.4167 54.4709 61.875C54.8535 61.3295 55.3156 60.9148 55.8572 60.6307C56.3989 60.3466 57.0069 60.2045 57.6811 60.2045C58.3743 60.2045 58.9898 60.3409 59.5277 60.6136C60.0656 60.8864 60.5012 61.2633 60.8345 61.7443C61.1716 62.2254 61.3857 62.7727 61.4766 63.3864H59.7436C59.6262 62.9015 59.3932 62.5057 59.0447 62.1989C58.6963 61.892 58.2417 61.7386 57.6811 61.7386C56.8288 61.7386 56.1641 62.1098 55.6868 62.8523C55.2133 63.5947 54.9747 64.6269 54.9709 65.9489H55.0561C55.2569 65.6193 55.5031 65.339 55.7947 65.108C56.0902 64.8731 56.4197 64.6932 56.7834 64.5682C57.1508 64.4394 57.5372 64.375 57.9425 64.375C58.6167 64.375 59.2266 64.5398 59.772 64.8693C60.3213 65.1951 60.7588 65.6458 61.0845 66.2216C61.4103 66.7973 61.5732 67.4564 61.5732 68.1989C61.5732 68.9413 61.4046 69.6136 61.0675 70.2159C60.7341 70.8182 60.2644 71.2955 59.6584 71.6477C59.0523 71.9962 58.344 72.1667 57.5334 72.1591ZM57.5277 70.6818C57.9747 70.6818 58.3743 70.572 58.7266 70.3523C59.0788 70.1326 59.3572 69.8371 59.5618 69.4659C59.7663 69.0947 59.8686 68.6799 59.8686 68.2216C59.8686 67.7746 59.7682 67.3674 59.5675 67C59.3705 66.6326 59.0978 66.3409 58.7493 66.125C58.4046 65.9091 58.0107 65.8011 57.5675 65.8011C57.2304 65.8011 56.9179 65.8655 56.63 65.9943C56.3459 66.1231 56.0959 66.3011 55.88 66.5284C55.6641 66.7557 55.4936 67.017 55.3686 67.3125C55.2474 67.6042 55.1868 67.9129 55.1868 68.2386C55.1868 68.6742 55.2872 69.0777 55.4879 69.4489C55.6925 69.8201 55.9709 70.1193 56.3232 70.3466C56.6792 70.5701 57.0807 70.6818 57.5277 70.6818Z" fill="#0D1220"/>
<path d="M31.0541 87H29.8211C29.7482 86.6454 29.6206 86.3338 29.4383 86.0653C29.2593 85.7969 29.0406 85.5715 28.782 85.3892C28.5268 85.2036 28.2435 85.0644 27.9319 84.9716C27.6204 84.8788 27.2955 84.8324 26.9575 84.8324C26.341 84.8324 25.7825 84.9882 25.282 85.2997C24.7849 85.6113 24.3888 86.0703 24.0938 86.6768C23.8022 87.2834 23.6563 88.0275 23.6563 88.9091C23.6563 89.7907 23.8022 90.5348 24.0938 91.1413C24.3888 91.7479 24.7849 92.2069 25.282 92.5185C25.7825 92.83 26.341 92.9858 26.9575 92.9858C27.2955 92.9858 27.6204 92.9394 27.9319 92.8466C28.2435 92.7538 28.5268 92.6162 28.782 92.4339C29.0406 92.2483 29.2593 92.0213 29.4383 91.7528C29.6206 91.4811 29.7482 91.1695 29.8211 90.8182H31.0541C30.9613 91.3385 30.7922 91.8042 30.547 92.2152C30.3017 92.6262 29.9968 92.9759 29.6322 93.2642C29.2676 93.5492 28.8583 93.7663 28.4042 93.9155C27.9535 94.0646 27.4712 94.1392 26.9575 94.1392C26.0891 94.1392 25.3169 93.9271 24.6407 93.5028C23.9646 93.0786 23.4326 92.4754 23.0448 91.6932C22.657 90.911 22.4632 89.983 22.4632 88.9091C22.4632 87.8352 22.657 86.9072 23.0448 86.125C23.4326 85.3428 23.9646 84.7396 24.6407 84.3153C25.3169 83.8911 26.0891 83.679 26.9575 83.679C27.4712 83.679 27.9535 83.7536 28.4042 83.9027C28.8583 84.0518 29.2676 84.2706 29.6322 84.5589C29.9968 84.844 30.3017 85.192 30.547 85.603C30.7922 86.0107 30.9613 86.4763 31.0541 87ZM35.1345 94.179C34.6506 94.179 34.2114 94.0878 33.817 93.9055C33.4226 93.7199 33.1094 93.4531 32.8774 93.1051C32.6454 92.7538 32.5294 92.3295 32.5294 91.8324C32.5294 91.3949 32.6156 91.0402 32.7879 90.7685C32.9603 90.4934 33.1906 90.2779 33.479 90.1222C33.7673 89.9664 34.0855 89.8504 34.4335 89.7741C34.7848 89.6946 35.1378 89.6316 35.4925 89.5852C35.9565 89.5256 36.3327 89.4808 36.621 89.451C36.9127 89.4179 37.1248 89.3632 37.2574 89.2869C37.3933 89.2107 37.4612 89.0781 37.4612 88.8892V88.8494C37.4612 88.3589 37.327 87.9777 37.0585 87.706C36.7934 87.4342 36.3907 87.2983 35.8504 87.2983C35.2903 87.2983 34.8511 87.4209 34.5329 87.6662C34.2148 87.9115 33.991 88.1733 33.8618 88.4517L32.7481 88.054C32.947 87.59 33.2122 87.2287 33.5436 86.9702C33.8783 86.7083 34.2429 86.526 34.6373 86.4233C35.0351 86.3172 35.4262 86.2642 35.8106 86.2642C36.0559 86.2642 36.3376 86.294 36.6558 86.3537C36.9773 86.41 37.2872 86.5277 37.5855 86.7067C37.8871 86.8857 38.1373 87.1558 38.3362 87.517C38.5351 87.8783 38.6345 88.3622 38.6345 88.9688V94H37.4612V92.9659H37.4015C37.322 93.1316 37.1894 93.3089 37.0038 93.4979C36.8182 93.6868 36.5713 93.8475 36.2631 93.9801C35.9548 94.1127 35.5786 94.179 35.1345 94.179ZM35.3135 93.125C35.7775 93.125 36.1686 93.0339 36.4868 92.8516C36.8083 92.6693 37.0502 92.4339 37.2126 92.1456C37.3783 91.8572 37.4612 91.554 37.4612 91.2358V90.1619C37.4115 90.2216 37.3021 90.2763 37.1331 90.326C36.9674 90.3724 36.7751 90.4138 36.5564 90.4503C36.3409 90.4834 36.1305 90.5133 35.925 90.5398C35.7228 90.563 35.5587 90.5829 35.4328 90.5994C35.1279 90.6392 34.8428 90.7038 34.5777 90.7933C34.3158 90.8795 34.1037 91.0104 33.9413 91.1861C33.7822 91.3584 33.7027 91.5937 33.7027 91.892C33.7027 92.2997 33.8535 92.608 34.1551 92.8168C34.46 93.0223 34.8461 93.125 35.3135 93.125ZM41.9493 83.8182V94H40.776V83.8182H41.9493ZM47.2006 94.1591C46.5112 94.1591 45.9063 93.995 45.3859 93.6669C44.8689 93.3388 44.4645 92.8797 44.1729 92.2898C43.8845 91.6998 43.7403 91.0104 43.7403 90.2216C43.7403 89.4261 43.8845 88.7318 44.1729 88.1385C44.4645 87.5452 44.8689 87.0845 45.3859 86.7564C45.9063 86.4283 46.5112 86.2642 47.2006 86.2642C47.8899 86.2642 48.4932 86.4283 49.0102 86.7564C49.5306 87.0845 49.9349 87.5452 50.2233 88.1385C50.5149 88.7318 50.6608 89.4261 50.6608 90.2216C50.6608 91.0104 50.5149 91.6998 50.2233 92.2898C49.9349 92.8797 49.5306 93.3388 49.0102 93.6669C48.4932 93.995 47.8899 94.1591 47.2006 94.1591ZM47.2006 93.1051C47.7242 93.1051 48.1551 92.9709 48.4932 92.7024C48.8312 92.4339 49.0815 92.081 49.2439 91.6435C49.4063 91.206 49.4875 90.732 49.4875 90.2216C49.4875 89.7112 49.4063 89.2356 49.2439 88.7947C49.0815 88.3539 48.8312 87.9976 48.4932 87.7259C48.1551 87.4541 47.7242 87.3182 47.2006 87.3182C46.6769 87.3182 46.246 87.4541 45.9079 87.7259C45.5699 87.9976 45.3196 88.3539 45.1572 88.7947C44.9948 89.2356 44.9136 89.7112 44.9136 90.2216C44.9136 90.732 44.9948 91.206 45.1572 91.6435C45.3196 92.081 45.5699 92.4339 45.9079 92.7024C46.246 92.9709 46.6769 93.1051 47.2006 93.1051ZM52.4518 94V86.3636H53.5853V87.517H53.6649C53.8041 87.1392 54.056 86.8326 54.4205 86.5973C54.7851 86.362 55.1961 86.2443 55.6535 86.2443C55.7397 86.2443 55.8474 86.246 55.9767 86.2493C56.1059 86.2526 56.2037 86.2576 56.27 86.2642V87.4574C56.2302 87.4474 56.1391 87.4325 55.9965 87.4126C55.8573 87.3894 55.7098 87.3778 55.5541 87.3778C55.1829 87.3778 54.8514 87.4557 54.5597 87.6115C54.2714 87.764 54.0427 87.9761 53.8737 88.2479C53.7079 88.5163 53.6251 88.8229 53.6251 89.1676V94H52.4518ZM57.6608 94V86.3636H58.8341V94H57.6608ZM58.2574 85.0909C58.0287 85.0909 57.8315 85.013 57.6657 84.8572C57.5033 84.7015 57.4221 84.5142 57.4221 84.2955C57.4221 84.0767 57.5033 83.8894 57.6657 83.7337C57.8315 83.5779 58.0287 83.5 58.2574 83.5C58.4861 83.5 58.6816 83.5779 58.844 83.7337C59.0097 83.8894 59.0926 84.0767 59.0926 84.2955C59.0926 84.5142 59.0097 84.7015 58.844 84.8572C58.6816 85.013 58.4861 85.0909 58.2574 85.0909ZM64.1847 94.1591C63.449 94.1591 62.8142 93.9967 62.2806 93.6719C61.7503 93.3438 61.341 92.8864 61.0526 92.2997C60.7676 91.7098 60.6251 91.0237 60.6251 90.2415C60.6251 89.4593 60.7676 88.7699 61.0526 88.1733C61.341 87.5734 61.742 87.1061 62.2558 86.7713C62.7728 86.4332 63.376 86.2642 64.0654 86.2642C64.4632 86.2642 64.8559 86.3305 65.2437 86.4631C65.6315 86.5956 65.9845 86.8111 66.3026 87.1094C66.6208 87.4044 66.8744 87.7955 67.0633 88.2827C67.2522 88.7699 67.3467 89.3698 67.3467 90.0824V90.5795H61.4603V89.5653H66.1535C66.1535 89.1345 66.0673 88.75 65.895 88.4119C65.7259 88.0739 65.484 87.8071 65.1691 87.6115C64.8576 87.416 64.4897 87.3182 64.0654 87.3182C63.5981 87.3182 63.1937 87.4342 62.8524 87.6662C62.5143 87.8949 62.2541 88.1932 62.0718 88.5611C61.8895 88.929 61.7984 89.3234 61.7984 89.7443V90.4205C61.7984 90.9972 61.8978 91.486 62.0967 91.8871C62.2989 92.2848 62.5789 92.5881 62.9369 92.7969C63.2948 93.0024 63.7108 93.1051 64.1847 93.1051C64.493 93.1051 64.7714 93.062 65.02 92.9759C65.2719 92.8864 65.489 92.7538 65.6713 92.5781C65.8535 92.3991 65.9944 92.1771 66.0938 91.9119L67.2274 92.2301C67.108 92.6146 66.9075 92.9527 66.6258 93.2443C66.3441 93.5327 65.9961 93.758 65.5818 93.9205C65.1675 94.0795 64.7018 94.1591 64.1847 94.1591ZM74.5406 88.0739L73.4866 88.3722C73.4203 88.1965 73.3225 88.0258 73.1933 87.8601C73.0673 87.6911 72.895 87.5518 72.6762 87.4425C72.4575 87.3331 72.1774 87.2784 71.836 87.2784C71.3687 87.2784 70.9793 87.3861 70.6677 87.6016C70.3595 87.8137 70.2053 88.0838 70.2053 88.4119C70.2053 88.7036 70.3114 88.9339 70.5235 89.103C70.7356 89.272 71.0671 89.4129 71.5178 89.5256L72.6514 89.804C73.3341 89.9697 73.8429 90.2232 74.1776 90.5646C74.5124 90.9027 74.6798 91.3385 74.6798 91.8722C74.6798 92.3097 74.5538 92.7008 74.3019 93.0455C74.0534 93.3902 73.7053 93.6619 73.2579 93.8608C72.8105 94.0597 72.2901 94.1591 71.6968 94.1591C70.9179 94.1591 70.2733 93.9901 69.7629 93.652C69.2525 93.3139 68.9293 92.8201 68.7934 92.1705L69.907 91.892C70.0131 92.303 70.2136 92.6113 70.5086 92.8168C70.8069 93.0223 71.1963 93.125 71.6769 93.125C72.2238 93.125 72.658 93.009 72.9795 92.777C73.3043 92.5417 73.4667 92.2599 73.4667 91.9318C73.4667 91.6667 73.3739 91.4446 73.1883 91.2656C73.0027 91.0833 72.7177 90.9474 72.3332 90.858L71.0605 90.5597C70.3611 90.3939 69.8474 90.1371 69.5193 89.7891C69.1945 89.4377 69.032 88.9986 69.032 88.4716C69.032 88.0407 69.153 87.6596 69.395 87.3281C69.6402 86.9967 69.9733 86.7365 70.3943 86.5476C70.8185 86.3587 71.2991 86.2642 71.836 86.2642C72.5917 86.2642 73.185 86.4299 73.6159 86.7614C74.05 87.0928 74.3583 87.5303 74.5406 88.0739Z" fill="#0D1220"/>
<path d="M111.612 72V70.7273L115.549 66.6477C115.969 66.2045 116.316 65.8163 116.589 65.483C116.865 65.1458 117.072 64.8258 117.208 64.5227C117.344 64.2197 117.413 63.8977 117.413 63.5568C117.413 63.1705 117.322 62.8371 117.14 62.5568C116.958 62.2727 116.71 62.0549 116.396 61.9034C116.081 61.7481 115.727 61.6705 115.333 61.6705C114.916 61.6705 114.553 61.7557 114.242 61.9261C113.932 62.0966 113.693 62.3371 113.526 62.6477C113.36 62.9583 113.276 63.322 113.276 63.7386H111.6C111.6 63.0303 111.763 62.411 112.089 61.8807C112.415 61.3504 112.862 60.9394 113.43 60.6477C113.998 60.3523 114.644 60.2045 115.367 60.2045C116.098 60.2045 116.742 60.3504 117.299 60.642C117.86 60.9299 118.297 61.3239 118.612 61.8239C118.926 62.3201 119.083 62.8807 119.083 63.5057C119.083 63.9375 119.002 64.3598 118.839 64.7727C118.68 65.1856 118.401 65.6458 118.004 66.1534C117.606 66.6572 117.053 67.2689 116.344 67.9886L114.032 70.4091V70.4943H119.271V72H111.612ZM125.475 72.1932C124.577 72.1894 123.81 71.9527 123.174 71.483C122.538 71.0133 122.051 70.3295 121.714 69.4318C121.377 68.5341 121.208 67.4527 121.208 66.1875C121.208 64.9261 121.377 63.8485 121.714 62.9545C122.055 62.0606 122.543 61.3788 123.18 60.9091C123.82 60.4394 124.585 60.2045 125.475 60.2045C126.365 60.2045 127.129 60.4413 127.765 60.9148C128.401 61.3845 128.888 62.0663 129.225 62.9602C129.566 63.8504 129.737 64.9261 129.737 66.1875C129.737 67.4564 129.568 68.5398 129.231 69.4375C128.894 70.3314 128.407 71.0152 127.771 71.4886C127.134 71.9583 126.369 72.1932 125.475 72.1932ZM125.475 70.6761C126.263 70.6761 126.879 70.2917 127.322 69.5227C127.769 68.7538 127.992 67.642 127.992 66.1875C127.992 65.2216 127.89 64.4053 127.685 63.7386C127.485 63.0682 127.195 62.5606 126.816 62.2159C126.441 61.8674 125.994 61.6932 125.475 61.6932C124.691 61.6932 124.076 62.0795 123.629 62.8523C123.182 63.625 122.956 64.7367 122.952 66.1875C122.952 67.1572 123.053 67.9773 123.254 68.6477C123.458 69.3144 123.748 69.8201 124.123 70.1648C124.498 70.5057 124.949 70.6761 125.475 70.6761ZM135.434 75.4545C134.741 75.4545 134.144 75.3636 133.644 75.1818C133.148 75 132.743 74.7595 132.428 74.4602C132.114 74.161 131.879 73.8333 131.724 73.4773L133.184 72.875C133.286 73.0417 133.423 73.2178 133.593 73.4034C133.767 73.5928 134.002 73.7538 134.298 73.8864C134.597 74.0189 134.981 74.0852 135.451 74.0852C136.095 74.0852 136.627 73.928 137.048 73.6136C137.468 73.303 137.678 72.8068 137.678 72.125V70.4091H137.57C137.468 70.5947 137.32 70.8011 137.127 71.0284C136.938 71.2557 136.676 71.4527 136.343 71.6193C136.01 71.786 135.576 71.8693 135.042 71.8693C134.353 71.8693 133.731 71.7083 133.178 71.3864C132.629 71.0606 132.193 70.5814 131.871 69.9489C131.553 69.3125 131.394 68.5303 131.394 67.6023C131.394 66.6742 131.551 65.8788 131.866 65.2159C132.184 64.553 132.62 64.0455 133.173 63.6932C133.726 63.3371 134.353 63.1591 135.053 63.1591C135.595 63.1591 136.032 63.25 136.366 63.4318C136.699 63.6098 136.959 63.8182 137.144 64.0568C137.334 64.2955 137.479 64.5057 137.582 64.6875H137.707V63.2727H139.371V72.1932C139.371 72.9432 139.197 73.5587 138.849 74.0398C138.5 74.5208 138.029 74.8769 137.434 75.108C136.843 75.339 136.176 75.4545 135.434 75.4545ZM135.417 70.4602C135.906 70.4602 136.318 70.3466 136.656 70.1193C136.996 69.8883 137.254 69.5587 137.428 69.1307C137.606 68.6989 137.695 68.1818 137.695 67.5795C137.695 66.9924 137.608 66.4754 137.434 66.0284C137.26 65.5814 137.004 65.233 136.667 64.983C136.33 64.7292 135.913 64.6023 135.417 64.6023C134.906 64.6023 134.479 64.7348 134.138 65C133.798 65.2614 133.54 65.6174 133.366 66.0682C133.195 66.5189 133.11 67.0227 133.11 67.5795C133.11 68.1515 133.197 68.6534 133.371 69.0852C133.546 69.517 133.803 69.8542 134.144 70.0966C134.489 70.339 134.913 70.4602 135.417 70.4602Z" fill="#0D1220"/>
<path d="M99.6353 94V83.8182H103.076C103.874 83.8182 104.527 83.9624 105.034 84.2507C105.545 84.5357 105.923 84.9219 106.168 85.4091C106.413 85.8963 106.536 86.4399 106.536 87.0398C106.536 87.6397 106.413 88.1849 106.168 88.6754C105.926 89.166 105.551 89.5571 105.044 89.8487C104.537 90.1371 103.888 90.2812 103.096 90.2812H100.63V89.1875H103.056C103.603 89.1875 104.042 89.093 104.373 88.9041C104.705 88.7152 104.945 88.46 105.094 88.1385C105.247 87.8137 105.323 87.4474 105.323 87.0398C105.323 86.6321 105.247 86.2675 105.094 85.946C104.945 85.6245 104.703 85.3726 104.368 85.1903C104.033 85.0047 103.589 84.9119 103.036 84.9119H100.868V94H99.6353ZM108.363 94V86.3636H109.496V87.517H109.576C109.715 87.1392 109.967 86.8326 110.332 86.5973C110.696 86.362 111.107 86.2443 111.565 86.2443C111.651 86.2443 111.759 86.246 111.888 86.2493C112.017 86.2526 112.115 86.2576 112.181 86.2642V87.4574C112.141 87.4474 112.05 87.4325 111.908 87.4126C111.768 87.3894 111.621 87.3778 111.465 87.3778C111.094 87.3778 110.763 87.4557 110.471 87.6115C110.183 87.764 109.954 87.9761 109.785 88.2479C109.619 88.5163 109.536 88.8229 109.536 89.1676V94H108.363ZM116.442 94.1591C115.752 94.1591 115.147 93.995 114.627 93.6669C114.11 93.3388 113.706 92.8797 113.414 92.2898C113.126 91.6998 112.982 91.0104 112.982 90.2216C112.982 89.4261 113.126 88.7318 113.414 88.1385C113.706 87.5452 114.11 87.0845 114.627 86.7564C115.147 86.4283 115.752 86.2642 116.442 86.2642C117.131 86.2642 117.734 86.4283 118.251 86.7564C118.772 87.0845 119.176 87.5452 119.464 88.1385C119.756 88.7318 119.902 89.4261 119.902 90.2216C119.902 91.0104 119.756 91.6998 119.464 92.2898C119.176 92.8797 118.772 93.3388 118.251 93.6669C117.734 93.995 117.131 94.1591 116.442 94.1591ZM116.442 93.1051C116.965 93.1051 117.396 92.9709 117.734 92.7024C118.072 92.4339 118.323 92.081 118.485 91.6435C118.647 91.206 118.729 90.732 118.729 90.2216C118.729 89.7112 118.647 89.2356 118.485 88.7947C118.323 88.3539 118.072 87.9976 117.734 87.7259C117.396 87.4541 116.965 87.3182 116.442 87.3182C115.918 87.3182 115.487 87.4541 115.149 87.7259C114.811 87.9976 114.561 88.3539 114.398 88.7947C114.236 89.2356 114.155 89.7112 114.155 90.2216C114.155 90.732 114.236 91.206 114.398 91.6435C114.561 92.081 114.811 92.4339 115.149 92.7024C115.487 92.9709 115.918 93.1051 116.442 93.1051ZM125.014 86.3636V87.358H121.057V86.3636H125.014ZM122.21 84.5341H123.383V91.8125C123.383 92.1439 123.431 92.3925 123.528 92.5582C123.627 92.7206 123.753 92.83 123.905 92.8864C124.061 92.9394 124.225 92.9659 124.398 92.9659C124.527 92.9659 124.633 92.9593 124.716 92.946C124.799 92.9295 124.865 92.9162 124.915 92.9062L125.153 93.9602C125.074 93.9901 124.963 94.0199 124.82 94.0497C124.678 94.0829 124.497 94.0994 124.278 94.0994C123.947 94.0994 123.622 94.0282 123.304 93.8857C122.989 93.7431 122.727 93.526 122.518 93.2344C122.313 92.9427 122.21 92.5748 122.21 92.1307V84.5341ZM129.899 94.1591C129.163 94.1591 128.528 93.9967 127.994 93.6719C127.464 93.3438 127.055 92.8864 126.767 92.2997C126.481 91.7098 126.339 91.0237 126.339 90.2415C126.339 89.4593 126.481 88.7699 126.767 88.1733C127.055 87.5734 127.456 87.1061 127.97 86.7713C128.487 86.4332 129.09 86.2642 129.779 86.2642C130.177 86.2642 130.57 86.3305 130.958 86.4631C131.345 86.5956 131.698 86.8111 132.017 87.1094C132.335 87.4044 132.588 87.7955 132.777 88.2827C132.966 88.7699 133.061 89.3698 133.061 90.0824V90.5795H127.174V89.5653H131.867C131.867 89.1345 131.781 88.75 131.609 88.4119C131.44 88.0739 131.198 87.8071 130.883 87.6115C130.571 87.416 130.204 87.3182 129.779 87.3182C129.312 87.3182 128.908 87.4342 128.566 87.6662C128.228 87.8949 127.968 88.1932 127.786 88.5611C127.603 88.929 127.512 89.3234 127.512 89.7443V90.4205C127.512 90.9972 127.612 91.486 127.811 91.8871C128.013 92.2848 128.293 92.5881 128.651 92.7969C129.009 93.0024 129.425 93.1051 129.899 93.1051C130.207 93.1051 130.485 93.062 130.734 92.9759C130.986 92.8864 131.203 92.7538 131.385 92.5781C131.567 92.3991 131.708 92.1771 131.808 91.9119L132.941 92.2301C132.822 92.6146 132.621 92.9527 132.34 93.2443C132.058 93.5327 131.71 93.758 131.296 93.9205C130.881 94.0795 130.416 94.1591 129.899 94.1591ZM134.845 94V86.3636H136.019V94H134.845ZM135.442 85.0909C135.213 85.0909 135.016 85.013 134.85 84.8572C134.688 84.7015 134.607 84.5142 134.607 84.2955C134.607 84.0767 134.688 83.8894 134.85 83.7337C135.016 83.5779 135.213 83.5 135.442 83.5C135.671 83.5 135.866 83.5779 136.029 83.7337C136.194 83.8894 136.277 84.0767 136.277 84.2955C136.277 84.5142 136.194 84.7015 136.029 84.8572C135.866 85.013 135.671 85.0909 135.442 85.0909ZM139.341 89.4062V94H138.168V86.3636H139.301V87.5568H139.401C139.58 87.169 139.851 86.8575 140.216 86.6222C140.58 86.3835 141.051 86.2642 141.628 86.2642C142.145 86.2642 142.597 86.3703 142.985 86.5824C143.373 86.7912 143.674 87.1094 143.89 87.5369C144.105 87.9612 144.213 88.4981 144.213 89.1477V94H143.04V89.2273C143.04 88.6274 142.884 88.16 142.572 87.8253C142.261 87.4872 141.833 87.3182 141.29 87.3182C140.915 87.3182 140.58 87.3994 140.286 87.5618C139.994 87.7242 139.763 87.9612 139.594 88.2727C139.425 88.5843 139.341 88.9621 139.341 89.4062ZM151.766 88.0739L150.712 88.3722C150.646 88.1965 150.548 88.0258 150.419 87.8601C150.293 87.6911 150.121 87.5518 149.902 87.4425C149.683 87.3331 149.403 87.2784 149.062 87.2784C148.594 87.2784 148.205 87.3861 147.893 87.6016C147.585 87.8137 147.431 88.0838 147.431 88.4119C147.431 88.7036 147.537 88.9339 147.749 89.103C147.961 89.272 148.293 89.4129 148.743 89.5256L149.877 89.804C150.56 89.9697 151.068 90.2232 151.403 90.5646C151.738 90.9027 151.905 91.3385 151.905 91.8722C151.905 92.3097 151.779 92.7008 151.528 93.0455C151.279 93.3902 150.931 93.6619 150.483 93.8608C150.036 94.0597 149.516 94.1591 148.922 94.1591C148.144 94.1591 147.499 93.9901 146.988 93.652C146.478 93.3139 146.155 92.8201 146.019 92.1705L147.133 91.892C147.239 92.303 147.439 92.6113 147.734 92.8168C148.032 93.0223 148.422 93.125 148.903 93.125C149.449 93.125 149.884 93.009 150.205 92.777C150.53 92.5417 150.692 92.2599 150.692 91.9318C150.692 91.6667 150.599 91.4446 150.414 91.2656C150.228 91.0833 149.943 90.9474 149.559 90.858L148.286 90.5597C147.587 90.3939 147.073 90.1371 146.745 89.7891C146.42 89.4377 146.258 88.9986 146.258 88.4716C146.258 88.0407 146.379 87.6596 146.621 87.3281C146.866 86.9967 147.199 86.7365 147.62 86.5476C148.044 86.3587 148.525 86.2642 149.062 86.2642C149.817 86.2642 150.411 86.4299 150.841 86.7614C151.276 87.0928 151.584 87.5303 151.766 88.0739Z" fill="#0D1220"/>
<path d="M194.354 60.3636V72H192.593V62.125H192.525L189.741 63.9432V62.2614L192.644 60.3636H194.354ZM201.343 72.1591C200.631 72.1591 199.991 72.0227 199.423 71.75C198.858 71.4735 198.407 71.0947 198.07 70.6136C197.733 70.1326 197.553 69.5833 197.531 68.9659H199.235C199.277 69.4659 199.498 69.8769 199.9 70.1989C200.301 70.5208 200.782 70.6818 201.343 70.6818C201.79 70.6818 202.186 70.5795 202.531 70.375C202.879 70.1667 203.152 69.8807 203.349 69.517C203.549 69.1534 203.65 68.7386 203.65 68.2727C203.65 67.7992 203.548 67.3769 203.343 67.0057C203.138 66.6345 202.856 66.3428 202.496 66.1307C202.14 65.9186 201.731 65.8106 201.269 65.8068C200.917 65.8068 200.563 65.8674 200.207 65.9886C199.851 66.1098 199.563 66.2689 199.343 66.4659L197.735 66.2273L198.388 60.3636H204.786V61.8693H199.849L199.479 65.125H199.548C199.775 64.9053 200.076 64.7216 200.451 64.5739C200.83 64.4261 201.235 64.3523 201.667 64.3523C202.375 64.3523 203.006 64.5208 203.559 64.858C204.116 65.1951 204.553 65.6553 204.871 66.2386C205.193 66.8182 205.353 67.4848 205.349 68.2386C205.353 68.9924 205.182 69.6648 204.837 70.2557C204.496 70.8466 204.023 71.3125 203.417 71.6534C202.815 71.9905 202.123 72.1591 201.343 72.1591ZM211.106 75.4545C210.413 75.4545 209.816 75.3636 209.316 75.1818C208.82 75 208.415 74.7595 208.1 74.4602C207.786 74.161 207.551 73.8333 207.396 73.4773L208.856 72.875C208.958 73.0417 209.094 73.2178 209.265 73.4034C209.439 73.5928 209.674 73.7538 209.969 73.8864C210.269 74.0189 210.653 74.0852 211.123 74.0852C211.767 74.0852 212.299 73.928 212.719 73.6136C213.14 73.303 213.35 72.8068 213.35 72.125V70.4091H213.242C213.14 70.5947 212.992 70.8011 212.799 71.0284C212.61 71.2557 212.348 71.4527 212.015 71.6193C211.682 71.786 211.248 71.8693 210.714 71.8693C210.024 71.8693 209.403 71.7083 208.85 71.3864C208.301 71.0606 207.865 70.5814 207.543 69.9489C207.225 69.3125 207.066 68.5303 207.066 67.6023C207.066 66.6742 207.223 65.8788 207.538 65.2159C207.856 64.553 208.291 64.0455 208.844 63.6932C209.397 63.3371 210.024 63.1591 210.725 63.1591C211.267 63.1591 211.704 63.25 212.038 63.4318C212.371 63.6098 212.63 63.8182 212.816 64.0568C213.005 64.2955 213.151 64.5057 213.254 64.6875H213.379V63.2727H215.043V72.1932C215.043 72.9432 214.869 73.5587 214.521 74.0398C214.172 74.5208 213.701 74.8769 213.106 75.108C212.515 75.339 211.848 75.4545 211.106 75.4545ZM211.089 70.4602C211.577 70.4602 211.99 70.3466 212.327 70.1193C212.668 69.8883 212.926 69.5587 213.1 69.1307C213.278 68.6989 213.367 68.1818 213.367 67.5795C213.367 66.9924 213.28 66.4754 213.106 66.0284C212.932 65.5814 212.676 65.233 212.339 64.983C212.002 64.7292 211.585 64.6023 211.089 64.6023C210.577 64.6023 210.151 64.7348 209.81 65C209.469 65.2614 209.212 65.6174 209.038 66.0682C208.867 66.5189 208.782 67.0227 208.782 67.5795C208.782 68.1515 208.869 68.6534 209.043 69.0852C209.218 69.517 209.475 69.8542 209.816 70.0966C210.161 70.339 210.585 70.4602 211.089 70.4602Z" fill="#0D1220"/>
<path d="M189.548 94V83.8182H195.653V84.9119H190.781V88.3523H195.196V89.446H190.781V94H189.548ZM199.853 94.179C199.369 94.179 198.93 94.0878 198.536 93.9055C198.141 93.7199 197.828 93.4531 197.596 93.1051C197.364 92.7538 197.248 92.3295 197.248 91.8324C197.248 91.3949 197.334 91.0402 197.507 90.7685C197.679 90.4934 197.909 90.2779 198.198 90.1222C198.486 89.9664 198.804 89.8504 199.152 89.7741C199.504 89.6946 199.857 89.6316 200.211 89.5852C200.675 89.5256 201.051 89.4808 201.34 89.451C201.631 89.4179 201.844 89.3632 201.976 89.2869C202.112 89.2107 202.18 89.0781 202.18 88.8892V88.8494C202.18 88.3589 202.046 87.9777 201.777 87.706C201.512 87.4342 201.109 87.2983 200.569 87.2983C200.009 87.2983 199.57 87.4209 199.252 87.6662C198.934 87.9115 198.71 88.1733 198.581 88.4517L197.467 88.054C197.666 87.59 197.931 87.2287 198.262 86.9702C198.597 86.7083 198.962 86.526 199.356 86.4233C199.754 86.3172 200.145 86.2642 200.529 86.2642C200.775 86.2642 201.056 86.294 201.375 86.3537C201.696 86.41 202.006 86.5277 202.304 86.7067C202.606 86.8857 202.856 87.1558 203.055 87.517C203.254 87.8783 203.353 88.3622 203.353 88.9688V94H202.18V92.9659H202.12C202.041 93.1316 201.908 93.3089 201.723 93.4979C201.537 93.6868 201.29 93.8475 200.982 93.9801C200.674 94.1127 200.297 94.179 199.853 94.179ZM200.032 93.125C200.496 93.125 200.887 93.0339 201.206 92.8516C201.527 92.6693 201.769 92.4339 201.931 92.1456C202.097 91.8572 202.18 91.554 202.18 91.2358V90.1619C202.13 90.2216 202.021 90.2763 201.852 90.326C201.686 90.3724 201.494 90.4138 201.275 90.4503C201.06 90.4834 200.849 90.5133 200.644 90.5398C200.442 90.563 200.277 90.5829 200.152 90.5994C199.847 90.6392 199.562 90.7038 199.296 90.7933C199.035 90.8795 198.822 91.0104 198.66 91.1861C198.501 91.3584 198.421 91.5937 198.421 91.892C198.421 92.2997 198.572 92.608 198.874 92.8168C199.179 93.0223 199.565 93.125 200.032 93.125ZM208.816 86.3636V87.358H204.858V86.3636H208.816ZM206.012 84.5341H207.185V91.8125C207.185 92.1439 207.233 92.3925 207.329 92.5582C207.429 92.7206 207.555 92.83 207.707 92.8864C207.863 92.9394 208.027 92.9659 208.199 92.9659C208.329 92.9659 208.435 92.9593 208.517 92.946C208.6 92.9295 208.667 92.9162 208.716 92.9062L208.955 93.9602C208.875 93.9901 208.764 94.0199 208.622 94.0497C208.479 94.0829 208.299 94.0994 208.08 94.0994C207.749 94.0994 207.424 94.0282 207.106 93.8857C206.791 93.7431 206.529 93.526 206.32 93.2344C206.115 92.9427 206.012 92.5748 206.012 92.1307V84.5341ZM215.853 88.0739L214.799 88.3722C214.733 88.1965 214.635 88.0258 214.506 87.8601C214.38 87.6911 214.207 87.5518 213.989 87.4425C213.77 87.3331 213.49 87.2784 213.149 87.2784C212.681 87.2784 212.292 87.3861 211.98 87.6016C211.672 87.8137 211.518 88.0838 211.518 88.4119C211.518 88.7036 211.624 88.9339 211.836 89.103C212.048 89.272 212.38 89.4129 212.83 89.5256L213.964 89.804C214.647 89.9697 215.155 90.2232 215.49 90.5646C215.825 90.9027 215.992 91.3385 215.992 91.8722C215.992 92.3097 215.866 92.7008 215.614 93.0455C215.366 93.3902 215.018 93.6619 214.57 93.8608C214.123 94.0597 213.603 94.1591 213.009 94.1591C212.23 94.1591 211.586 93.9901 211.075 93.652C210.565 93.3139 210.242 92.8201 210.106 92.1705L211.22 91.892C211.326 92.303 211.526 92.6113 211.821 92.8168C212.119 93.0223 212.509 93.125 212.989 93.125C213.536 93.125 213.97 93.009 214.292 92.777C214.617 92.5417 214.779 92.2599 214.779 91.9318C214.779 91.6667 214.686 91.4446 214.501 91.2656C214.315 91.0833 214.03 90.9474 213.646 90.858L212.373 90.5597C211.674 90.3939 211.16 90.1371 210.832 89.7891C210.507 89.4377 210.345 88.9986 210.345 88.4716C210.345 88.0407 210.466 87.6596 210.707 87.3281C210.953 86.9967 211.286 86.7365 211.707 86.5476C212.131 86.3587 212.612 86.2642 213.149 86.2642C213.904 86.2642 214.497 86.4299 214.928 86.7614C215.363 87.0928 215.671 87.5303 215.853 88.0739Z" fill="#0D1220"/>
<path d="M271.354 60.3636V72H269.593V62.125H269.525L266.741 63.9432V62.2614L269.644 60.3636H271.354ZM278.343 72.1591C277.631 72.1591 276.991 72.0227 276.423 71.75C275.858 71.4735 275.407 71.0947 275.07 70.6136C274.733 70.1326 274.553 69.5833 274.531 68.9659H276.235C276.277 69.4659 276.498 69.8769 276.9 70.1989C277.301 70.5208 277.782 70.6818 278.343 70.6818C278.79 70.6818 279.186 70.5795 279.531 70.375C279.879 70.1667 280.152 69.8807 280.349 69.517C280.549 69.1534 280.65 68.7386 280.65 68.2727C280.65 67.7992 280.548 67.3769 280.343 67.0057C280.138 66.6345 279.856 66.3428 279.496 66.1307C279.14 65.9186 278.731 65.8106 278.269 65.8068C277.917 65.8068 277.563 65.8674 277.207 65.9886C276.851 66.1098 276.563 66.2689 276.343 66.4659L274.735 66.2273L275.388 60.3636H281.786V61.8693H276.849L276.479 65.125H276.548C276.775 64.9053 277.076 64.7216 277.451 64.5739C277.83 64.4261 278.235 64.3523 278.667 64.3523C279.375 64.3523 280.006 64.5208 280.559 64.858C281.116 65.1951 281.553 65.6553 281.871 66.2386C282.193 66.8182 282.353 67.4848 282.349 68.2386C282.353 68.9924 282.182 69.6648 281.837 70.2557C281.496 70.8466 281.023 71.3125 280.417 71.6534C279.815 71.9905 279.123 72.1591 278.343 72.1591ZM288.106 75.4545C287.413 75.4545 286.816 75.3636 286.316 75.1818C285.82 75 285.415 74.7595 285.1 74.4602C284.786 74.161 284.551 73.8333 284.396 73.4773L285.856 72.875C285.958 73.0417 286.094 73.2178 286.265 73.4034C286.439 73.5928 286.674 73.7538 286.969 73.8864C287.269 74.0189 287.653 74.0852 288.123 74.0852C288.767 74.0852 289.299 73.928 289.719 73.6136C290.14 73.303 290.35 72.8068 290.35 72.125V70.4091H290.242C290.14 70.5947 289.992 70.8011 289.799 71.0284C289.61 71.2557 289.348 71.4527 289.015 71.6193C288.682 71.786 288.248 71.8693 287.714 71.8693C287.024 71.8693 286.403 71.7083 285.85 71.3864C285.301 71.0606 284.865 70.5814 284.543 69.9489C284.225 69.3125 284.066 68.5303 284.066 67.6023C284.066 66.6742 284.223 65.8788 284.538 65.2159C284.856 64.553 285.291 64.0455 285.844 63.6932C286.397 63.3371 287.024 63.1591 287.725 63.1591C288.267 63.1591 288.704 63.25 289.038 63.4318C289.371 63.6098 289.63 63.8182 289.816 64.0568C290.005 64.2955 290.151 64.5057 290.254 64.6875H290.379V63.2727H292.043V72.1932C292.043 72.9432 291.869 73.5587 291.521 74.0398C291.172 74.5208 290.701 74.8769 290.106 75.108C289.515 75.339 288.848 75.4545 288.106 75.4545ZM288.089 70.4602C288.577 70.4602 288.99 70.3466 289.327 70.1193C289.668 69.8883 289.926 69.5587 290.1 69.1307C290.278 68.6989 290.367 68.1818 290.367 67.5795C290.367 66.9924 290.28 66.4754 290.106 66.0284C289.932 65.5814 289.676 65.233 289.339 64.983C289.002 64.7292 288.585 64.6023 288.089 64.6023C287.577 64.6023 287.151 64.7348 286.81 65C286.469 65.2614 286.212 65.6174 286.038 66.0682C285.867 66.5189 285.782 67.0227 285.782 67.5795C285.782 68.1515 285.869 68.6534 286.043 69.0852C286.218 69.517 286.475 69.8542 286.816 70.0966C287.161 70.339 287.585 70.4602 288.089 70.4602Z" fill="#0D1220"/>
<path d="M269.28 87H268.047C267.974 86.6454 267.846 86.3338 267.664 86.0653C267.485 85.7969 267.266 85.5715 267.008 85.3892C266.752 85.2036 266.469 85.0644 266.157 84.9716C265.846 84.8788 265.521 84.8324 265.183 84.8324C264.567 84.8324 264.008 84.9882 263.508 85.2997C263.01 85.6113 262.614 86.0703 262.319 86.6768C262.028 87.2834 261.882 88.0275 261.882 88.9091C261.882 89.7907 262.028 90.5348 262.319 91.1413C262.614 91.7479 263.01 92.2069 263.508 92.5185C264.008 92.83 264.567 92.9858 265.183 92.9858C265.521 92.9858 265.846 92.9394 266.157 92.8466C266.469 92.7538 266.752 92.6162 267.008 92.4339C267.266 92.2483 267.485 92.0213 267.664 91.7528C267.846 91.4811 267.974 91.1695 268.047 90.8182H269.28C269.187 91.3385 269.018 91.8042 268.773 92.2152C268.527 92.6262 268.222 92.9759 267.858 93.2642C267.493 93.5492 267.084 93.7663 266.63 93.9155C266.179 94.0646 265.697 94.1392 265.183 94.1392C264.315 94.1392 263.542 93.9271 262.866 93.5028C262.19 93.0786 261.658 92.4754 261.27 91.6932C260.883 90.911 260.689 89.983 260.689 88.9091C260.689 87.8352 260.883 86.9072 261.27 86.125C261.658 85.3428 262.19 84.7396 262.866 84.3153C263.542 83.8911 264.315 83.679 265.183 83.679C265.697 83.679 266.179 83.7536 266.63 83.9027C267.084 84.0518 267.493 84.2706 267.858 84.5589C268.222 84.844 268.527 85.192 268.773 85.603C269.018 86.0107 269.187 86.4763 269.28 87ZM273.36 94.179C272.876 94.179 272.437 94.0878 272.043 93.9055C271.648 93.7199 271.335 93.4531 271.103 93.1051C270.871 92.7538 270.755 92.3295 270.755 91.8324C270.755 91.3949 270.841 91.0402 271.013 90.7685C271.186 90.4934 271.416 90.2779 271.705 90.1222C271.993 89.9664 272.311 89.8504 272.659 89.7741C273.01 89.6946 273.363 89.6316 273.718 89.5852C274.182 89.5256 274.558 89.4808 274.847 89.451C275.138 89.4179 275.35 89.3632 275.483 89.2869C275.619 89.2107 275.687 89.0781 275.687 88.8892V88.8494C275.687 88.3589 275.553 87.9777 275.284 87.706C275.019 87.4342 274.616 87.2983 274.076 87.2983C273.516 87.2983 273.077 87.4209 272.759 87.6662C272.44 87.9115 272.217 88.1733 272.087 88.4517L270.974 88.054C271.173 87.59 271.438 87.2287 271.769 86.9702C272.104 86.7083 272.469 86.526 272.863 86.4233C273.261 86.3172 273.652 86.2642 274.036 86.2642C274.281 86.2642 274.563 86.294 274.881 86.3537C275.203 86.41 275.513 86.5277 275.811 86.7067C276.113 86.8857 276.363 87.1558 276.562 87.517C276.761 87.8783 276.86 88.3622 276.86 88.9688V94H275.687V92.9659H275.627C275.548 93.1316 275.415 93.3089 275.229 93.4979C275.044 93.6868 274.797 93.8475 274.489 93.9801C274.18 94.1127 273.804 94.179 273.36 94.179ZM273.539 93.125C274.003 93.125 274.394 93.0339 274.712 92.8516C275.034 92.6693 275.276 92.4339 275.438 92.1456C275.604 91.8572 275.687 91.554 275.687 91.2358V90.1619C275.637 90.2216 275.528 90.2763 275.359 90.326C275.193 90.3724 275.001 90.4138 274.782 90.4503C274.567 90.4834 274.356 90.5133 274.151 90.5398C273.948 90.563 273.784 90.5829 273.658 90.5994C273.353 90.6392 273.068 90.7038 272.803 90.7933C272.541 90.8795 272.329 91.0104 272.167 91.1861C272.008 91.3584 271.928 91.5937 271.928 91.892C271.928 92.2997 272.079 92.608 272.381 92.8168C272.686 93.0223 273.072 93.125 273.539 93.125ZM279.002 94V86.3636H280.135V87.517H280.215C280.354 87.1392 280.606 86.8326 280.97 86.5973C281.335 86.362 281.746 86.2443 282.203 86.2443C282.289 86.2443 282.397 86.246 282.526 86.2493C282.656 86.2526 282.753 86.2576 282.82 86.2642V87.4574C282.78 87.4474 282.689 87.4325 282.546 87.4126C282.407 87.3894 282.26 87.3778 282.104 87.3778C281.733 87.3778 281.401 87.4557 281.11 87.6115C280.821 87.764 280.593 87.9761 280.423 88.2479C280.258 88.5163 280.175 88.8229 280.175 89.1676V94H279.002ZM284.37 94V83.8182H285.543V87.5767H285.642C285.729 87.4441 285.848 87.2751 286 87.0696C286.156 86.8608 286.378 86.6752 286.667 86.5128C286.958 86.3471 287.353 86.2642 287.85 86.2642C288.493 86.2642 289.06 86.425 289.55 86.7464C290.041 87.0679 290.423 87.5237 290.699 88.1136C290.974 88.7036 291.111 89.3996 291.111 90.2017C291.111 91.0104 290.974 91.7114 290.699 92.3047C290.423 92.8946 290.042 93.352 289.555 93.6768C289.068 93.9983 288.506 94.1591 287.87 94.1591C287.379 94.1591 286.986 94.0779 286.691 93.9155C286.396 93.7498 286.169 93.5625 286.01 93.3537C285.851 93.1416 285.729 92.9659 285.642 92.8267H285.503V94H284.37ZM285.523 90.1818C285.523 90.7585 285.608 91.2673 285.777 91.7081C285.946 92.1456 286.193 92.4886 286.517 92.7372C286.842 92.9825 287.24 93.1051 287.711 93.1051C288.201 93.1051 288.61 92.9759 288.939 92.7173C289.27 92.4555 289.519 92.1042 289.684 91.6634C289.853 91.2192 289.938 90.7254 289.938 90.1818C289.938 89.6449 289.855 89.161 289.689 88.7301C289.527 88.2959 289.28 87.9529 288.949 87.701C288.62 87.4458 288.208 87.3182 287.711 87.3182C287.233 87.3182 286.832 87.4392 286.507 87.6811C286.183 87.9197 285.937 88.2545 285.772 88.6854C285.606 89.1129 285.523 89.6117 285.523 90.1818ZM298.315 88.0739L297.261 88.3722C297.195 88.1965 297.097 88.0258 296.968 87.8601C296.842 87.6911 296.669 87.5518 296.451 87.4425C296.232 87.3331 295.952 87.2784 295.61 87.2784C295.143 87.2784 294.754 87.3861 294.442 87.6016C294.134 87.8137 293.98 88.0838 293.98 88.4119C293.98 88.7036 294.086 88.9339 294.298 89.103C294.51 89.272 294.842 89.4129 295.292 89.5256L296.426 89.804C297.109 89.9697 297.617 90.2232 297.952 90.5646C298.287 90.9027 298.454 91.3385 298.454 91.8722C298.454 92.3097 298.328 92.7008 298.076 93.0455C297.828 93.3902 297.48 93.6619 297.032 93.8608C296.585 94.0597 296.065 94.1591 295.471 94.1591C294.692 94.1591 294.048 93.9901 293.537 93.652C293.027 93.3139 292.704 92.8201 292.568 92.1705L293.681 91.892C293.788 92.303 293.988 92.6113 294.283 92.8168C294.581 93.0223 294.971 93.125 295.451 93.125C295.998 93.125 296.432 93.009 296.754 92.777C297.079 92.5417 297.241 92.2599 297.241 91.9318C297.241 91.6667 297.148 91.4446 296.963 91.2656C296.777 91.0833 296.492 90.9474 296.108 90.858L294.835 90.5597C294.136 90.3939 293.622 90.1371 293.294 89.7891C292.969 89.4377 292.806 88.9986 292.806 88.4716C292.806 88.0407 292.927 87.6596 293.169 87.3281C293.415 86.9967 293.748 86.7365 294.169 86.5476C294.593 86.3587 295.074 86.2642 295.61 86.2642C296.366 86.2642 296.959 86.4299 297.39 86.7614C297.824 87.0928 298.133 87.5303 298.315 88.0739Z" fill="#0D1220"/>
<path d="M213.936 204.129H212.384C212.325 203.798 212.214 203.506 212.051 203.254C211.889 203.002 211.69 202.789 211.455 202.613C211.219 202.437 210.956 202.305 210.664 202.215C210.376 202.126 210.069 202.081 209.745 202.081C209.158 202.081 208.633 202.228 208.169 202.523C207.708 202.818 207.343 203.251 207.075 203.821C206.81 204.391 206.677 205.087 206.677 205.909C206.677 206.738 206.81 207.437 207.075 208.007C207.343 208.577 207.71 209.008 208.174 209.3C208.638 209.591 209.16 209.737 209.74 209.737C210.061 209.737 210.366 209.694 210.654 209.608C210.946 209.518 211.21 209.388 211.445 209.215C211.68 209.043 211.879 208.832 212.041 208.584C212.207 208.332 212.322 208.044 212.384 207.719L213.936 207.724C213.853 208.224 213.692 208.685 213.453 209.106C213.218 209.523 212.915 209.885 212.544 210.19C212.176 210.491 211.755 210.725 211.281 210.891C210.807 211.056 210.29 211.139 209.73 211.139C208.848 211.139 208.063 210.93 207.373 210.513C206.684 210.092 206.14 209.49 205.742 208.708C205.348 207.926 205.151 206.993 205.151 205.909C205.151 204.822 205.35 203.889 205.747 203.11C206.145 202.328 206.689 201.728 207.378 201.31C208.068 200.889 208.851 200.679 209.73 200.679C210.27 200.679 210.774 200.757 211.241 200.913C211.712 201.065 212.134 201.29 212.509 201.589C212.883 201.884 213.193 202.245 213.438 202.673C213.684 203.097 213.849 203.582 213.936 204.129ZM217.877 211.169C217.393 211.169 216.955 211.08 216.564 210.901C216.173 210.718 215.863 210.455 215.635 210.11C215.409 209.765 215.297 209.343 215.297 208.842C215.297 208.411 215.379 208.057 215.545 207.778C215.711 207.5 215.935 207.28 216.216 207.117C216.498 206.955 216.813 206.832 217.161 206.749C217.509 206.666 217.864 206.603 218.225 206.56C218.682 206.507 219.053 206.464 219.339 206.431C219.624 206.395 219.831 206.337 219.96 206.257C220.089 206.178 220.154 206.048 220.154 205.869V205.835C220.154 205.4 220.031 205.064 219.786 204.825C219.544 204.587 219.183 204.467 218.702 204.467C218.202 204.467 217.807 204.578 217.519 204.8C217.234 205.019 217.037 205.263 216.927 205.531L215.53 205.213C215.696 204.749 215.938 204.375 216.256 204.089C216.578 203.801 216.947 203.592 217.365 203.463C217.782 203.33 218.222 203.264 218.682 203.264C218.987 203.264 219.31 203.301 219.652 203.374C219.996 203.443 220.318 203.572 220.616 203.761C220.918 203.95 221.165 204.22 221.357 204.572C221.549 204.92 221.645 205.372 221.645 205.929V211H220.194V209.956H220.134C220.038 210.148 219.894 210.337 219.701 210.523C219.509 210.708 219.262 210.862 218.961 210.985C218.659 211.108 218.298 211.169 217.877 211.169ZM218.2 209.976C218.611 209.976 218.962 209.895 219.254 209.732C219.549 209.57 219.773 209.358 219.925 209.096C220.081 208.831 220.159 208.547 220.159 208.246V207.261C220.106 207.314 220.003 207.364 219.851 207.411C219.701 207.454 219.531 207.492 219.339 207.525C219.146 207.555 218.959 207.583 218.777 207.609C218.594 207.633 218.442 207.652 218.319 207.669C218.031 207.705 217.767 207.767 217.529 207.853C217.294 207.939 217.105 208.063 216.962 208.226C216.823 208.385 216.753 208.597 216.753 208.862C216.753 209.23 216.889 209.509 217.161 209.697C217.433 209.883 217.779 209.976 218.2 209.976ZM225.112 206.466V211H223.625V203.364H225.052V204.607H225.147C225.322 204.202 225.597 203.877 225.972 203.632C226.35 203.387 226.825 203.264 227.399 203.264C227.919 203.264 228.375 203.374 228.766 203.592C229.157 203.808 229.46 204.129 229.676 204.557C229.891 204.984 229.999 205.513 229.999 206.143V211H228.512V206.322C228.512 205.768 228.368 205.336 228.08 205.024C227.791 204.709 227.395 204.552 226.892 204.552C226.547 204.552 226.24 204.626 225.972 204.776C225.707 204.925 225.496 205.143 225.34 205.432C225.188 205.717 225.112 206.062 225.112 206.466ZM235.209 211.154C234.47 211.154 233.834 210.987 233.3 210.652C232.77 210.314 232.362 209.848 232.077 209.255C231.792 208.662 231.649 207.982 231.649 207.217C231.649 206.441 231.795 205.757 232.087 205.163C232.379 204.567 232.79 204.101 233.32 203.766C233.85 203.432 234.475 203.264 235.194 203.264C235.774 203.264 236.291 203.372 236.745 203.587C237.199 203.799 237.566 204.098 237.844 204.482C238.126 204.867 238.293 205.316 238.346 205.83H236.899C236.82 205.472 236.638 205.163 236.353 204.905C236.071 204.646 235.693 204.517 235.219 204.517C234.805 204.517 234.442 204.626 234.13 204.845C233.822 205.061 233.582 205.369 233.409 205.77C233.237 206.168 233.151 206.638 233.151 207.182C233.151 207.739 233.235 208.219 233.404 208.624C233.573 209.028 233.812 209.341 234.12 209.563C234.432 209.785 234.798 209.896 235.219 209.896C235.501 209.896 235.756 209.845 235.985 209.742C236.217 209.636 236.411 209.485 236.566 209.29C236.725 209.094 236.836 208.859 236.899 208.584H238.346C238.293 209.078 238.132 209.518 237.864 209.906C237.595 210.294 237.236 210.599 236.785 210.821C236.338 211.043 235.812 211.154 235.209 211.154ZM243.227 211.154C242.475 211.154 241.827 210.993 241.283 210.672C240.743 210.347 240.325 209.891 240.03 209.305C239.739 208.715 239.593 208.024 239.593 207.232C239.593 206.449 239.739 205.76 240.03 205.163C240.325 204.567 240.736 204.101 241.263 203.766C241.794 203.432 242.413 203.264 243.123 203.264C243.553 203.264 243.971 203.335 244.375 203.478C244.78 203.621 245.143 203.844 245.464 204.149C245.786 204.454 246.039 204.85 246.225 205.337C246.41 205.821 246.503 206.41 246.503 207.102V207.629H240.433V206.516H245.047C245.047 206.125 244.967 205.778 244.808 205.477C244.649 205.172 244.425 204.931 244.137 204.756C243.852 204.58 243.517 204.492 243.133 204.492C242.715 204.492 242.35 204.595 242.039 204.8C241.731 205.003 241.492 205.268 241.323 205.596C241.157 205.921 241.074 206.274 241.074 206.655V207.525C241.074 208.035 241.164 208.469 241.343 208.827C241.525 209.185 241.779 209.459 242.103 209.648C242.428 209.833 242.808 209.926 243.242 209.926C243.524 209.926 243.781 209.886 244.013 209.807C244.245 209.724 244.445 209.601 244.614 209.439C244.783 209.277 244.912 209.076 245.002 208.837L246.409 209.091C246.296 209.505 246.094 209.868 245.802 210.18C245.514 210.488 245.151 210.728 244.714 210.901C244.279 211.07 243.784 211.154 243.227 211.154ZM249.639 200.818V211H248.153V200.818H249.639Z" fill="#35CC8C"/>
<path d="M293.435 205.909C293.435 206.996 293.236 207.931 292.838 208.713C292.44 209.492 291.895 210.092 291.203 210.513C290.513 210.93 289.729 211.139 288.851 211.139C287.969 211.139 287.182 210.93 286.489 210.513C285.8 210.092 285.256 209.49 284.859 208.708C284.461 207.926 284.262 206.993 284.262 205.909C284.262 204.822 284.461 203.889 284.859 203.11C285.256 202.328 285.8 201.728 286.489 201.31C287.182 200.889 287.969 200.679 288.851 200.679C289.729 200.679 290.513 200.889 291.203 201.31C291.895 201.728 292.44 202.328 292.838 203.11C293.236 203.889 293.435 204.822 293.435 205.909ZM291.913 205.909C291.913 205.08 291.779 204.383 291.511 203.816C291.246 203.246 290.881 202.815 290.417 202.523C289.956 202.228 289.434 202.081 288.851 202.081C288.264 202.081 287.741 202.228 287.28 202.523C286.819 202.815 286.455 203.246 286.186 203.816C285.921 204.383 285.788 205.08 285.788 205.909C285.788 206.738 285.921 207.437 286.186 208.007C286.455 208.574 286.819 209.005 287.28 209.3C287.741 209.591 288.264 209.737 288.851 209.737C289.434 209.737 289.956 209.591 290.417 209.3C290.881 209.005 291.246 208.574 291.511 208.007C291.779 207.437 291.913 206.738 291.913 205.909ZM295.35 211V200.818H296.886V205.68H297.011L301.281 200.818H303.215L299.109 205.402L303.23 211H301.381L298.089 206.451L296.886 207.833V211H295.35Z" fill="#35CC8C"/>
<path d="M92.5 113C92.5 110.791 94.2909 109 96.5 109H188.5C190.709 109 192.5 110.791 192.5 113V161H92.5V113Z" fill="#F7F7F7"/>
<path d="M113.997 137.364V149H112.588V138.841H112.519L109.679 140.727V139.295L112.588 137.364H113.997ZM121.219 149.159C120.363 149.159 119.634 148.926 119.031 148.46C118.429 147.991 117.969 147.311 117.651 146.42C117.332 145.527 117.173 144.447 117.173 143.182C117.173 141.924 117.332 140.85 117.651 139.96C117.973 139.066 118.435 138.384 119.037 137.915C119.643 137.441 120.37 137.205 121.219 137.205C122.067 137.205 122.793 137.441 123.395 137.915C124.001 138.384 124.463 139.066 124.781 139.96C125.103 140.85 125.264 141.924 125.264 143.182C125.264 144.447 125.105 145.527 124.787 146.42C124.469 147.311 124.009 147.991 123.406 148.46C122.804 148.926 122.075 149.159 121.219 149.159ZM121.219 147.909C122.067 147.909 122.726 147.5 123.196 146.682C123.666 145.864 123.901 144.697 123.901 143.182C123.901 142.174 123.793 141.316 123.577 140.608C123.365 139.9 123.058 139.36 122.656 138.989C122.259 138.617 121.779 138.432 121.219 138.432C120.378 138.432 119.721 138.847 119.247 139.676C118.774 140.502 118.537 141.67 118.537 143.182C118.537 144.189 118.643 145.045 118.855 145.75C119.067 146.455 119.372 146.991 119.77 147.358C120.171 147.725 120.654 147.909 121.219 147.909ZM131.299 149.159C130.443 149.159 129.714 148.926 129.111 148.46C128.509 147.991 128.049 147.311 127.731 146.42C127.412 145.527 127.253 144.447 127.253 143.182C127.253 141.924 127.412 140.85 127.731 139.96C128.053 139.066 128.515 138.384 129.117 137.915C129.723 137.441 130.45 137.205 131.299 137.205C132.147 137.205 132.873 137.441 133.475 137.915C134.081 138.384 134.543 139.066 134.861 139.96C135.183 140.85 135.344 141.924 135.344 143.182C135.344 144.447 135.185 145.527 134.867 146.42C134.549 147.311 134.089 147.991 133.486 148.46C132.884 148.926 132.155 149.159 131.299 149.159ZM131.299 147.909C132.147 147.909 132.806 147.5 133.276 146.682C133.746 145.864 133.981 144.697 133.981 143.182C133.981 142.174 133.873 141.316 133.657 140.608C133.445 139.9 133.138 139.36 132.736 138.989C132.339 138.617 131.859 138.432 131.299 138.432C130.458 138.432 129.801 138.847 129.327 139.676C128.854 140.502 128.617 141.67 128.617 143.182C128.617 144.189 128.723 145.045 128.935 145.75C129.147 146.455 129.452 146.991 129.85 147.358C130.251 147.725 130.734 147.909 131.299 147.909Z" fill="#0D1220"/>
<path d="M136.5 135V151" stroke="#0D1220" stroke-linecap="square"/>
<line x1="92.5" y1="160" x2="192.5" y2="160" stroke="#35CC8C" stroke-width="2"/>
<path d="M209.598 158.455C208.95 158.455 208.393 158.371 207.927 158.205C207.461 158.042 207.073 157.826 206.763 157.557C206.456 157.292 206.211 157.008 206.03 156.705L207.098 155.955C207.219 156.114 207.372 156.295 207.558 156.5C207.744 156.708 207.997 156.888 208.319 157.04C208.645 157.195 209.071 157.273 209.598 157.273C210.302 157.273 210.884 157.102 211.342 156.761C211.8 156.42 212.03 155.886 212.03 155.159V153.386H211.916C211.818 153.545 211.677 153.742 211.496 153.977C211.318 154.208 211.06 154.415 210.723 154.597C210.389 154.775 209.939 154.864 209.371 154.864C208.666 154.864 208.033 154.697 207.473 154.364C206.916 154.03 206.475 153.545 206.149 152.909C205.827 152.273 205.666 151.5 205.666 150.591C205.666 149.697 205.823 148.919 206.138 148.256C206.452 147.589 206.889 147.074 207.45 146.71C208.011 146.343 208.658 146.159 209.393 146.159C209.961 146.159 210.412 146.254 210.746 146.443C211.083 146.629 211.34 146.841 211.518 147.08C211.7 147.314 211.84 147.508 211.939 147.659H212.075V146.273H213.371V155.25C213.371 156 213.2 156.61 212.859 157.08C212.522 157.553 212.068 157.9 211.496 158.119C210.927 158.343 210.295 158.455 209.598 158.455ZM209.552 153.659C210.09 153.659 210.545 153.536 210.916 153.29C211.287 153.044 211.569 152.689 211.763 152.227C211.956 151.765 212.052 151.212 212.052 150.568C212.052 149.939 211.958 149.384 211.768 148.903C211.579 148.422 211.299 148.045 210.927 147.773C210.556 147.5 210.098 147.364 209.552 147.364C208.984 147.364 208.511 147.508 208.132 147.795C207.757 148.083 207.475 148.47 207.285 148.955C207.1 149.439 207.007 149.977 207.007 150.568C207.007 151.174 207.102 151.71 207.291 152.176C207.484 152.638 207.768 153.002 208.143 153.267C208.522 153.528 208.992 153.659 209.552 153.659ZM215.905 155V146.273H217.201V147.591H217.291C217.451 147.159 217.738 146.809 218.155 146.54C218.572 146.271 219.041 146.136 219.564 146.136C219.663 146.136 219.786 146.138 219.933 146.142C220.081 146.146 220.193 146.152 220.269 146.159V147.523C220.223 147.511 220.119 147.494 219.956 147.472C219.797 147.445 219.629 147.432 219.451 147.432C219.026 147.432 218.648 147.521 218.314 147.699C217.985 147.873 217.723 148.116 217.53 148.426C217.341 148.733 217.246 149.083 217.246 149.477V155H215.905ZM224.506 155.205C223.953 155.205 223.451 155.1 223.001 154.892C222.55 154.68 222.192 154.375 221.927 153.977C221.662 153.576 221.529 153.091 221.529 152.523C221.529 152.023 221.628 151.617 221.825 151.307C222.022 150.992 222.285 150.746 222.614 150.568C222.944 150.39 223.308 150.258 223.705 150.17C224.107 150.08 224.51 150.008 224.915 149.955C225.446 149.886 225.876 149.835 226.205 149.801C226.539 149.763 226.781 149.701 226.933 149.614C227.088 149.527 227.165 149.375 227.165 149.159V149.114C227.165 148.553 227.012 148.117 226.705 147.807C226.402 147.496 225.942 147.341 225.325 147.341C224.684 147.341 224.183 147.481 223.819 147.761C223.455 148.042 223.2 148.341 223.052 148.659L221.779 148.205C222.006 147.674 222.309 147.261 222.688 146.966C223.071 146.667 223.487 146.458 223.938 146.341C224.393 146.22 224.84 146.159 225.279 146.159C225.559 146.159 225.881 146.193 226.245 146.261C226.612 146.326 226.967 146.46 227.308 146.665C227.652 146.869 227.938 147.178 228.165 147.591C228.393 148.004 228.506 148.557 228.506 149.25V155H227.165V153.818H227.097C227.006 154.008 226.855 154.21 226.643 154.426C226.431 154.642 226.148 154.826 225.796 154.977C225.444 155.129 225.014 155.205 224.506 155.205ZM224.711 154C225.241 154 225.688 153.896 226.052 153.688C226.419 153.479 226.696 153.21 226.881 152.881C227.071 152.551 227.165 152.205 227.165 151.841V150.614C227.109 150.682 226.984 150.744 226.79 150.801C226.601 150.854 226.381 150.902 226.131 150.943C225.885 150.981 225.645 151.015 225.41 151.045C225.179 151.072 224.991 151.095 224.847 151.114C224.499 151.159 224.173 151.233 223.87 151.335C223.571 151.434 223.328 151.583 223.143 151.784C222.961 151.981 222.87 152.25 222.87 152.591C222.87 153.057 223.042 153.409 223.387 153.648C223.736 153.883 224.177 154 224.711 154ZM231.034 155V146.273H232.329V147.636H232.443C232.625 147.17 232.918 146.809 233.324 146.551C233.729 146.29 234.216 146.159 234.784 146.159C235.36 146.159 235.839 146.29 236.221 146.551C236.608 146.809 236.909 147.17 237.125 147.636H237.216C237.439 147.186 237.774 146.828 238.221 146.562C238.668 146.294 239.204 146.159 239.829 146.159C240.61 146.159 241.248 146.403 241.744 146.892C242.24 147.377 242.488 148.133 242.488 149.159V155H241.147V149.159C241.147 148.515 240.971 148.055 240.619 147.778C240.267 147.502 239.852 147.364 239.375 147.364C238.761 147.364 238.286 147.549 237.949 147.92C237.611 148.288 237.443 148.754 237.443 149.318V155H236.079V149.023C236.079 148.527 235.918 148.127 235.596 147.824C235.274 147.517 234.86 147.364 234.352 147.364C234.004 147.364 233.678 147.456 233.375 147.642C233.076 147.828 232.833 148.085 232.647 148.415C232.466 148.741 232.375 149.117 232.375 149.545V155H231.034ZM251.202 148.227L249.997 148.568C249.922 148.367 249.81 148.172 249.662 147.983C249.518 147.79 249.321 147.631 249.071 147.506C248.821 147.381 248.501 147.318 248.111 147.318C247.577 147.318 247.132 147.441 246.776 147.688C246.423 147.93 246.247 148.239 246.247 148.614C246.247 148.947 246.369 149.21 246.611 149.403C246.853 149.597 247.232 149.758 247.747 149.886L249.043 150.205C249.823 150.394 250.405 150.684 250.787 151.074C251.17 151.46 251.361 151.958 251.361 152.568C251.361 153.068 251.217 153.515 250.929 153.909C250.645 154.303 250.247 154.614 249.736 154.841C249.225 155.068 248.63 155.182 247.952 155.182C247.062 155.182 246.325 154.989 245.742 154.602C245.158 154.216 244.789 153.652 244.634 152.909L245.906 152.591C246.028 153.061 246.257 153.413 246.594 153.648C246.935 153.883 247.38 154 247.929 154C248.554 154 249.05 153.867 249.418 153.602C249.789 153.333 249.975 153.011 249.975 152.636C249.975 152.333 249.869 152.08 249.656 151.875C249.444 151.667 249.119 151.511 248.679 151.409L247.225 151.068C246.425 150.879 245.838 150.585 245.463 150.188C245.092 149.786 244.906 149.284 244.906 148.682C244.906 148.189 245.045 147.754 245.321 147.375C245.602 146.996 245.982 146.699 246.463 146.483C246.948 146.267 247.497 146.159 248.111 146.159C248.975 146.159 249.653 146.348 250.145 146.727C250.641 147.106 250.994 147.606 251.202 148.227Z" fill="#35CC8C"/>
<path d="M263.877 151.021L261.642 148.787C261.358 148.502 261.293 148.175 261.449 147.805C261.605 147.435 261.885 147.25 262.29 147.25H266.729C267.134 147.25 267.414 147.435 267.57 147.805C267.726 148.175 267.661 148.502 267.377 148.787L265.142 151.021C265.048 151.115 264.95 151.183 264.846 151.227C264.742 151.27 264.63 151.292 264.509 151.292C264.389 151.292 264.277 151.27 264.173 151.227C264.069 151.183 263.97 151.115 263.877 151.021Z" fill="#0D1220"/>
</svg>
