<svg width="328" height="207" viewBox="0 0 328 207" fill="none" xmlns="http://www.w3.org/2000/svg">
<g clip-path="url(#clip0_705_3717)">
<rect width="328" height="207" rx="10" fill="#F7F7F7"/>
<g filter="url(#filter0_d_705_3717)">
<path d="M52 130.944L55.0889 136.392C58.1778 141.841 64.3556 152.738 70.5333 157.245C76.7111 161.752 82.8889 159.869 89.0667 154.254C95.2444 148.639 101.422 139.292 107.6 133.56C113.778 127.828 119.956 125.71 126.133 125.135C132.311 124.56 138.489 125.527 144.667 123.514C150.844 121.501 157.022 116.508 163.2 116.588C169.378 116.668 175.556 121.819 181.733 124.92C187.911 128.021 194.089 129.07 200.267 126.033C206.444 122.997 212.622 115.875 218.8 110.703C224.978 105.531 231.156 102.309 237.333 97.5908C243.511 92.8721 249.689 86.6562 255.867 85.3562C262.044 84.0562 268.222 87.6721 274.4 91.5037C280.578 95.3354 286.756 99.3828 292.933 95.6681C299.111 91.9535 305.289 80.4767 308.378 74.7384L311.467 69" stroke="#35CC8C" stroke-width="2"/>
</g>
<path d="M12.1825 17.2727V26H11.1257V18.3807H11.0746L8.94389 19.7955V18.7216L11.1257 17.2727H12.1825ZM17.5391 26.1193C16.897 26.1193 16.3501 25.9446 15.8984 25.5952C15.4467 25.2429 15.1016 24.733 14.8629 24.0653C14.6243 23.3949 14.505 22.5852 14.505 21.6364C14.505 20.6932 14.6243 19.8878 14.8629 19.2202C15.1044 18.5497 15.451 18.0384 15.9027 17.6861C16.3572 17.331 16.9027 17.1534 17.5391 17.1534C18.1754 17.1534 18.7195 17.331 19.1712 17.6861C19.6257 18.0384 19.9723 18.5497 20.2109 19.2202C20.4524 19.8878 20.5732 20.6932 20.5732 21.6364C20.5732 22.5852 20.4538 23.3949 20.2152 24.0653C19.9766 24.733 19.6314 25.2429 19.1797 25.5952C18.728 25.9446 18.1811 26.1193 17.5391 26.1193ZM17.5391 25.1818C18.1754 25.1818 18.6697 24.875 19.022 24.2614C19.3743 23.6477 19.5504 22.7727 19.5504 21.6364C19.5504 20.8807 19.4695 20.2372 19.3075 19.706C19.1484 19.1747 18.9183 18.7699 18.6172 18.4915C18.3189 18.2131 17.9595 18.0739 17.5391 18.0739C16.9084 18.0739 16.4155 18.3849 16.0604 19.0071C15.7053 19.6264 15.5277 20.5028 15.5277 21.6364C15.5277 22.392 15.6072 23.0341 15.7663 23.5625C15.9254 24.0909 16.1541 24.4929 16.4524 24.7685C16.7536 25.044 17.1158 25.1818 17.5391 25.1818ZM25.0391 26.1193C24.397 26.1193 23.8501 25.9446 23.3984 25.5952C22.9467 25.2429 22.6016 24.733 22.3629 24.0653C22.1243 23.3949 22.005 22.5852 22.005 21.6364C22.005 20.6932 22.1243 19.8878 22.3629 19.2202C22.6044 18.5497 22.951 18.0384 23.4027 17.6861C23.8572 17.331 24.4027 17.1534 25.0391 17.1534C25.6754 17.1534 26.2195 17.331 26.6712 17.6861C27.1257 18.0384 27.4723 18.5497 27.7109 19.2202C27.9524 19.8878 28.0732 20.6932 28.0732 21.6364C28.0732 22.5852 27.9538 23.3949 27.7152 24.0653C27.4766 24.733 27.1314 25.2429 26.6797 25.5952C26.228 25.9446 25.6811 26.1193 25.0391 26.1193ZM25.0391 25.1818C25.6754 25.1818 26.1697 24.875 26.522 24.2614C26.8743 23.6477 27.0504 22.7727 27.0504 21.6364C27.0504 20.8807 26.9695 20.2372 26.8075 19.706C26.6484 19.1747 26.4183 18.7699 26.1172 18.4915C25.8189 18.2131 25.4595 18.0739 25.0391 18.0739C24.4084 18.0739 23.9155 18.3849 23.5604 19.0071C23.2053 19.6264 23.0277 20.5028 23.0277 21.6364C23.0277 22.392 23.1072 23.0341 23.2663 23.5625C23.4254 24.0909 23.6541 24.4929 23.9524 24.7685C24.2536 25.044 24.6158 25.1818 25.0391 25.1818Z" fill="#0D1220"/>
<path d="M14.7873 45.1534C15.1452 45.1562 15.5032 45.2244 15.8612 45.358C16.2191 45.4915 16.5458 45.7131 16.8413 46.0227C17.1367 46.3295 17.3739 46.7486 17.5529 47.2798C17.7319 47.8111 17.8214 48.4773 17.8214 49.2784C17.8214 50.054 17.7475 50.7429 17.5998 51.3452C17.4549 51.9446 17.2447 52.4503 16.9691 52.8622C16.6964 53.2741 16.364 53.5866 15.9719 53.7997C15.5827 54.0128 15.1424 54.1193 14.6509 54.1193C14.1623 54.1193 13.7262 54.0227 13.3427 53.8295C12.962 53.6335 12.6495 53.3622 12.4052 53.0156C12.1637 52.6662 12.0089 52.2614 11.9407 51.8011H12.9805C13.0742 52.2017 13.2603 52.5327 13.5387 52.794C13.82 53.0526 14.1907 53.1818 14.6509 53.1818C15.3242 53.1818 15.8555 52.8878 16.2447 52.2997C16.6367 51.7116 16.8327 50.8807 16.8327 49.8068H16.7646C16.6055 50.0455 16.4165 50.2514 16.1978 50.4247C15.979 50.598 15.7362 50.7315 15.4691 50.8253C15.2021 50.919 14.918 50.9659 14.6168 50.9659C14.1168 50.9659 13.658 50.8423 13.2404 50.5952C12.8256 50.3452 12.4933 50.0028 12.2433 49.5682C11.9961 49.1307 11.8725 48.6307 11.8725 48.0682C11.8725 47.5341 11.9918 47.0455 12.2305 46.6023C12.4719 46.1562 12.81 45.8011 13.2447 45.5369C13.6822 45.2727 14.1964 45.1449 14.7873 45.1534ZM14.7873 46.0909C14.4293 46.0909 14.1069 46.1804 13.82 46.3594C13.5359 46.5355 13.31 46.7741 13.1424 47.0753C12.9776 47.3736 12.8952 47.7045 12.8952 48.0682C12.8952 48.4318 12.9748 48.7628 13.1339 49.0611C13.2958 49.3565 13.516 49.5923 13.7944 49.7685C14.0756 49.9418 14.3952 50.0284 14.7532 50.0284C15.0231 50.0284 15.2745 49.9759 15.5075 49.8707C15.7404 49.7628 15.9435 49.6165 16.1168 49.4318C16.293 49.2443 16.4308 49.0327 16.5302 48.7969C16.6296 48.5582 16.6793 48.3097 16.6793 48.0511C16.6793 47.7102 16.5969 47.3906 16.4322 47.0923C16.2702 46.794 16.0458 46.5526 15.7589 46.3679C15.4748 46.1832 15.1509 46.0909 14.7873 46.0909ZM22.2244 54.1193C21.7244 54.1193 21.2741 54.0199 20.8736 53.821C20.473 53.6222 20.152 53.3494 19.9105 53.0028C19.669 52.6562 19.5369 52.2614 19.5142 51.8182H20.5369C20.5767 52.2131 20.7557 52.5398 21.0739 52.7983C21.3949 53.054 21.7784 53.1818 22.2244 53.1818C22.5824 53.1818 22.9006 53.098 23.179 52.9304C23.4602 52.7628 23.6804 52.5327 23.8395 52.2401C24.0014 51.9446 24.0824 51.6108 24.0824 51.2386C24.0824 50.858 23.9986 50.5185 23.831 50.2202C23.6662 49.919 23.4389 49.6818 23.1491 49.5085C22.8594 49.3352 22.5284 49.2472 22.1562 49.2443C21.8892 49.2415 21.6151 49.2827 21.3338 49.3679C21.0526 49.4503 20.821 49.5568 20.6392 49.6875L19.6506 49.5682L20.179 45.2727H24.7131V46.2102H21.0653L20.7585 48.7841H20.8097C20.9886 48.642 21.2131 48.5241 21.483 48.4304C21.7528 48.3366 22.0341 48.2898 22.3267 48.2898C22.8608 48.2898 23.3366 48.4176 23.7543 48.6733C24.1747 48.9261 24.5043 49.2727 24.7429 49.7131C24.9844 50.1534 25.1051 50.6562 25.1051 51.2216C25.1051 51.7784 24.9801 52.2756 24.7301 52.7131C24.483 53.1477 24.142 53.4915 23.7074 53.7443C23.2727 53.9943 22.7784 54.1193 22.2244 54.1193Z" fill="#0D1220"/>
<path d="M14.6877 73.1534C15.0456 73.1562 15.4036 73.2244 15.7615 73.358C16.1195 73.4915 16.4462 73.7131 16.7417 74.0227C17.0371 74.3295 17.2743 74.7486 17.4533 75.2798C17.6323 75.8111 17.7218 76.4773 17.7218 77.2784C17.7218 78.054 17.6479 78.7429 17.5002 79.3452C17.3553 79.9446 17.1451 80.4503 16.8695 80.8622C16.5968 81.2741 16.2644 81.5866 15.8723 81.7997C15.4831 82.0128 15.0428 82.1193 14.5513 82.1193C14.0627 82.1193 13.6266 82.0227 13.2431 81.8295C12.8624 81.6335 12.5499 81.3622 12.3056 81.0156C12.0641 80.6662 11.9093 80.2614 11.8411 79.8011H12.8809C12.9746 80.2017 13.1607 80.5327 13.4391 80.794C13.7203 81.0526 14.0911 81.1818 14.5513 81.1818C15.2246 81.1818 15.7559 80.8878 16.1451 80.2997C16.5371 79.7116 16.7331 78.8807 16.7331 77.8068H16.665C16.5059 78.0455 16.3169 78.2514 16.0982 78.4247C15.8794 78.598 15.6365 78.7315 15.3695 78.8253C15.1025 78.919 14.8184 78.9659 14.5172 78.9659C14.0172 78.9659 13.5584 78.8423 13.1408 78.5952C12.726 78.3452 12.3936 78.0028 12.1436 77.5682C11.8965 77.1307 11.7729 76.6307 11.7729 76.0682C11.7729 75.5341 11.8922 75.0455 12.1309 74.6023C12.3723 74.1562 12.7104 73.8011 13.1451 73.5369C13.5826 73.2727 14.0968 73.1449 14.6877 73.1534ZM14.6877 74.0909C14.3297 74.0909 14.0073 74.1804 13.7203 74.3594C13.4363 74.5355 13.2104 74.7741 13.0428 75.0753C12.878 75.3736 12.7956 75.7045 12.7956 76.0682C12.7956 76.4318 12.8752 76.7628 13.0343 77.0611C13.1962 77.3565 13.4164 77.5923 13.6948 77.7685C13.976 77.9418 14.2956 78.0284 14.6536 78.0284C14.9235 78.0284 15.1749 77.9759 15.4078 77.8707C15.6408 77.7628 15.8439 77.6165 16.0172 77.4318C16.1934 77.2443 16.3311 77.0327 16.4306 76.7969C16.53 76.5582 16.5797 76.3097 16.5797 76.0511C16.5797 75.7102 16.4973 75.3906 16.3326 75.0923C16.1706 74.794 15.9462 74.5526 15.6593 74.3679C15.3752 74.1832 15.0513 74.0909 14.6877 74.0909ZM22.2441 82.1193C21.6021 82.1193 21.0552 81.9446 20.6035 81.5952C20.1518 81.2429 19.8066 80.733 19.568 80.0653C19.3294 79.3949 19.21 78.5852 19.21 77.6364C19.21 76.6932 19.3294 75.8878 19.568 75.2202C19.8095 74.5497 20.1561 74.0384 20.6078 73.6861C21.0623 73.331 21.6078 73.1534 22.2441 73.1534C22.8805 73.1534 23.4245 73.331 23.8762 73.6861C24.3308 74.0384 24.6774 74.5497 24.916 75.2202C25.1575 75.8878 25.2782 76.6932 25.2782 77.6364C25.2782 78.5852 25.1589 79.3949 24.9203 80.0653C24.6816 80.733 24.3365 81.2429 23.8848 81.5952C23.4331 81.9446 22.8862 82.1193 22.2441 82.1193ZM22.2441 81.1818C22.8805 81.1818 23.3748 80.875 23.7271 80.2614C24.0794 79.6477 24.2555 78.7727 24.2555 77.6364C24.2555 76.8807 24.1745 76.2372 24.0126 75.706C23.8535 75.1747 23.6234 74.7699 23.3223 74.4915C23.024 74.2131 22.6646 74.0739 22.2441 74.0739C21.6135 74.0739 21.1206 74.3849 20.7654 75.0071C20.4103 75.6264 20.2328 76.5028 20.2328 77.6364C20.2328 78.392 20.3123 79.0341 20.4714 79.5625C20.6305 80.0909 20.8592 80.4929 21.1575 80.7685C21.4586 81.044 21.8208 81.1818 22.2441 81.1818Z" fill="#0D1220"/>
<path d="M14.8512 110.119C14.266 110.119 13.7489 110.016 13.3001 109.808C12.854 109.598 12.506 109.31 12.256 108.943C12.006 108.574 11.8825 108.153 11.8853 107.682C11.8825 107.312 11.9549 106.972 12.1026 106.659C12.2504 106.344 12.4521 106.081 12.7077 105.871C12.9663 105.658 13.2546 105.523 13.5728 105.466V105.415C13.1552 105.307 12.8228 105.072 12.5756 104.712C12.3285 104.348 12.2063 103.935 12.2092 103.472C12.2063 103.028 12.3185 102.632 12.5458 102.283C12.7731 101.933 13.0856 101.658 13.4833 101.456C13.8839 101.254 14.3398 101.153 14.8512 101.153C15.3569 101.153 15.8086 101.254 16.2063 101.456C16.604 101.658 16.9165 101.933 17.1438 102.283C17.3739 102.632 17.4904 103.028 17.4933 103.472C17.4904 103.935 17.364 104.348 17.114 104.712C16.8668 105.072 16.5387 105.307 16.1296 105.415V105.466C16.445 105.523 16.729 105.658 16.9819 105.871C17.2347 106.081 17.4364 106.344 17.587 106.659C17.7376 106.972 17.8143 107.312 17.8171 107.682C17.8143 108.153 17.6864 108.574 17.4336 108.943C17.1836 109.31 16.8356 109.598 16.3896 109.808C15.9464 110.016 15.4336 110.119 14.8512 110.119ZM14.8512 109.182C15.2461 109.182 15.587 109.118 15.8739 108.99C16.1609 108.862 16.3825 108.682 16.5387 108.449C16.695 108.216 16.7745 107.943 16.7773 107.631C16.7745 107.301 16.6893 107.01 16.5217 106.757C16.354 106.504 16.1254 106.305 15.8356 106.161C15.5487 106.016 15.2205 105.943 14.8512 105.943C14.479 105.943 14.1467 106.016 13.854 106.161C13.5643 106.305 13.3356 106.504 13.168 106.757C13.0032 107.01 12.9222 107.301 12.9251 107.631C12.9222 107.943 12.9975 108.216 13.1509 108.449C13.3072 108.682 13.5302 108.862 13.82 108.99C14.1097 109.118 14.4535 109.182 14.8512 109.182ZM14.8512 105.04C15.1637 105.04 15.4407 104.977 15.6822 104.852C15.9265 104.727 16.1183 104.553 16.2575 104.328C16.3967 104.104 16.4677 103.841 16.4705 103.54C16.4677 103.244 16.3981 102.987 16.2617 102.768C16.1254 102.547 15.9364 102.376 15.695 102.257C15.4535 102.135 15.1722 102.074 14.8512 102.074C14.5245 102.074 14.239 102.135 13.9947 102.257C13.7504 102.376 13.5614 102.547 13.4279 102.768C13.2944 102.987 13.229 103.244 13.2319 103.54C13.229 103.841 13.2958 104.104 13.4322 104.328C13.5714 104.553 13.7631 104.727 14.0075 104.852C14.2518 104.977 14.533 105.04 14.8512 105.04ZM22.1776 110.119C21.6776 110.119 21.2273 110.02 20.8267 109.821C20.4261 109.622 20.1051 109.349 19.8636 109.003C19.6222 108.656 19.4901 108.261 19.4673 107.818H20.4901C20.5298 108.213 20.7088 108.54 21.027 108.798C21.348 109.054 21.7315 109.182 22.1776 109.182C22.5355 109.182 22.8537 109.098 23.1321 108.93C23.4134 108.763 23.6335 108.533 23.7926 108.24C23.9545 107.945 24.0355 107.611 24.0355 107.239C24.0355 106.858 23.9517 106.518 23.7841 106.22C23.6193 105.919 23.392 105.682 23.1023 105.509C22.8125 105.335 22.4815 105.247 22.1094 105.244C21.8423 105.241 21.5682 105.283 21.2869 105.368C21.0057 105.45 20.7741 105.557 20.5923 105.688L19.6037 105.568L20.1321 101.273H24.6662V102.21H21.0185L20.7116 104.784H20.7628C20.9418 104.642 21.1662 104.524 21.4361 104.43C21.706 104.337 21.9872 104.29 22.2798 104.29C22.8139 104.29 23.2898 104.418 23.7074 104.673C24.1278 104.926 24.4574 105.273 24.696 105.713C24.9375 106.153 25.0582 106.656 25.0582 107.222C25.0582 107.778 24.9332 108.276 24.6832 108.713C24.4361 109.148 24.0952 109.491 23.6605 109.744C23.2259 109.994 22.7315 110.119 22.1776 110.119Z" fill="#0D1220"/>
<path d="M14.7516 138.119C14.1664 138.119 13.6493 138.016 13.2005 137.808C12.7544 137.598 12.4064 137.31 12.1564 136.943C11.9064 136.574 11.7828 136.153 11.7857 135.682C11.7828 135.312 11.8553 134.972 12.003 134.659C12.1507 134.344 12.3525 134.081 12.6081 133.871C12.8667 133.658 13.155 133.523 13.4732 133.466V133.415C13.0556 133.307 12.7232 133.072 12.476 132.712C12.2289 132.348 12.1067 131.935 12.1096 131.472C12.1067 131.028 12.2189 130.632 12.4462 130.283C12.6735 129.933 12.986 129.658 13.3837 129.456C13.7843 129.254 14.2402 129.153 14.7516 129.153C15.2573 129.153 15.709 129.254 16.1067 129.456C16.5044 129.658 16.8169 129.933 17.0442 130.283C17.2743 130.632 17.3908 131.028 17.3936 131.472C17.3908 131.935 17.2644 132.348 17.0144 132.712C16.7672 133.072 16.4391 133.307 16.03 133.415V133.466C16.3453 133.523 16.6294 133.658 16.8823 133.871C17.1351 134.081 17.3368 134.344 17.4874 134.659C17.638 134.972 17.7147 135.312 17.7175 135.682C17.7147 136.153 17.5868 136.574 17.334 136.943C17.084 137.31 16.736 137.598 16.29 137.808C15.8468 138.016 15.334 138.119 14.7516 138.119ZM14.7516 137.182C15.1465 137.182 15.4874 137.118 15.7743 136.99C16.0613 136.862 16.2828 136.682 16.4391 136.449C16.5953 136.216 16.6749 135.943 16.6777 135.631C16.6749 135.301 16.5897 135.01 16.4221 134.757C16.2544 134.504 16.0257 134.305 15.736 134.161C15.449 134.016 15.1209 133.943 14.7516 133.943C14.3794 133.943 14.0471 134.016 13.7544 134.161C13.4647 134.305 13.236 134.504 13.0684 134.757C12.9036 135.01 12.8226 135.301 12.8255 135.631C12.8226 135.943 12.8979 136.216 13.0513 136.449C13.2076 136.682 13.4306 136.862 13.7203 136.99C14.0101 137.118 14.3539 137.182 14.7516 137.182ZM14.7516 133.04C15.0641 133.04 15.3411 132.977 15.5826 132.852C15.8269 132.727 16.0186 132.553 16.1578 132.328C16.2971 132.104 16.3681 131.841 16.3709 131.54C16.3681 131.244 16.2985 130.987 16.1621 130.768C16.0257 130.547 15.8368 130.376 15.5953 130.257C15.3539 130.135 15.0726 130.074 14.7516 130.074C14.4249 130.074 14.1394 130.135 13.8951 130.257C13.6507 130.376 13.4618 130.547 13.3283 130.768C13.1948 130.987 13.1294 131.244 13.1323 131.54C13.1294 131.841 13.1962 132.104 13.3326 132.328C13.4718 132.553 13.6635 132.727 13.9078 132.852C14.1522 132.977 14.4334 133.04 14.7516 133.04ZM22.1973 138.119C21.5552 138.119 21.0083 137.945 20.5566 137.595C20.1049 137.243 19.7598 136.733 19.5211 136.065C19.2825 135.395 19.1632 134.585 19.1632 133.636C19.1632 132.693 19.2825 131.888 19.5211 131.22C19.7626 130.55 20.1092 130.038 20.5609 129.686C21.0154 129.331 21.5609 129.153 22.1973 129.153C22.8336 129.153 23.3777 129.331 23.8294 129.686C24.2839 130.038 24.6305 130.55 24.8691 131.22C25.1106 131.888 25.2314 132.693 25.2314 133.636C25.2314 134.585 25.112 135.395 24.8734 136.065C24.6348 136.733 24.2896 137.243 23.8379 137.595C23.3862 137.945 22.8393 138.119 22.1973 138.119ZM22.1973 137.182C22.8336 137.182 23.3279 136.875 23.6802 136.261C24.0325 135.648 24.2086 134.773 24.2086 133.636C24.2086 132.881 24.1277 132.237 23.9657 131.706C23.8066 131.175 23.5765 130.77 23.2754 130.491C22.9771 130.213 22.6177 130.074 22.1973 130.074C21.5666 130.074 21.0737 130.385 20.7186 131.007C20.3635 131.626 20.1859 132.503 20.1859 133.636C20.1859 134.392 20.2654 135.034 20.4245 135.562C20.5836 136.091 20.8123 136.493 21.1106 136.768C21.4118 137.044 21.774 137.182 22.1973 137.182Z" fill="#0D1220"/>
<path d="M12.6566 166L16.56 158.278V158.21H12.06V157.273H17.6509V158.261L13.7646 166H12.6566ZM21.8494 166.119C21.3494 166.119 20.8991 166.02 20.4986 165.821C20.098 165.622 19.777 165.349 19.5355 165.003C19.294 164.656 19.1619 164.261 19.1392 163.818H20.1619C20.2017 164.213 20.3807 164.54 20.6989 164.798C21.0199 165.054 21.4034 165.182 21.8494 165.182C22.2074 165.182 22.5256 165.098 22.804 164.93C23.0852 164.763 23.3054 164.533 23.4645 164.24C23.6264 163.945 23.7074 163.611 23.7074 163.239C23.7074 162.858 23.6236 162.518 23.456 162.22C23.2912 161.919 23.0639 161.682 22.7741 161.509C22.4844 161.335 22.1534 161.247 21.7812 161.244C21.5142 161.241 21.2401 161.283 20.9588 161.368C20.6776 161.45 20.446 161.557 20.2642 161.688L19.2756 161.568L19.804 157.273H24.3381V158.21H20.6903L20.3835 160.784H20.4347C20.6136 160.642 20.8381 160.524 21.108 160.43C21.3778 160.337 21.6591 160.29 21.9517 160.29C22.4858 160.29 22.9616 160.418 23.3793 160.673C23.7997 160.926 24.1293 161.273 24.3679 161.713C24.6094 162.153 24.7301 162.656 24.7301 163.222C24.7301 163.778 24.6051 164.276 24.3551 164.713C24.108 165.148 23.767 165.491 23.3324 165.744C22.8977 165.994 22.4034 166.119 21.8494 166.119Z" fill="#0D1220"/>
<path d="M44.255 192V191.233L47.1357 188.08C47.4737 187.71 47.7521 187.389 47.9709 187.116C48.1896 186.841 48.3516 186.582 48.4567 186.341C48.5646 186.097 48.6186 185.841 48.6186 185.574C48.6186 185.267 48.5447 185.001 48.397 184.777C48.2521 184.553 48.0533 184.379 47.8004 184.257C47.5476 184.135 47.2635 184.074 46.9482 184.074C46.6129 184.074 46.3203 184.143 46.0703 184.283C45.8232 184.419 45.6314 184.611 45.495 184.858C45.3615 185.105 45.2947 185.395 45.2947 185.727H44.2891C44.2891 185.216 44.407 184.767 44.6428 184.381C44.8786 183.994 45.1996 183.693 45.6058 183.477C46.0149 183.261 46.4737 183.153 46.9822 183.153C47.4936 183.153 47.9467 183.261 48.3416 183.477C48.7365 183.693 49.0462 183.984 49.2706 184.351C49.495 184.717 49.6072 185.125 49.6072 185.574C49.6072 185.895 49.549 186.209 49.4325 186.516C49.3189 186.82 49.12 187.159 48.8359 187.534C48.5547 187.906 48.1641 188.361 47.6641 188.898L45.7038 190.994V191.062H49.7607V192H44.255ZM54.3672 192.119C53.7251 192.119 53.1783 191.945 52.7266 191.595C52.2749 191.243 51.9297 190.733 51.6911 190.065C51.4524 189.395 51.3331 188.585 51.3331 187.636C51.3331 186.693 51.4524 185.888 51.6911 185.22C51.9325 184.55 52.2791 184.038 52.7308 183.686C53.1854 183.331 53.7308 183.153 54.3672 183.153C55.0036 183.153 55.5476 183.331 55.9993 183.686C56.4538 184.038 56.8004 184.55 57.0391 185.22C57.2805 185.888 57.4013 186.693 57.4013 187.636C57.4013 188.585 57.282 189.395 57.0433 190.065C56.8047 190.733 56.4595 191.243 56.0078 191.595C55.5561 191.945 55.0092 192.119 54.3672 192.119ZM54.3672 191.182C55.0036 191.182 55.4979 190.875 55.8501 190.261C56.2024 189.648 56.3786 188.773 56.3786 187.636C56.3786 186.881 56.2976 186.237 56.1357 185.706C55.9766 185.175 55.7464 184.77 55.4453 184.491C55.147 184.213 54.7876 184.074 54.3672 184.074C53.7365 184.074 53.2436 184.385 52.8885 185.007C52.5334 185.626 52.3558 186.503 52.3558 187.636C52.3558 188.392 52.4354 189.034 52.5945 189.562C52.7536 190.091 52.9822 190.493 53.2805 190.768C53.5817 191.044 53.9439 191.182 54.3672 191.182ZM59.0206 192V191.233L61.9013 188.08C62.2393 187.71 62.5178 187.389 62.7365 187.116C62.9553 186.841 63.1172 186.582 63.2223 186.341C63.3303 186.097 63.3842 185.841 63.3842 185.574C63.3842 185.267 63.3104 185.001 63.1626 184.777C63.0178 184.553 62.8189 184.379 62.5661 184.257C62.3132 184.135 62.0291 184.074 61.7138 184.074C61.3786 184.074 61.0859 184.143 60.8359 184.283C60.5888 184.419 60.397 184.611 60.2607 184.858C60.1271 185.105 60.0604 185.395 60.0604 185.727H59.0547C59.0547 185.216 59.1726 184.767 59.4084 184.381C59.6442 183.994 59.9652 183.693 60.3714 183.477C60.7805 183.261 61.2393 183.153 61.7479 183.153C62.2592 183.153 62.7124 183.261 63.1072 183.477C63.5021 183.693 63.8118 183.984 64.0362 184.351C64.2607 184.717 64.3729 185.125 64.3729 185.574C64.3729 185.895 64.3146 186.209 64.1982 186.516C64.0845 186.82 63.8857 187.159 63.6016 187.534C63.3203 187.906 62.9297 188.361 62.4297 188.898L60.4695 190.994V191.062H64.5263V192H59.0206ZM66.2862 192V191.233L69.1669 188.08C69.505 187.71 69.7834 187.389 70.0021 187.116C70.2209 186.841 70.3828 186.582 70.4879 186.341C70.5959 186.097 70.6499 185.841 70.6499 185.574C70.6499 185.267 70.576 185.001 70.4283 184.777C70.2834 184.553 70.0845 184.379 69.8317 184.257C69.5788 184.135 69.2947 184.074 68.9794 184.074C68.6442 184.074 68.3516 184.143 68.1016 184.283C67.8544 184.419 67.6626 184.611 67.5263 184.858C67.3928 185.105 67.326 185.395 67.326 185.727H66.3203C66.3203 185.216 66.4382 184.767 66.674 184.381C66.9098 183.994 67.2308 183.693 67.6371 183.477C68.0462 183.261 68.505 183.153 69.0135 183.153C69.5249 183.153 69.978 183.261 70.3729 183.477C70.7678 183.693 71.0774 183.984 71.3018 184.351C71.5263 184.717 71.6385 185.125 71.6385 185.574C71.6385 185.895 71.5803 186.209 71.4638 186.516C71.3501 186.82 71.1513 187.159 70.8672 187.534C70.5859 187.906 70.1953 188.361 69.6953 188.898L67.7351 190.994V191.062H71.7919V192H66.2862Z" fill="#0D1220"/>
<path d="M156.067 192V191.233L158.948 188.08C159.286 187.71 159.565 187.389 159.783 187.116C160.002 186.841 160.164 186.582 160.269 186.341C160.377 186.097 160.431 185.841 160.431 185.574C160.431 185.267 160.357 185.001 160.21 184.777C160.065 184.553 159.866 184.379 159.613 184.257C159.36 184.135 159.076 184.074 158.761 184.074C158.425 184.074 158.133 184.143 157.883 184.283C157.636 184.419 157.444 184.611 157.308 184.858C157.174 185.105 157.107 185.395 157.107 185.727H156.102C156.102 185.216 156.219 184.767 156.455 184.381C156.691 183.994 157.012 183.693 157.418 183.477C157.827 183.261 158.286 183.153 158.795 183.153C159.306 183.153 159.759 183.261 160.154 183.477C160.549 183.693 160.859 183.984 161.083 184.351C161.308 184.717 161.42 185.125 161.42 185.574C161.42 185.895 161.362 186.209 161.245 186.516C161.131 186.82 160.933 187.159 160.648 187.534C160.367 187.906 159.977 188.361 159.477 188.898L157.516 190.994V191.062H161.573V192H156.067ZM166.18 192.119C165.538 192.119 164.991 191.945 164.539 191.595C164.087 191.243 163.742 190.733 163.504 190.065C163.265 189.395 163.146 188.585 163.146 187.636C163.146 186.693 163.265 185.888 163.504 185.22C163.745 184.55 164.092 184.038 164.543 183.686C164.998 183.331 165.543 183.153 166.18 183.153C166.816 183.153 167.36 183.331 167.812 183.686C168.266 184.038 168.613 184.55 168.852 185.22C169.093 185.888 169.214 186.693 169.214 187.636C169.214 188.585 169.094 189.395 168.856 190.065C168.617 190.733 168.272 191.243 167.82 191.595C167.369 191.945 166.822 192.119 166.18 192.119ZM166.18 191.182C166.816 191.182 167.31 190.875 167.663 190.261C168.015 189.648 168.191 188.773 168.191 187.636C168.191 186.881 168.11 186.237 167.948 185.706C167.789 185.175 167.559 184.77 167.258 184.491C166.96 184.213 166.6 184.074 166.18 184.074C165.549 184.074 165.056 184.385 164.701 185.007C164.346 185.626 164.168 186.503 164.168 187.636C164.168 188.392 164.248 189.034 164.407 189.562C164.566 190.091 164.795 190.493 165.093 190.768C165.394 191.044 165.756 191.182 166.18 191.182ZM170.833 192V191.233L173.714 188.08C174.052 187.71 174.33 187.389 174.549 187.116C174.768 186.841 174.93 186.582 175.035 186.341C175.143 186.097 175.197 185.841 175.197 185.574C175.197 185.267 175.123 185.001 174.975 184.777C174.83 184.553 174.631 184.379 174.379 184.257C174.126 184.135 173.842 184.074 173.526 184.074C173.191 184.074 172.898 184.143 172.648 184.283C172.401 184.419 172.21 184.611 172.073 184.858C171.94 185.105 171.873 185.395 171.873 185.727H170.867C170.867 185.216 170.985 184.767 171.221 184.381C171.457 183.994 171.778 183.693 172.184 183.477C172.593 183.261 173.052 183.153 173.56 183.153C174.072 183.153 174.525 183.261 174.92 183.477C175.315 183.693 175.624 183.984 175.849 184.351C176.073 184.717 176.185 185.125 176.185 185.574C176.185 185.895 176.127 186.209 176.011 186.516C175.897 186.82 175.698 187.159 175.414 187.534C175.133 187.906 174.742 188.361 174.242 188.898L172.282 190.994V191.062H176.339V192H170.833ZM181.048 192.119C180.485 192.119 179.984 192.023 179.543 191.83C179.106 191.636 178.758 191.368 178.499 191.024C178.244 190.678 178.104 190.276 178.082 189.818H179.156C179.178 190.099 179.275 190.342 179.445 190.547C179.616 190.749 179.839 190.905 180.114 191.016C180.39 191.126 180.695 191.182 181.031 191.182C181.406 191.182 181.738 191.116 182.028 190.986C182.317 190.855 182.545 190.673 182.71 190.44C182.874 190.207 182.957 189.938 182.957 189.631C182.957 189.31 182.877 189.027 182.718 188.783C182.559 188.536 182.326 188.342 182.019 188.203C181.712 188.064 181.337 187.994 180.894 187.994H180.195V187.057H180.894C181.241 187.057 181.545 186.994 181.806 186.869C182.07 186.744 182.276 186.568 182.424 186.341C182.575 186.114 182.65 185.847 182.65 185.54C182.65 185.244 182.585 184.987 182.454 184.768C182.323 184.55 182.138 184.379 181.9 184.257C181.664 184.135 181.386 184.074 181.065 184.074C180.763 184.074 180.479 184.129 180.212 184.24C179.948 184.348 179.732 184.506 179.565 184.713C179.397 184.918 179.306 185.165 179.292 185.455H178.269C178.286 184.997 178.424 184.597 178.683 184.253C178.941 183.906 179.279 183.636 179.697 183.443C180.117 183.25 180.579 183.153 181.082 183.153C181.621 183.153 182.085 183.263 182.471 183.482C182.857 183.697 183.154 183.983 183.362 184.338C183.569 184.693 183.673 185.077 183.673 185.489C183.673 185.98 183.543 186.399 183.285 186.746C183.029 187.092 182.681 187.332 182.241 187.466V187.534C182.792 187.625 183.222 187.859 183.532 188.237C183.842 188.612 183.996 189.077 183.996 189.631C183.996 190.105 183.867 190.531 183.609 190.909C183.353 191.284 183.004 191.58 182.56 191.795C182.117 192.011 181.613 192.119 181.048 192.119Z" fill="#0D1220"/>
<path d="M268.132 192V191.233L271.013 188.08C271.351 187.71 271.629 187.389 271.848 187.116C272.067 186.841 272.229 186.582 272.334 186.341C272.442 186.097 272.496 185.841 272.496 185.574C272.496 185.267 272.422 185.001 272.274 184.777C272.129 184.553 271.93 184.379 271.677 184.257C271.425 184.135 271.14 184.074 270.825 184.074C270.49 184.074 270.197 184.143 269.947 184.283C269.7 184.419 269.508 184.611 269.372 184.858C269.238 185.105 269.172 185.395 269.172 185.727H268.166C268.166 185.216 268.284 184.767 268.52 184.381C268.756 183.994 269.077 183.693 269.483 183.477C269.892 183.261 270.351 183.153 270.859 183.153C271.371 183.153 271.824 183.261 272.219 183.477C272.613 183.693 272.923 183.984 273.148 184.351C273.372 184.717 273.484 185.125 273.484 185.574C273.484 185.895 273.426 186.209 273.309 186.516C273.196 186.82 272.997 187.159 272.713 187.534C272.432 187.906 272.041 188.361 271.541 188.898L269.581 190.994V191.062H273.638V192H268.132ZM278.244 192.119C277.602 192.119 277.055 191.945 276.604 191.595C276.152 191.243 275.807 190.733 275.568 190.065C275.329 189.395 275.21 188.585 275.21 187.636C275.21 186.693 275.329 185.888 275.568 185.22C275.809 184.55 276.156 184.038 276.608 183.686C277.062 183.331 277.608 183.153 278.244 183.153C278.881 183.153 279.425 183.331 279.876 183.686C280.331 184.038 280.677 184.55 280.916 185.22C281.157 185.888 281.278 186.693 281.278 187.636C281.278 188.585 281.159 189.395 280.92 190.065C280.682 190.733 280.336 191.243 279.885 191.595C279.433 191.945 278.886 192.119 278.244 192.119ZM278.244 191.182C278.881 191.182 279.375 190.875 279.727 190.261C280.079 189.648 280.256 188.773 280.256 187.636C280.256 186.881 280.175 186.237 280.013 185.706C279.854 185.175 279.623 184.77 279.322 184.491C279.024 184.213 278.665 184.074 278.244 184.074C277.613 184.074 277.121 184.385 276.765 185.007C276.41 185.626 276.233 186.503 276.233 187.636C276.233 188.392 276.312 189.034 276.471 189.562C276.631 190.091 276.859 190.493 277.157 190.768C277.459 191.044 277.821 191.182 278.244 191.182ZM282.898 192V191.233L285.778 188.08C286.116 187.71 286.395 187.389 286.613 187.116C286.832 186.841 286.994 186.582 287.099 186.341C287.207 186.097 287.261 185.841 287.261 185.574C287.261 185.267 287.187 185.001 287.04 184.777C286.895 184.553 286.696 184.379 286.443 184.257C286.19 184.135 285.906 184.074 285.591 184.074C285.256 184.074 284.963 184.143 284.713 184.283C284.466 184.419 284.274 184.611 284.138 184.858C284.004 185.105 283.937 185.395 283.937 185.727H282.932C282.932 185.216 283.05 184.767 283.285 184.381C283.521 183.994 283.842 183.693 284.248 183.477C284.657 183.261 285.116 183.153 285.625 183.153C286.136 183.153 286.589 183.261 286.984 183.477C287.379 183.693 287.689 183.984 287.913 184.351C288.138 184.717 288.25 185.125 288.25 185.574C288.25 185.895 288.192 186.209 288.075 186.516C287.961 186.82 287.763 187.159 287.479 187.534C287.197 187.906 286.807 188.361 286.307 188.898L284.346 190.994V191.062H288.403V192H282.898ZM289.771 190.21V189.341L293.606 183.273H294.237V184.619H293.811L290.913 189.205V189.273H296.078V190.21H289.771ZM293.879 192V189.946V189.541V183.273H294.885V192H293.879Z" fill="#0D1220"/>
<circle cx="260" cy="85" r="6" fill="#35CC8C"/>
</g>
<defs>
<filter id="filter0_d_705_3717" x="21.1301" y="48.5259" width="321.217" height="152.235" filterUnits="userSpaceOnUse" color-interpolation-filters="sRGB">
<feFlood flood-opacity="0" result="BackgroundImageFix"/>
<feColorMatrix in="SourceAlpha" type="matrix" values="0 0 0 0 0 0 0 0 0 0 0 0 0 0 0 0 0 0 127 0" result="hardAlpha"/>
<feOffset dy="10"/>
<feGaussianBlur stdDeviation="15"/>
<feComposite in2="hardAlpha" operator="out"/>
<feColorMatrix type="matrix" values="0 0 0 0 0.207843 0 0 0 0 0.8 0 0 0 0 0.54902 0 0 0 0.5 0"/>
<feBlend mode="normal" in2="BackgroundImageFix" result="effect1_dropShadow_705_3717"/>
<feBlend mode="normal" in="SourceGraphic" in2="effect1_dropShadow_705_3717" result="shape"/>
</filter>
<clipPath id="clip0_705_3717">
<rect width="328" height="207" rx="10" fill="white"/>
</clipPath>
</defs>
</svg>
