<svg width="380" height="357" viewBox="0 0 380 357" fill="none" xmlns="http://www.w3.org/2000/svg">
<g filter="url(#filter0_d_994_7014)">
<path d="M10 38C10 24.7452 20.7452 14 34 14H346C359.255 14 370 24.7452 370 38V351H10V38Z" fill="#F7F7F7"/>
<path d="M115.159 86H110.921V72.9091H115.293C116.575 72.9091 117.677 73.1712 118.597 73.6953C119.518 74.2152 120.223 74.9631 120.713 75.9389C121.208 76.9105 121.455 78.076 121.455 79.4354C121.455 80.799 121.205 81.9709 120.707 82.951C120.213 83.9311 119.497 84.6854 118.559 85.2138C117.622 85.7379 116.488 86 115.159 86ZM112.896 84.2741H115.05C116.047 84.2741 116.876 84.0866 117.536 83.7116C118.197 83.3324 118.691 82.7848 119.019 82.0689C119.347 81.3487 119.512 80.4709 119.512 79.4354C119.512 78.4084 119.347 77.5369 119.019 76.821C118.695 76.1051 118.212 75.5618 117.568 75.1911C116.925 74.8203 116.126 74.6349 115.171 74.6349H112.896V84.2741ZM126.615 86.2173C125.993 86.2173 125.43 86.1023 124.927 85.8722C124.424 85.6378 124.026 85.299 123.732 84.8558C123.442 84.4126 123.297 83.8693 123.297 83.2259C123.297 82.6719 123.404 82.2159 123.617 81.858C123.83 81.5 124.118 81.2166 124.48 81.0078C124.842 80.799 125.247 80.6413 125.694 80.5348C126.142 80.4283 126.598 80.3473 127.062 80.2919C127.65 80.2237 128.127 80.1683 128.494 80.1257C128.86 80.0788 129.127 80.0043 129.293 79.902C129.459 79.7997 129.542 79.6335 129.542 79.4034V79.3587C129.542 78.8004 129.385 78.3679 129.069 78.0611C128.758 77.7543 128.294 77.6009 127.676 77.6009C127.032 77.6009 126.525 77.7436 126.154 78.0291C125.788 78.3104 125.534 78.6236 125.394 78.9688L123.598 78.5597C123.811 77.9631 124.122 77.4815 124.531 77.1151C124.944 76.7443 125.419 76.4759 125.956 76.3097C126.493 76.1392 127.058 76.054 127.65 76.054C128.042 76.054 128.458 76.1009 128.897 76.1946C129.34 76.2841 129.753 76.4503 130.137 76.6932C130.525 76.9361 130.842 77.2834 131.089 77.7351C131.336 78.1825 131.46 78.7642 131.46 79.4801V86H129.593V84.6577H129.517C129.393 84.9048 129.208 85.1477 128.961 85.3864C128.713 85.625 128.396 85.8232 128.008 85.9808C127.62 86.1385 127.156 86.2173 126.615 86.2173ZM127.03 84.6832C127.559 84.6832 128.01 84.5788 128.385 84.37C128.765 84.1612 129.052 83.8885 129.248 83.5518C129.449 83.2109 129.549 82.8466 129.549 82.4588V81.1932C129.48 81.2614 129.348 81.3253 129.152 81.3849C128.961 81.4403 128.741 81.4893 128.494 81.532C128.247 81.5703 128.006 81.6065 127.772 81.6406C127.537 81.6705 127.341 81.696 127.184 81.7173C126.813 81.7642 126.474 81.843 126.167 81.9538C125.865 82.0646 125.622 82.2244 125.439 82.4332C125.26 82.6378 125.17 82.9105 125.17 83.2514C125.17 83.7244 125.345 84.0824 125.694 84.3253C126.044 84.5639 126.489 84.6832 127.03 84.6832ZM134.006 86V76.1818H135.917V86H134.006ZM134.971 74.6669C134.638 74.6669 134.353 74.5561 134.114 74.3345C133.88 74.1087 133.763 73.8402 133.763 73.5291C133.763 73.2138 133.88 72.9453 134.114 72.7237C134.353 72.4979 134.638 72.3849 134.971 72.3849C135.303 72.3849 135.586 72.4979 135.821 72.7237C136.059 72.9453 136.179 73.2138 136.179 73.5291C136.179 73.8402 136.059 74.1087 135.821 74.3345C135.586 74.5561 135.303 74.6669 134.971 74.6669ZM140.399 72.9091V86H138.488V72.9091H140.399ZM144.178 89.6818C143.893 89.6818 143.633 89.6584 143.399 89.6115C143.164 89.5689 142.99 89.522 142.874 89.4709L143.335 87.9048C143.684 87.9986 143.995 88.0391 144.268 88.0263C144.541 88.0135 144.781 87.9112 144.99 87.7195C145.203 87.5277 145.391 87.2145 145.553 86.7798L145.789 86.1278L142.197 76.1818H144.242L146.729 83.8011H146.831L149.318 76.1818H151.369L147.323 87.3104C147.136 87.8217 146.897 88.2543 146.607 88.608C146.318 88.9659 145.972 89.2344 145.572 89.4134C145.171 89.5923 144.707 89.6818 144.178 89.6818ZM162.065 86.1982C161.115 86.1982 160.297 85.983 159.61 85.5526C158.929 85.1179 158.404 84.5192 158.038 83.7564C157.672 82.9936 157.488 82.12 157.488 81.1357C157.488 80.1385 157.676 79.2585 158.051 78.4957C158.426 77.7287 158.954 77.13 159.636 76.6996C160.318 76.2692 161.121 76.054 162.046 76.054C162.792 76.054 163.456 76.1925 164.04 76.4695C164.624 76.7422 165.095 77.1257 165.453 77.62C165.815 78.1143 166.03 78.6918 166.098 79.3523H164.238C164.136 78.892 163.902 78.4957 163.535 78.1634C163.173 77.831 162.687 77.6648 162.078 77.6648C161.545 77.6648 161.078 77.8054 160.678 78.0866C160.282 78.3636 159.973 78.7599 159.751 79.2756C159.529 79.7869 159.419 80.392 159.419 81.0909C159.419 81.8068 159.527 82.4247 159.745 82.9446C159.962 83.4645 160.269 83.8672 160.665 84.1527C161.066 84.4382 161.537 84.581 162.078 84.581C162.44 84.581 162.768 84.5149 163.062 84.3828C163.36 84.2464 163.61 84.0526 163.81 83.8011C164.015 83.5497 164.157 83.2472 164.238 82.8935H166.098C166.03 83.5284 165.824 84.0952 165.478 84.5938C165.133 85.0923 164.671 85.4844 164.091 85.7699C163.516 86.0554 162.841 86.1982 162.065 86.1982ZM170.999 86.2173C170.377 86.2173 169.815 86.1023 169.312 85.8722C168.809 85.6378 168.411 85.299 168.117 84.8558C167.827 84.4126 167.682 83.8693 167.682 83.2259C167.682 82.6719 167.789 82.2159 168.002 81.858C168.215 81.5 168.502 81.2166 168.865 81.0078C169.227 80.799 169.632 80.6413 170.079 80.5348C170.526 80.4283 170.982 80.3473 171.447 80.2919C172.035 80.2237 172.512 80.1683 172.879 80.1257C173.245 80.0788 173.512 80.0043 173.678 79.902C173.844 79.7997 173.927 79.6335 173.927 79.4034V79.3587C173.927 78.8004 173.769 78.3679 173.454 78.0611C173.143 77.7543 172.678 77.6009 172.061 77.6009C171.417 77.6009 170.91 77.7436 170.539 78.0291C170.173 78.3104 169.919 78.6236 169.779 78.9688L167.982 78.5597C168.195 77.9631 168.507 77.4815 168.916 77.1151C169.329 76.7443 169.804 76.4759 170.341 76.3097C170.878 76.1392 171.443 76.054 172.035 76.054C172.427 76.054 172.843 76.1009 173.281 76.1946C173.725 76.2841 174.138 76.4503 174.521 76.6932C174.909 76.9361 175.227 77.2834 175.474 77.7351C175.721 78.1825 175.845 78.7642 175.845 79.4801V86H173.978V84.6577H173.901C173.778 84.9048 173.593 85.1477 173.345 85.3864C173.098 85.625 172.781 85.8232 172.393 85.9808C172.005 86.1385 171.541 86.2173 170.999 86.2173ZM171.415 84.6832C171.943 84.6832 172.395 84.5788 172.77 84.37C173.149 84.1612 173.437 83.8885 173.633 83.5518C173.833 83.2109 173.933 82.8466 173.933 82.4588V81.1932C173.865 81.2614 173.733 81.3253 173.537 81.3849C173.345 81.4403 173.126 81.4893 172.879 81.532C172.632 81.5703 172.391 81.6065 172.156 81.6406C171.922 81.6705 171.726 81.696 171.568 81.7173C171.198 81.7642 170.859 81.843 170.552 81.9538C170.249 82.0646 170.007 82.2244 169.823 82.4332C169.644 82.6378 169.555 82.9105 169.555 83.2514C169.555 83.7244 169.73 84.0824 170.079 84.3253C170.428 84.5639 170.874 84.6832 171.415 84.6832ZM180.301 72.9091V86H178.39V72.9091H180.301ZM187.008 86.1982C186.088 86.1982 185.285 85.9872 184.599 85.5653C183.912 85.1435 183.38 84.5533 183.001 83.7947C182.621 83.0362 182.432 82.1499 182.432 81.1357C182.432 80.1172 182.621 79.2266 183.001 78.4638C183.38 77.701 183.912 77.1087 184.599 76.6868C185.285 76.2649 186.088 76.054 187.008 76.054C187.929 76.054 188.732 76.2649 189.418 76.6868C190.104 77.1087 190.637 77.701 191.016 78.4638C191.395 79.2266 191.585 80.1172 191.585 81.1357C191.585 82.1499 191.395 83.0362 191.016 83.7947C190.637 84.5533 190.104 85.1435 189.418 85.5653C188.732 85.9872 187.929 86.1982 187.008 86.1982ZM187.015 84.5938C187.611 84.5938 188.106 84.4361 188.498 84.1207C188.89 83.8054 189.18 83.3857 189.367 82.8615C189.559 82.3374 189.655 81.7599 189.655 81.1293C189.655 80.5028 189.559 79.9276 189.367 79.4034C189.18 78.875 188.89 78.451 188.498 78.1314C188.106 77.8118 187.611 77.652 187.015 77.652C186.414 77.652 185.915 77.8118 185.519 78.1314C185.127 78.451 184.835 78.875 184.643 79.4034C184.456 79.9276 184.362 80.5028 184.362 81.1293C184.362 81.7599 184.456 82.3374 184.643 82.8615C184.835 83.3857 185.127 83.8054 185.519 84.1207C185.915 84.4361 186.414 84.5938 187.015 84.5938ZM193.718 86V76.1818H195.566V77.7415H195.668C195.847 77.2131 196.162 76.7976 196.614 76.495C197.07 76.1882 197.586 76.0348 198.161 76.0348C198.28 76.0348 198.421 76.0391 198.583 76.0476C198.749 76.0561 198.879 76.0668 198.973 76.0795V77.9077C198.896 77.8864 198.76 77.8629 198.564 77.8374C198.368 77.8075 198.172 77.7926 197.975 77.7926C197.524 77.7926 197.121 77.8885 196.767 78.0803C196.418 78.2678 196.141 78.5298 195.936 78.8665C195.732 79.1989 195.63 79.5781 195.63 80.0043V86H193.718ZM200.627 86V76.1818H202.538V86H200.627ZM201.592 74.6669C201.259 74.6669 200.974 74.5561 200.735 74.3345C200.501 74.1087 200.384 73.8402 200.384 73.5291C200.384 73.2138 200.501 72.9453 200.735 72.7237C200.974 72.4979 201.259 72.3849 201.592 72.3849C201.924 72.3849 202.208 72.4979 202.442 72.7237C202.681 72.9453 202.8 73.2138 202.8 73.5291C202.8 73.8402 202.681 74.1087 202.442 74.3345C202.208 74.5561 201.924 74.6669 201.592 74.6669ZM209.341 86.1982C208.373 86.1982 207.54 85.9915 206.841 85.5781C206.147 85.1605 205.61 84.5746 205.23 83.8203C204.855 83.0618 204.668 82.1733 204.668 81.1548C204.668 80.1491 204.855 79.2628 205.23 78.4957C205.61 77.7287 206.138 77.13 206.816 76.6996C207.498 76.2692 208.294 76.054 209.206 76.054C209.76 76.054 210.297 76.1456 210.817 76.3288C211.337 76.5121 211.804 76.7997 212.217 77.1918C212.63 77.5838 212.956 78.093 213.195 78.7195C213.434 79.3416 213.553 80.098 213.553 80.9886V81.6662H205.748V80.2344H211.68C211.68 79.7315 211.578 79.2862 211.373 78.8984C211.169 78.5064 210.881 78.1974 210.51 77.9716C210.144 77.7457 209.713 77.6328 209.219 77.6328C208.682 77.6328 208.213 77.7649 207.813 78.0291C207.417 78.2891 207.11 78.63 206.892 79.0518C206.679 79.4695 206.573 79.9233 206.573 80.4134V81.532C206.573 82.1882 206.688 82.7464 206.918 83.2067C207.152 83.6669 207.478 84.0185 207.896 84.2614C208.314 84.5 208.801 84.6193 209.36 84.6193C209.722 84.6193 210.052 84.5682 210.35 84.4659C210.649 84.3594 210.907 84.2017 211.124 83.9929C211.341 83.7841 211.507 83.5263 211.623 83.2195L213.431 83.5455C213.287 84.0781 213.027 84.5447 212.652 84.9453C212.281 85.3416 211.814 85.6506 211.252 85.8722C210.694 86.0895 210.056 86.1982 209.341 86.1982ZM220.437 86V76.1818H222.348V86H220.437ZM221.402 74.6669C221.07 74.6669 220.784 74.5561 220.546 74.3345C220.311 74.1087 220.194 73.8402 220.194 73.5291C220.194 73.2138 220.311 72.9453 220.546 72.7237C220.784 72.4979 221.07 72.3849 221.402 72.3849C221.735 72.3849 222.018 72.4979 222.252 72.7237C222.491 72.9453 222.61 73.2138 222.61 73.5291C222.61 73.8402 222.491 74.1087 222.252 74.3345C222.018 74.5561 221.735 74.6669 221.402 74.6669ZM226.831 80.1705V86H224.92V76.1818H226.754V77.7798H226.876C227.101 77.2599 227.455 76.8423 227.937 76.527C228.422 76.2116 229.034 76.054 229.771 76.054C230.44 76.054 231.026 76.1946 231.529 76.4759C232.032 76.7528 232.422 77.1662 232.699 77.7159C232.976 78.2656 233.114 78.9453 233.114 79.755V86H231.203V79.9851C231.203 79.2734 231.018 78.7173 230.647 78.3168C230.276 77.9119 229.767 77.7095 229.119 77.7095C228.676 77.7095 228.282 77.8054 227.937 77.9972C227.596 78.1889 227.325 78.4702 227.125 78.8409C226.929 79.2074 226.831 79.6506 226.831 80.1705ZM240.26 76.1818V77.7159H234.898V76.1818H240.26ZM236.336 73.8295H238.247V83.1172C238.247 83.4879 238.302 83.767 238.413 83.9545C238.524 84.1378 238.667 84.2635 238.841 84.3317C239.02 84.3956 239.214 84.4276 239.423 84.4276C239.577 84.4276 239.711 84.4169 239.826 84.3956C239.941 84.3743 240.03 84.3572 240.094 84.3445L240.439 85.9233C240.329 85.9659 240.171 86.0085 239.966 86.0511C239.762 86.098 239.506 86.1236 239.199 86.1278C238.697 86.1364 238.228 86.0469 237.793 85.8594C237.358 85.6719 237.007 85.3821 236.738 84.9901C236.47 84.598 236.336 84.1058 236.336 83.5135V73.8295ZM245.232 86.2173C244.61 86.2173 244.047 86.1023 243.544 85.8722C243.042 85.6378 242.643 85.299 242.349 84.8558C242.059 84.4126 241.914 83.8693 241.914 83.2259C241.914 82.6719 242.021 82.2159 242.234 81.858C242.447 81.5 242.735 81.2166 243.097 81.0078C243.459 80.799 243.864 80.6413 244.311 80.5348C244.759 80.4283 245.215 80.3473 245.679 80.2919C246.267 80.2237 246.745 80.1683 247.111 80.1257C247.478 80.0788 247.744 80.0043 247.91 79.902C248.076 79.7997 248.159 79.6335 248.159 79.4034V79.3587C248.159 78.8004 248.002 78.3679 247.686 78.0611C247.375 77.7543 246.911 77.6009 246.293 77.6009C245.65 77.6009 245.142 77.7436 244.772 78.0291C244.405 78.3104 244.152 78.6236 244.011 78.9688L242.215 78.5597C242.428 77.9631 242.739 77.4815 243.148 77.1151C243.561 76.7443 244.037 76.4759 244.574 76.3097C245.11 76.1392 245.675 76.054 246.267 76.054C246.659 76.054 247.075 76.1009 247.514 76.1946C247.957 76.2841 248.37 76.4503 248.754 76.6932C249.142 76.9361 249.459 77.2834 249.706 77.7351C249.953 78.1825 250.077 78.7642 250.077 79.4801V86H248.211V84.6577H248.134C248.01 84.9048 247.825 85.1477 247.578 85.3864C247.331 85.625 247.013 85.8232 246.625 85.9808C246.238 86.1385 245.773 86.2173 245.232 86.2173ZM245.647 84.6832C246.176 84.6832 246.627 84.5788 247.002 84.37C247.382 84.1612 247.669 83.8885 247.865 83.5518C248.066 83.2109 248.166 82.8466 248.166 82.4588V81.1932C248.098 81.2614 247.966 81.3253 247.77 81.3849C247.578 81.4403 247.358 81.4893 247.111 81.532C246.864 81.5703 246.623 81.6065 246.389 81.6406C246.154 81.6705 245.958 81.696 245.801 81.7173C245.43 81.7642 245.091 81.843 244.784 81.9538C244.482 82.0646 244.239 82.2244 244.056 82.4332C243.877 82.6378 243.787 82.9105 243.787 83.2514C243.787 83.7244 243.962 84.0824 244.311 84.3253C244.661 84.5639 245.106 84.6832 245.647 84.6832ZM254.381 82.6697L254.368 80.3366H254.7L258.612 76.1818H260.9L256.439 80.9119H256.138L254.381 82.6697ZM252.623 86V72.9091H254.534V86H252.623ZM258.823 86L255.307 81.3338L256.624 79.9979L261.169 86H258.823ZM266.469 86.1982C265.502 86.1982 264.669 85.9915 263.97 85.5781C263.276 85.1605 262.739 84.5746 262.359 83.8203C261.984 83.0618 261.797 82.1733 261.797 81.1548C261.797 80.1491 261.984 79.2628 262.359 78.4957C262.739 77.7287 263.267 77.13 263.945 76.6996C264.626 76.2692 265.423 76.054 266.335 76.054C266.889 76.054 267.426 76.1456 267.946 76.3288C268.466 76.5121 268.933 76.7997 269.346 77.1918C269.759 77.5838 270.085 78.093 270.324 78.7195C270.563 79.3416 270.682 80.098 270.682 80.9886V81.6662H262.877V80.2344H268.809C268.809 79.7315 268.707 79.2862 268.502 78.8984C268.298 78.5064 268.01 78.1974 267.639 77.9716C267.273 77.7457 266.842 77.6328 266.348 77.6328C265.811 77.6328 265.342 77.7649 264.942 78.0291C264.545 78.2891 264.239 78.63 264.021 79.0518C263.808 79.4695 263.702 79.9233 263.702 80.4134V81.532C263.702 82.1882 263.817 82.7464 264.047 83.2067C264.281 83.6669 264.607 84.0185 265.025 84.2614C265.442 84.5 265.93 84.6193 266.489 84.6193C266.851 84.6193 267.181 84.5682 267.479 84.4659C267.778 84.3594 268.036 84.2017 268.253 83.9929C268.47 83.7841 268.636 83.5263 268.751 83.2195L270.56 83.5455C270.415 84.0781 270.156 84.5447 269.781 84.9453C269.41 85.3416 268.943 85.6506 268.381 85.8722C267.822 86.0895 267.185 86.1982 266.469 86.1982Z" fill="#0D1220"/>
<path d="M106 122C106 119.791 107.791 118 110 118H270C272.209 118 274 119.791 274 122V170H106V122Z" fill="white"/>
<path d="M130.08 132H129.023C128.96 131.696 128.851 131.429 128.695 131.199C128.541 130.969 128.354 130.776 128.132 130.619C127.913 130.46 127.67 130.341 127.403 130.261C127.136 130.182 126.858 130.142 126.568 130.142C126.04 130.142 125.561 130.276 125.132 130.543C124.706 130.81 124.366 131.203 124.114 131.723C123.864 132.243 123.739 132.881 123.739 133.636C123.739 134.392 123.864 135.03 124.114 135.55C124.366 136.07 124.706 136.463 125.132 136.73C125.561 136.997 126.04 137.131 126.568 137.131C126.858 137.131 127.136 137.091 127.403 137.011C127.67 136.932 127.913 136.814 128.132 136.658C128.354 136.499 128.541 136.304 128.695 136.074C128.851 135.841 128.96 135.574 129.023 135.273H130.08C130 135.719 129.855 136.118 129.645 136.47C129.435 136.822 129.173 137.122 128.861 137.369C128.548 137.614 128.197 137.8 127.808 137.928C127.422 138.055 127.009 138.119 126.568 138.119C125.824 138.119 125.162 137.938 124.582 137.574C124.003 137.21 123.547 136.693 123.214 136.023C122.882 135.352 122.716 134.557 122.716 133.636C122.716 132.716 122.882 131.92 123.214 131.25C123.547 130.58 124.003 130.062 124.582 129.699C125.162 129.335 125.824 129.153 126.568 129.153C127.009 129.153 127.422 129.217 127.808 129.345C128.197 129.473 128.548 129.661 128.861 129.908C129.173 130.152 129.435 130.45 129.645 130.803C129.855 131.152 130 131.551 130.08 132ZM133.577 138.153C133.162 138.153 132.786 138.075 132.448 137.919C132.11 137.76 131.841 137.531 131.642 137.233C131.444 136.932 131.344 136.568 131.344 136.142C131.344 135.767 131.418 135.463 131.566 135.23C131.713 134.994 131.911 134.81 132.158 134.676C132.405 134.543 132.678 134.443 132.976 134.378C133.277 134.31 133.58 134.256 133.884 134.216C134.282 134.165 134.604 134.126 134.851 134.101C135.101 134.072 135.283 134.026 135.397 133.96C135.513 133.895 135.571 133.781 135.571 133.619V133.585C135.571 133.165 135.456 132.838 135.226 132.605C134.999 132.372 134.654 132.256 134.191 132.256C133.711 132.256 133.334 132.361 133.061 132.571C132.789 132.781 132.597 133.006 132.486 133.244L131.532 132.903C131.702 132.506 131.929 132.196 132.213 131.974C132.5 131.75 132.813 131.594 133.151 131.506C133.492 131.415 133.827 131.369 134.157 131.369C134.367 131.369 134.608 131.395 134.881 131.446C135.157 131.494 135.422 131.595 135.678 131.749C135.936 131.902 136.151 132.134 136.321 132.443C136.492 132.753 136.577 133.168 136.577 133.688V138H135.571V137.114H135.52C135.452 137.256 135.338 137.408 135.179 137.57C135.02 137.732 134.809 137.869 134.544 137.983C134.28 138.097 133.958 138.153 133.577 138.153ZM133.73 137.25C134.128 137.25 134.463 137.172 134.736 137.016C135.012 136.859 135.219 136.658 135.358 136.411C135.5 136.163 135.571 135.903 135.571 135.631V134.71C135.529 134.761 135.435 134.808 135.29 134.851C135.148 134.891 134.983 134.926 134.796 134.957C134.611 134.986 134.431 135.011 134.255 135.034C134.081 135.054 133.941 135.071 133.833 135.085C133.571 135.119 133.327 135.175 133.1 135.251C132.875 135.325 132.694 135.437 132.554 135.588C132.418 135.736 132.35 135.937 132.35 136.193C132.35 136.543 132.479 136.807 132.738 136.986C132.999 137.162 133.33 137.25 133.73 137.25ZM139.418 129.273V138H138.413V129.273H139.418ZM143.919 138.136C143.328 138.136 142.81 137.996 142.364 137.714C141.921 137.433 141.574 137.04 141.324 136.534C141.077 136.028 140.953 135.437 140.953 134.761C140.953 134.08 141.077 133.484 141.324 132.976C141.574 132.467 141.921 132.072 142.364 131.791C142.81 131.51 143.328 131.369 143.919 131.369C144.51 131.369 145.027 131.51 145.471 131.791C145.917 132.072 146.263 132.467 146.51 132.976C146.76 133.484 146.885 134.08 146.885 134.761C146.885 135.437 146.76 136.028 146.51 136.534C146.263 137.04 145.917 137.433 145.471 137.714C145.027 137.996 144.51 138.136 143.919 138.136ZM143.919 137.233C144.368 137.233 144.738 137.118 145.027 136.888C145.317 136.658 145.532 136.355 145.671 135.98C145.81 135.605 145.88 135.199 145.88 134.761C145.88 134.324 145.81 133.916 145.671 133.538C145.532 133.161 145.317 132.855 145.027 132.622C144.738 132.389 144.368 132.273 143.919 132.273C143.471 132.273 143.101 132.389 142.811 132.622C142.522 132.855 142.307 133.161 142.168 133.538C142.029 133.916 141.959 134.324 141.959 134.761C141.959 135.199 142.029 135.605 142.168 135.98C142.307 136.355 142.522 136.658 142.811 136.888C143.101 137.118 143.471 137.233 143.919 137.233ZM148.42 138V131.455H149.392V132.443H149.46C149.58 132.119 149.795 131.857 150.108 131.655C150.42 131.453 150.773 131.352 151.165 131.352C151.239 131.352 151.331 131.354 151.442 131.357C151.553 131.359 151.636 131.364 151.693 131.369V132.392C151.659 132.384 151.581 132.371 151.459 132.354C151.339 132.334 151.213 132.324 151.08 132.324C150.761 132.324 150.477 132.391 150.227 132.524C149.98 132.655 149.784 132.837 149.639 133.07C149.497 133.3 149.426 133.562 149.426 133.858V138H148.42ZM152.885 138V131.455H153.891V138H152.885ZM153.397 130.364C153.201 130.364 153.032 130.297 152.89 130.163C152.75 130.03 152.681 129.869 152.681 129.682C152.681 129.494 152.75 129.334 152.89 129.2C153.032 129.067 153.201 129 153.397 129C153.593 129 153.76 129.067 153.9 129.2C154.042 129.334 154.113 129.494 154.113 129.682C154.113 129.869 154.042 130.03 153.9 130.163C153.76 130.297 153.593 130.364 153.397 130.364ZM158.477 138.136C157.847 138.136 157.303 137.997 156.845 137.719C156.391 137.438 156.04 137.045 155.793 136.543C155.548 136.037 155.426 135.449 155.426 134.778C155.426 134.108 155.548 133.517 155.793 133.006C156.04 132.491 156.384 132.091 156.824 131.804C157.267 131.514 157.784 131.369 158.375 131.369C158.716 131.369 159.053 131.426 159.385 131.54C159.717 131.653 160.02 131.838 160.293 132.094C160.565 132.347 160.783 132.682 160.945 133.099C161.107 133.517 161.188 134.031 161.188 134.642V135.068H156.142V134.199H160.165C160.165 133.83 160.091 133.5 159.943 133.21C159.798 132.92 159.591 132.692 159.321 132.524C159.054 132.357 158.739 132.273 158.375 132.273C157.974 132.273 157.628 132.372 157.335 132.571C157.045 132.767 156.822 133.023 156.666 133.338C156.51 133.653 156.432 133.991 156.432 134.352V134.932C156.432 135.426 156.517 135.845 156.688 136.189C156.861 136.53 157.101 136.79 157.408 136.969C157.714 137.145 158.071 137.233 158.477 137.233C158.741 137.233 158.98 137.196 159.193 137.122C159.409 137.045 159.595 136.932 159.751 136.781C159.908 136.628 160.028 136.437 160.114 136.21L161.085 136.483C160.983 136.812 160.811 137.102 160.57 137.352C160.328 137.599 160.03 137.793 159.675 137.932C159.32 138.068 158.92 138.136 158.477 138.136ZM167.354 132.92L166.45 133.176C166.393 133.026 166.31 132.879 166.199 132.737C166.091 132.592 165.943 132.473 165.756 132.379C165.568 132.286 165.328 132.239 165.036 132.239C164.635 132.239 164.301 132.331 164.034 132.516C163.77 132.697 163.638 132.929 163.638 133.21C163.638 133.46 163.729 133.658 163.911 133.803C164.092 133.947 164.376 134.068 164.763 134.165L165.734 134.403C166.32 134.545 166.756 134.763 167.043 135.055C167.33 135.345 167.473 135.719 167.473 136.176C167.473 136.551 167.365 136.886 167.149 137.182C166.936 137.477 166.638 137.71 166.254 137.881C165.871 138.051 165.425 138.136 164.916 138.136C164.249 138.136 163.696 137.991 163.259 137.702C162.821 137.412 162.544 136.989 162.428 136.432L163.382 136.193C163.473 136.545 163.645 136.81 163.898 136.986C164.153 137.162 164.487 137.25 164.899 137.25C165.368 137.25 165.74 137.151 166.016 136.952C166.294 136.75 166.433 136.509 166.433 136.227C166.433 136 166.354 135.81 166.195 135.656C166.036 135.5 165.791 135.384 165.462 135.307L164.371 135.051C163.771 134.909 163.331 134.689 163.05 134.391C162.771 134.089 162.632 133.713 162.632 133.261C162.632 132.892 162.736 132.565 162.943 132.281C163.153 131.997 163.439 131.774 163.8 131.612C164.163 131.45 164.575 131.369 165.036 131.369C165.683 131.369 166.192 131.511 166.561 131.795C166.933 132.08 167.197 132.455 167.354 132.92Z" fill="#0D1220"/>
<path d="M125.055 152.102H126.086C126.591 152.102 127.008 152.018 127.336 151.852C127.669 151.68 127.917 151.448 128.078 151.156C128.245 150.859 128.328 150.526 128.328 150.156C128.328 149.719 128.255 149.352 128.109 149.055C127.964 148.758 127.745 148.534 127.453 148.383C127.161 148.232 126.792 148.156 126.344 148.156C125.938 148.156 125.578 148.237 125.266 148.398C124.958 148.555 124.716 148.779 124.539 149.07C124.367 149.362 124.281 149.706 124.281 150.102H122.836C122.836 149.523 122.982 148.997 123.273 148.523C123.565 148.049 123.974 147.672 124.5 147.391C125.031 147.109 125.646 146.969 126.344 146.969C127.031 146.969 127.633 147.091 128.148 147.336C128.664 147.576 129.065 147.935 129.352 148.414C129.638 148.888 129.781 149.479 129.781 150.188C129.781 150.474 129.714 150.781 129.578 151.109C129.448 151.432 129.242 151.734 128.961 152.016C128.685 152.297 128.326 152.529 127.883 152.711C127.44 152.888 126.909 152.977 126.289 152.977H125.055V152.102ZM125.055 153.289V152.422H126.289C127.013 152.422 127.612 152.508 128.086 152.68C128.56 152.852 128.932 153.081 129.203 153.367C129.479 153.654 129.672 153.969 129.781 154.312C129.896 154.651 129.953 154.99 129.953 155.328C129.953 155.859 129.862 156.331 129.68 156.742C129.503 157.154 129.25 157.503 128.922 157.789C128.599 158.076 128.219 158.292 127.781 158.438C127.344 158.583 126.867 158.656 126.352 158.656C125.857 158.656 125.391 158.586 124.953 158.445C124.521 158.305 124.138 158.102 123.805 157.836C123.471 157.565 123.211 157.234 123.023 156.844C122.836 156.448 122.742 155.997 122.742 155.492H124.188C124.188 155.888 124.273 156.234 124.445 156.531C124.622 156.828 124.872 157.06 125.195 157.227C125.523 157.388 125.909 157.469 126.352 157.469C126.794 157.469 127.174 157.393 127.492 157.242C127.815 157.086 128.062 156.852 128.234 156.539C128.411 156.227 128.5 155.833 128.5 155.359C128.5 154.885 128.401 154.497 128.203 154.195C128.005 153.888 127.724 153.661 127.359 153.516C127 153.365 126.576 153.289 126.086 153.289H125.055ZM139.633 154.672V155.859H131.414V155.008L136.508 147.125H137.688L136.422 149.406L133.055 154.672H139.633ZM138.047 147.125V158.5H136.602V147.125H138.047ZM148.086 151.906V153.641C148.086 154.573 148.003 155.359 147.836 156C147.669 156.641 147.43 157.156 147.117 157.547C146.805 157.938 146.427 158.221 145.984 158.398C145.547 158.57 145.052 158.656 144.5 158.656C144.062 158.656 143.659 158.602 143.289 158.492C142.919 158.383 142.586 158.208 142.289 157.969C141.997 157.724 141.747 157.406 141.539 157.016C141.331 156.625 141.172 156.151 141.062 155.594C140.953 155.036 140.898 154.385 140.898 153.641V151.906C140.898 150.974 140.982 150.193 141.148 149.562C141.32 148.932 141.562 148.427 141.875 148.047C142.188 147.661 142.562 147.385 143 147.219C143.443 147.052 143.938 146.969 144.484 146.969C144.927 146.969 145.333 147.023 145.703 147.133C146.078 147.237 146.411 147.406 146.703 147.641C146.995 147.87 147.242 148.177 147.445 148.562C147.654 148.943 147.812 149.409 147.922 149.961C148.031 150.513 148.086 151.161 148.086 151.906ZM146.633 153.875V151.664C146.633 151.154 146.602 150.706 146.539 150.32C146.482 149.93 146.396 149.596 146.281 149.32C146.167 149.044 146.021 148.82 145.844 148.648C145.672 148.477 145.471 148.352 145.242 148.273C145.018 148.19 144.766 148.148 144.484 148.148C144.141 148.148 143.836 148.214 143.57 148.344C143.305 148.469 143.081 148.669 142.898 148.945C142.721 149.221 142.586 149.583 142.492 150.031C142.398 150.479 142.352 151.023 142.352 151.664V153.875C142.352 154.385 142.38 154.836 142.438 155.227C142.5 155.617 142.591 155.956 142.711 156.242C142.831 156.523 142.977 156.755 143.148 156.938C143.32 157.12 143.518 157.255 143.742 157.344C143.971 157.427 144.224 157.469 144.5 157.469C144.854 157.469 145.164 157.401 145.43 157.266C145.695 157.13 145.917 156.919 146.094 156.633C146.276 156.341 146.411 155.969 146.5 155.516C146.589 155.057 146.633 154.51 146.633 153.875ZM157.086 151.906V153.641C157.086 154.573 157.003 155.359 156.836 156C156.669 156.641 156.43 157.156 156.117 157.547C155.805 157.938 155.427 158.221 154.984 158.398C154.547 158.57 154.052 158.656 153.5 158.656C153.062 158.656 152.659 158.602 152.289 158.492C151.919 158.383 151.586 158.208 151.289 157.969C150.997 157.724 150.747 157.406 150.539 157.016C150.331 156.625 150.172 156.151 150.062 155.594C149.953 155.036 149.898 154.385 149.898 153.641V151.906C149.898 150.974 149.982 150.193 150.148 149.562C150.32 148.932 150.562 148.427 150.875 148.047C151.188 147.661 151.562 147.385 152 147.219C152.443 147.052 152.938 146.969 153.484 146.969C153.927 146.969 154.333 147.023 154.703 147.133C155.078 147.237 155.411 147.406 155.703 147.641C155.995 147.87 156.242 148.177 156.445 148.562C156.654 148.943 156.812 149.409 156.922 149.961C157.031 150.513 157.086 151.161 157.086 151.906ZM155.633 153.875V151.664C155.633 151.154 155.602 150.706 155.539 150.32C155.482 149.93 155.396 149.596 155.281 149.32C155.167 149.044 155.021 148.82 154.844 148.648C154.672 148.477 154.471 148.352 154.242 148.273C154.018 148.19 153.766 148.148 153.484 148.148C153.141 148.148 152.836 148.214 152.57 148.344C152.305 148.469 152.081 148.669 151.898 148.945C151.721 149.221 151.586 149.583 151.492 150.031C151.398 150.479 151.352 151.023 151.352 151.664V153.875C151.352 154.385 151.38 154.836 151.438 155.227C151.5 155.617 151.591 155.956 151.711 156.242C151.831 156.523 151.977 156.755 152.148 156.938C152.32 157.12 152.518 157.255 152.742 157.344C152.971 157.427 153.224 157.469 153.5 157.469C153.854 157.469 154.164 157.401 154.43 157.266C154.695 157.13 154.917 156.919 155.094 156.633C155.276 156.341 155.411 155.969 155.5 155.516C155.589 155.057 155.633 154.51 155.633 153.875Z" fill="#0D1220"/>
<path d="M158 145.5V161.5" stroke="#0D1220" stroke-linecap="square"/>
<line x1="106" y1="169" x2="274" y2="169" stroke="#35CC8C" stroke-width="2"/>
<rect x="26" y="259" width="328" height="52" rx="10" fill="#35CC8C"/>
<path d="M179 282.42C178.939 281.883 178.689 281.466 178.25 281.17C177.811 280.871 177.258 280.722 176.591 280.722C176.114 280.722 175.701 280.797 175.352 280.949C175.004 281.097 174.733 281.301 174.54 281.562C174.35 281.82 174.256 282.114 174.256 282.443C174.256 282.72 174.32 282.958 174.449 283.159C174.581 283.36 174.754 283.528 174.966 283.665C175.182 283.797 175.413 283.909 175.659 284C175.905 284.087 176.142 284.159 176.369 284.216L177.506 284.511C177.877 284.602 178.258 284.725 178.648 284.881C179.038 285.036 179.4 285.241 179.733 285.494C180.066 285.748 180.335 286.062 180.54 286.438C180.748 286.812 180.852 287.261 180.852 287.784C180.852 288.443 180.682 289.028 180.341 289.54C180.004 290.051 179.513 290.455 178.869 290.75C178.229 291.045 177.455 291.193 176.545 291.193C175.674 291.193 174.92 291.055 174.284 290.778C173.648 290.502 173.15 290.11 172.79 289.602C172.43 289.091 172.231 288.485 172.193 287.784H173.955C173.989 288.205 174.125 288.555 174.364 288.835C174.606 289.112 174.915 289.318 175.29 289.455C175.669 289.587 176.083 289.653 176.534 289.653C177.03 289.653 177.472 289.576 177.858 289.42C178.248 289.261 178.555 289.042 178.778 288.761C179.002 288.477 179.114 288.146 179.114 287.767C179.114 287.422 179.015 287.14 178.818 286.92C178.625 286.701 178.362 286.519 178.028 286.375C177.699 286.231 177.326 286.104 176.909 285.994L175.534 285.619C174.602 285.366 173.864 284.992 173.318 284.5C172.777 284.008 172.506 283.356 172.506 282.545C172.506 281.875 172.688 281.29 173.051 280.79C173.415 280.29 173.907 279.902 174.528 279.625C175.15 279.345 175.85 279.205 176.631 279.205C177.419 279.205 178.114 279.343 178.716 279.619C179.322 279.896 179.799 280.277 180.148 280.761C180.496 281.242 180.678 281.795 180.693 282.42H179ZM185.354 291.193C184.801 291.193 184.301 291.091 183.854 290.886C183.407 290.678 183.053 290.377 182.791 289.983C182.534 289.589 182.405 289.106 182.405 288.534C182.405 288.042 182.5 287.636 182.689 287.318C182.878 287 183.134 286.748 183.456 286.562C183.778 286.377 184.138 286.237 184.536 286.142C184.933 286.047 185.339 285.975 185.751 285.926C186.274 285.866 186.698 285.816 187.024 285.778C187.35 285.737 187.587 285.67 187.734 285.58C187.882 285.489 187.956 285.341 187.956 285.136V285.097C187.956 284.6 187.816 284.216 187.536 283.943C187.259 283.67 186.846 283.534 186.297 283.534C185.725 283.534 185.274 283.661 184.945 283.915C184.619 284.165 184.393 284.443 184.268 284.75L182.672 284.386C182.861 283.856 183.138 283.428 183.501 283.102C183.869 282.773 184.291 282.534 184.768 282.386C185.246 282.235 185.748 282.159 186.274 282.159C186.623 282.159 186.992 282.201 187.382 282.284C187.776 282.364 188.143 282.511 188.484 282.727C188.829 282.943 189.111 283.252 189.331 283.653C189.551 284.051 189.661 284.568 189.661 285.205V291H188.001V289.807H187.933C187.823 290.027 187.659 290.242 187.439 290.455C187.219 290.667 186.937 290.843 186.592 290.983C186.248 291.123 185.835 291.193 185.354 291.193ZM185.723 289.83C186.193 289.83 186.594 289.737 186.928 289.551C187.265 289.366 187.52 289.123 187.695 288.824C187.873 288.521 187.962 288.197 187.962 287.852V286.727C187.901 286.788 187.784 286.845 187.609 286.898C187.439 286.947 187.244 286.991 187.024 287.028C186.804 287.062 186.59 287.095 186.382 287.125C186.174 287.152 186 287.174 185.859 287.193C185.53 287.235 185.229 287.305 184.956 287.403C184.687 287.502 184.471 287.644 184.308 287.83C184.149 288.011 184.07 288.254 184.07 288.557C184.07 288.977 184.225 289.295 184.536 289.511C184.846 289.723 185.242 289.83 185.723 289.83ZM199.077 282.273L195.912 291H194.094L190.923 282.273H192.747L194.957 288.989H195.048L197.253 282.273H199.077ZM204.138 291.176C203.278 291.176 202.537 290.992 201.916 290.625C201.299 290.254 200.821 289.733 200.484 289.062C200.151 288.388 199.984 287.598 199.984 286.693C199.984 285.799 200.151 285.011 200.484 284.33C200.821 283.648 201.291 283.116 201.893 282.733C202.5 282.35 203.208 282.159 204.018 282.159C204.511 282.159 204.988 282.241 205.45 282.403C205.912 282.566 206.327 282.822 206.695 283.17C207.062 283.519 207.352 283.972 207.564 284.528C207.776 285.081 207.882 285.754 207.882 286.545V287.148H200.945V285.875H206.217C206.217 285.428 206.126 285.032 205.945 284.688C205.763 284.339 205.507 284.064 205.178 283.864C204.852 283.663 204.469 283.562 204.03 283.562C203.553 283.562 203.136 283.68 202.78 283.915C202.428 284.146 202.155 284.449 201.962 284.824C201.772 285.195 201.678 285.598 201.678 286.034V287.028C201.678 287.612 201.78 288.108 201.984 288.517C202.193 288.926 202.482 289.239 202.854 289.455C203.225 289.667 203.659 289.773 204.155 289.773C204.477 289.773 204.77 289.727 205.036 289.636C205.301 289.542 205.53 289.402 205.723 289.216C205.916 289.03 206.064 288.801 206.166 288.528L207.774 288.818C207.645 289.292 207.414 289.706 207.081 290.062C206.751 290.415 206.337 290.689 205.837 290.886C205.34 291.08 204.774 291.176 204.138 291.176Z" fill="white"/>
<path d="M107.303 214V203.818H110.932C111.721 203.818 112.376 203.954 112.896 204.226C113.42 204.498 113.811 204.874 114.07 205.354C114.328 205.832 114.457 206.384 114.457 207.01C114.457 207.633 114.326 208.182 114.065 208.656C113.806 209.126 113.415 209.492 112.891 209.754C112.371 210.016 111.716 210.147 110.927 210.147H108.178V208.825H110.788C111.285 208.825 111.69 208.753 112.001 208.611C112.316 208.468 112.547 208.261 112.692 207.989C112.838 207.718 112.911 207.391 112.911 207.01C112.911 206.625 112.837 206.292 112.687 206.011C112.542 205.729 112.311 205.513 111.996 205.364C111.685 205.212 111.275 205.136 110.768 205.136H108.839V214H107.303ZM112.329 209.406L114.845 214H113.095L110.629 209.406H112.329ZM119.403 214.154C118.65 214.154 118.002 213.993 117.459 213.672C116.919 213.347 116.501 212.891 116.206 212.305C115.914 211.715 115.769 211.024 115.769 210.232C115.769 209.449 115.914 208.76 116.206 208.163C116.501 207.567 116.912 207.101 117.439 206.766C117.969 206.432 118.589 206.264 119.298 206.264C119.729 206.264 120.147 206.335 120.551 206.478C120.956 206.621 121.319 206.844 121.64 207.149C121.962 207.454 122.215 207.85 122.401 208.337C122.586 208.821 122.679 209.41 122.679 210.102V210.629H116.609V209.516H121.222C121.222 209.125 121.143 208.778 120.984 208.477C120.825 208.172 120.601 207.931 120.313 207.756C120.028 207.58 119.693 207.492 119.308 207.492C118.891 207.492 118.526 207.595 118.215 207.8C117.906 208.003 117.668 208.268 117.499 208.596C117.333 208.921 117.25 209.274 117.25 209.655V210.525C117.25 211.035 117.34 211.469 117.519 211.827C117.701 212.185 117.954 212.459 118.279 212.648C118.604 212.833 118.984 212.926 119.418 212.926C119.699 212.926 119.956 212.886 120.188 212.807C120.42 212.724 120.621 212.601 120.79 212.439C120.959 212.277 121.088 212.076 121.178 211.837L122.585 212.091C122.472 212.505 122.27 212.868 121.978 213.18C121.69 213.488 121.327 213.728 120.889 213.901C120.455 214.07 119.96 214.154 119.403 214.154ZM127.545 214.154C126.806 214.154 126.17 213.987 125.636 213.652C125.106 213.314 124.698 212.848 124.413 212.255C124.128 211.662 123.985 210.982 123.985 210.217C123.985 209.441 124.131 208.757 124.423 208.163C124.715 207.567 125.126 207.101 125.656 206.766C126.186 206.432 126.811 206.264 127.53 206.264C128.11 206.264 128.627 206.372 129.081 206.587C129.535 206.799 129.902 207.098 130.18 207.482C130.462 207.867 130.629 208.316 130.682 208.83H129.235C129.156 208.472 128.974 208.163 128.688 207.905C128.407 207.646 128.029 207.517 127.555 207.517C127.141 207.517 126.778 207.626 126.466 207.845C126.158 208.061 125.918 208.369 125.745 208.77C125.573 209.168 125.487 209.638 125.487 210.182C125.487 210.739 125.571 211.219 125.74 211.624C125.909 212.028 126.148 212.341 126.456 212.563C126.768 212.785 127.134 212.896 127.555 212.896C127.837 212.896 128.092 212.845 128.321 212.742C128.553 212.636 128.746 212.485 128.902 212.29C129.061 212.094 129.172 211.859 129.235 211.584H130.682C130.629 212.078 130.468 212.518 130.2 212.906C129.931 213.294 129.572 213.599 129.121 213.821C128.674 214.043 128.148 214.154 127.545 214.154ZM135.488 214.154C134.772 214.154 134.148 213.99 133.614 213.662C133.08 213.334 132.666 212.875 132.371 212.285C132.076 211.695 131.929 211.005 131.929 210.217C131.929 209.424 132.076 208.732 132.371 208.138C132.666 207.545 133.08 207.085 133.614 206.756C134.148 206.428 134.772 206.264 135.488 206.264C136.204 206.264 136.829 206.428 137.363 206.756C137.896 207.085 138.311 207.545 138.606 208.138C138.901 208.732 139.048 209.424 139.048 210.217C139.048 211.005 138.901 211.695 138.606 212.285C138.311 212.875 137.896 213.334 137.363 213.662C136.829 213.99 136.204 214.154 135.488 214.154ZM135.493 212.906C135.957 212.906 136.342 212.784 136.647 212.538C136.952 212.293 137.177 211.967 137.323 211.559C137.472 211.151 137.547 210.702 137.547 210.212C137.547 209.724 137.472 209.277 137.323 208.869C137.177 208.458 136.952 208.129 136.647 207.88C136.342 207.631 135.957 207.507 135.493 207.507C135.026 207.507 134.638 207.631 134.33 207.88C134.025 208.129 133.798 208.458 133.649 208.869C133.503 209.277 133.43 209.724 133.43 210.212C133.43 210.702 133.503 211.151 133.649 211.559C133.798 211.967 134.025 212.293 134.33 212.538C134.638 212.784 135.026 212.906 135.493 212.906ZM140.707 214V206.364H142.134V207.607H142.229C142.388 207.186 142.648 206.857 143.009 206.622C143.37 206.384 143.803 206.264 144.307 206.264C144.817 206.264 145.245 206.384 145.589 206.622C145.937 206.861 146.194 207.189 146.36 207.607H146.44C146.622 207.199 146.912 206.874 147.31 206.632C147.707 206.387 148.181 206.264 148.731 206.264C149.424 206.264 149.989 206.481 150.427 206.915C150.868 207.35 151.088 208.004 151.088 208.879V214H149.601V209.018C149.601 208.501 149.461 208.127 149.179 207.895C148.897 207.663 148.561 207.547 148.17 207.547C147.686 207.547 147.31 207.696 147.041 207.994C146.773 208.289 146.638 208.669 146.638 209.133V214H145.157V208.924C145.157 208.51 145.028 208.177 144.769 207.925C144.511 207.673 144.174 207.547 143.76 207.547C143.478 207.547 143.218 207.621 142.979 207.771C142.744 207.916 142.553 208.12 142.408 208.382C142.265 208.644 142.194 208.947 142.194 209.292V214H140.707ZM153.08 214V206.364H154.507V207.607H154.602C154.761 207.186 155.021 206.857 155.382 206.622C155.743 206.384 156.176 206.264 156.68 206.264C157.19 206.264 157.618 206.384 157.962 206.622C158.31 206.861 158.567 207.189 158.733 207.607H158.813C158.995 207.199 159.285 206.874 159.683 206.632C160.08 206.387 160.554 206.264 161.104 206.264C161.797 206.264 162.362 206.481 162.8 206.915C163.241 207.35 163.461 208.004 163.461 208.879V214H161.975V209.018C161.975 208.501 161.834 208.127 161.552 207.895C161.27 207.663 160.934 207.547 160.543 207.547C160.059 207.547 159.683 207.696 159.414 207.994C159.146 208.289 159.011 208.669 159.011 209.133V214H157.53V208.924C157.53 208.51 157.401 208.177 157.142 207.925C156.884 207.673 156.547 207.547 156.133 207.547C155.851 207.547 155.591 207.621 155.352 207.771C155.117 207.916 154.926 208.12 154.781 208.382C154.638 208.644 154.567 208.947 154.567 209.292V214H153.08ZM168.745 214.154C167.992 214.154 167.344 213.993 166.801 213.672C166.26 213.347 165.843 212.891 165.548 212.305C165.256 211.715 165.11 211.024 165.11 210.232C165.11 209.449 165.256 208.76 165.548 208.163C165.843 207.567 166.254 207.101 166.781 206.766C167.311 206.432 167.931 206.264 168.64 206.264C169.071 206.264 169.489 206.335 169.893 206.478C170.297 206.621 170.66 206.844 170.982 207.149C171.303 207.454 171.557 207.85 171.742 208.337C171.928 208.821 172.021 209.41 172.021 210.102V210.629H165.951V209.516H170.564C170.564 209.125 170.485 208.778 170.326 208.477C170.166 208.172 169.943 207.931 169.654 207.756C169.369 207.58 169.035 207.492 168.65 207.492C168.233 207.492 167.868 207.595 167.556 207.8C167.248 208.003 167.009 208.268 166.84 208.596C166.675 208.921 166.592 209.274 166.592 209.655V210.525C166.592 211.035 166.681 211.469 166.86 211.827C167.043 212.185 167.296 212.459 167.621 212.648C167.946 212.833 168.325 212.926 168.759 212.926C169.041 212.926 169.298 212.886 169.53 212.807C169.762 212.724 169.963 212.601 170.132 212.439C170.301 212.277 170.43 212.076 170.519 211.837L171.926 212.091C171.814 212.505 171.612 212.868 171.32 213.18C171.032 213.488 170.669 213.728 170.231 213.901C169.797 214.07 169.301 214.154 168.745 214.154ZM175.157 209.466V214H173.67V206.364H175.097V207.607H175.191C175.367 207.202 175.642 206.877 176.017 206.632C176.395 206.387 176.87 206.264 177.444 206.264C177.964 206.264 178.42 206.374 178.811 206.592C179.202 206.808 179.505 207.129 179.721 207.557C179.936 207.984 180.044 208.513 180.044 209.143V214H178.557V209.322C178.557 208.768 178.413 208.336 178.125 208.024C177.836 207.709 177.44 207.552 176.937 207.552C176.592 207.552 176.285 207.626 176.017 207.776C175.752 207.925 175.541 208.143 175.385 208.432C175.233 208.717 175.157 209.062 175.157 209.466ZM184.896 214.149C184.28 214.149 183.729 213.992 183.245 213.677C182.765 213.359 182.387 212.906 182.112 212.32C181.84 211.73 181.704 211.022 181.704 210.197C181.704 209.371 181.842 208.665 182.117 208.079C182.395 207.492 182.776 207.043 183.26 206.732C183.744 206.42 184.293 206.264 184.906 206.264C185.38 206.264 185.761 206.344 186.049 206.503C186.341 206.659 186.566 206.841 186.726 207.05C186.888 207.259 187.014 207.442 187.103 207.602H187.193V203.818H188.679V214H187.228V212.812H187.103C187.014 212.974 186.885 213.16 186.716 213.369C186.55 213.577 186.321 213.76 186.03 213.915C185.738 214.071 185.36 214.149 184.896 214.149ZM185.224 212.881C185.652 212.881 186.013 212.769 186.308 212.543C186.606 212.315 186.832 211.998 186.984 211.594C187.14 211.189 187.218 210.719 187.218 210.182C187.218 209.652 187.142 209.187 186.989 208.79C186.837 208.392 186.613 208.082 186.318 207.86C186.023 207.638 185.658 207.527 185.224 207.527C184.777 207.527 184.404 207.643 184.106 207.875C183.807 208.107 183.582 208.424 183.429 208.825C183.28 209.226 183.206 209.678 183.206 210.182C183.206 210.692 183.282 211.151 183.434 211.559C183.587 211.967 183.812 212.29 184.111 212.528C184.412 212.764 184.783 212.881 185.224 212.881ZM194.092 214.154C193.34 214.154 192.692 213.993 192.148 213.672C191.608 213.347 191.19 212.891 190.896 212.305C190.604 211.715 190.458 211.024 190.458 210.232C190.458 209.449 190.604 208.76 190.896 208.163C191.19 207.567 191.601 207.101 192.128 206.766C192.659 206.432 193.279 206.264 193.988 206.264C194.419 206.264 194.836 206.335 195.241 206.478C195.645 206.621 196.008 206.844 196.329 207.149C196.651 207.454 196.905 207.85 197.09 208.337C197.276 208.821 197.369 209.41 197.369 210.102V210.629H191.298V209.516H195.912C195.912 209.125 195.832 208.778 195.673 208.477C195.514 208.172 195.29 207.931 195.002 207.756C194.717 207.58 194.382 207.492 193.998 207.492C193.58 207.492 193.216 207.595 192.904 207.8C192.596 208.003 192.357 208.268 192.188 208.596C192.022 208.921 191.94 209.274 191.94 209.655V210.525C191.94 211.035 192.029 211.469 192.208 211.827C192.39 212.185 192.644 212.459 192.969 212.648C193.293 212.833 193.673 212.926 194.107 212.926C194.389 212.926 194.646 212.886 194.878 212.807C195.11 212.724 195.31 212.601 195.479 212.439C195.648 212.277 195.778 212.076 195.867 211.837L197.274 212.091C197.161 212.505 196.959 212.868 196.668 213.18C196.379 213.488 196.016 213.728 195.579 213.901C195.145 214.07 194.649 214.154 194.092 214.154ZM201.877 214.149C201.26 214.149 200.71 213.992 200.226 213.677C199.745 213.359 199.368 212.906 199.092 212.32C198.821 211.73 198.685 211.022 198.685 210.197C198.685 209.371 198.822 208.665 199.097 208.079C199.376 207.492 199.757 207.043 200.241 206.732C200.725 206.42 201.273 206.264 201.886 206.264C202.36 206.264 202.742 206.344 203.03 206.503C203.322 206.659 203.547 206.841 203.706 207.05C203.868 207.259 203.994 207.442 204.084 207.602H204.173V203.818H205.66V214H204.208V212.812H204.084C203.994 212.974 203.865 213.16 203.696 213.369C203.53 213.577 203.302 213.76 203.01 213.915C202.718 214.071 202.341 214.149 201.877 214.149ZM202.205 212.881C202.632 212.881 202.993 212.769 203.288 212.543C203.587 212.315 203.812 211.998 203.965 211.594C204.12 211.189 204.198 210.719 204.198 210.182C204.198 209.652 204.122 209.187 203.97 208.79C203.817 208.392 203.593 208.082 203.298 207.86C203.003 207.638 202.639 207.527 202.205 207.527C201.757 207.527 201.384 207.643 201.086 207.875C200.788 208.107 200.562 208.424 200.41 208.825C200.261 209.226 200.186 209.678 200.186 210.182C200.186 210.692 200.262 211.151 200.415 211.559C200.567 211.967 200.793 212.29 201.091 212.528C201.393 212.764 201.764 212.881 202.205 212.881ZM208.761 214.094C208.489 214.094 208.255 213.998 208.06 213.806C207.864 213.611 207.767 213.375 207.767 213.1C207.767 212.828 207.864 212.596 208.06 212.404C208.255 212.209 208.489 212.111 208.761 212.111C209.033 212.111 209.266 212.209 209.462 212.404C209.657 212.596 209.755 212.828 209.755 213.1C209.755 213.282 209.709 213.45 209.616 213.602C209.527 213.751 209.407 213.871 209.258 213.96C209.109 214.05 208.943 214.094 208.761 214.094ZM208.761 208.536C208.489 208.536 208.255 208.438 208.06 208.243C207.864 208.047 207.767 207.814 207.767 207.542C207.767 207.27 207.864 207.038 208.06 206.846C208.255 206.65 208.489 206.553 208.761 206.553C209.033 206.553 209.266 206.65 209.462 206.846C209.657 207.038 209.755 207.27 209.755 207.542C209.755 207.724 209.709 207.892 209.616 208.044C209.527 208.193 209.407 208.312 209.258 208.402C209.109 208.491 208.943 208.536 208.761 208.536ZM218.976 214.139C218.294 214.139 217.684 214.022 217.147 213.786C216.613 213.551 216.191 213.224 215.879 212.807C215.571 212.386 215.405 211.899 215.382 211.345H216.943C216.963 211.647 217.064 211.909 217.246 212.131C217.432 212.349 217.674 212.518 217.972 212.638C218.27 212.757 218.602 212.817 218.966 212.817C219.367 212.817 219.722 212.747 220.03 212.608C220.342 212.469 220.585 212.275 220.761 212.026C220.937 211.774 221.025 211.484 221.025 211.156C221.025 210.815 220.937 210.515 220.761 210.256C220.589 209.995 220.335 209.789 220 209.64C219.669 209.491 219.268 209.416 218.797 209.416H217.937V208.163H218.797C219.175 208.163 219.507 208.095 219.792 207.96C220.08 207.824 220.305 207.635 220.468 207.393C220.63 207.147 220.711 206.861 220.711 206.533C220.711 206.218 220.64 205.944 220.498 205.712C220.358 205.477 220.16 205.293 219.901 205.161C219.646 205.028 219.344 204.962 218.996 204.962C218.665 204.962 218.355 205.023 218.066 205.146C217.781 205.265 217.549 205.437 217.37 205.663C217.191 205.885 217.095 206.152 217.082 206.463H215.596C215.612 205.913 215.775 205.429 216.083 205.011C216.394 204.594 216.805 204.267 217.316 204.032C217.826 203.797 218.393 203.679 219.016 203.679C219.669 203.679 220.232 203.807 220.706 204.062C221.184 204.314 221.552 204.65 221.81 205.071C222.072 205.492 222.201 205.953 222.198 206.453C222.201 207.023 222.042 207.507 221.721 207.905C221.402 208.303 220.978 208.569 220.448 208.705V208.785C221.124 208.888 221.648 209.156 222.019 209.59C222.393 210.024 222.579 210.563 222.576 211.206C222.579 211.766 222.423 212.268 222.108 212.712C221.797 213.156 221.371 213.506 220.831 213.761C220.29 214.013 219.672 214.139 218.976 214.139ZM224.241 212.011V210.768L228.641 203.818H229.62V205.648H228.999L225.852 210.629V210.709H231.883V212.011H224.241ZM229.069 214V211.634L229.079 211.067V203.818H230.535V214H229.069ZM237.16 214.169C236.374 214.166 235.703 213.959 235.146 213.548C234.59 213.137 234.164 212.538 233.869 211.753C233.574 210.967 233.426 210.021 233.426 208.914C233.426 207.81 233.574 206.867 233.869 206.085C234.167 205.303 234.595 204.706 235.151 204.295C235.711 203.884 236.381 203.679 237.16 203.679C237.939 203.679 238.607 203.886 239.163 204.3C239.72 204.711 240.146 205.308 240.441 206.09C240.739 206.869 240.889 207.81 240.889 208.914C240.889 210.024 240.741 210.972 240.446 211.758C240.151 212.54 239.725 213.138 239.168 213.553C238.612 213.964 237.942 214.169 237.16 214.169ZM237.16 212.842C237.849 212.842 238.388 212.505 238.776 211.832C239.167 211.16 239.362 210.187 239.362 208.914C239.362 208.069 239.273 207.355 239.094 206.771C238.918 206.185 238.665 205.741 238.333 205.439C238.005 205.134 237.614 204.982 237.16 204.982C236.474 204.982 235.935 205.32 235.544 205.996C235.153 206.672 234.956 207.645 234.953 208.914C234.953 209.763 235.04 210.48 235.216 211.067C235.395 211.65 235.649 212.093 235.977 212.394C236.305 212.692 236.699 212.842 237.16 212.842ZM246.197 214.169C245.411 214.166 244.74 213.959 244.184 213.548C243.627 213.137 243.201 212.538 242.906 211.753C242.611 210.967 242.463 210.021 242.463 208.914C242.463 207.81 242.611 206.867 242.906 206.085C243.204 205.303 243.632 204.706 244.188 204.295C244.749 203.884 245.418 203.679 246.197 203.679C246.976 203.679 247.644 203.886 248.201 204.3C248.757 204.711 249.183 205.308 249.478 206.09C249.777 206.869 249.926 207.81 249.926 208.914C249.926 210.024 249.778 210.972 249.483 211.758C249.188 212.54 248.762 213.138 248.206 213.553C247.649 213.964 246.979 214.169 246.197 214.169ZM246.197 212.842C246.886 212.842 247.425 212.505 247.813 211.832C248.204 211.16 248.399 210.187 248.399 208.914C248.399 208.069 248.31 207.355 248.131 206.771C247.955 206.185 247.702 205.741 247.37 205.439C247.042 205.134 246.651 204.982 246.197 204.982C245.511 204.982 244.972 205.32 244.581 205.996C244.19 206.672 243.993 207.645 243.99 208.914C243.99 209.763 244.077 210.48 244.253 211.067C244.432 211.65 244.686 212.093 245.014 212.394C245.342 212.692 245.736 212.842 246.197 212.842ZM258.631 214.154C257.892 214.154 257.255 213.987 256.722 213.652C256.192 213.314 255.784 212.848 255.499 212.255C255.214 211.662 255.071 210.982 255.071 210.217C255.071 209.441 255.217 208.757 255.509 208.163C255.8 207.567 256.211 207.101 256.742 206.766C257.272 206.432 257.897 206.264 258.616 206.264C259.196 206.264 259.713 206.372 260.167 206.587C260.621 206.799 260.987 207.098 261.266 207.482C261.548 207.867 261.715 208.316 261.768 208.83H260.321C260.242 208.472 260.059 208.163 259.774 207.905C259.493 207.646 259.115 207.517 258.641 207.517C258.227 207.517 257.864 207.626 257.552 207.845C257.244 208.061 257.004 208.369 256.831 208.77C256.659 209.168 256.573 209.638 256.573 210.182C256.573 210.739 256.657 211.219 256.826 211.624C256.995 212.028 257.234 212.341 257.542 212.563C257.854 212.785 258.22 212.896 258.641 212.896C258.923 212.896 259.178 212.845 259.407 212.742C259.639 212.636 259.832 212.485 259.988 212.29C260.147 212.094 260.258 211.859 260.321 211.584H261.768C261.715 212.078 261.554 212.518 261.286 212.906C261.017 213.294 260.658 213.599 260.207 213.821C259.759 214.043 259.234 214.154 258.631 214.154ZM265.58 214.169C265.096 214.169 264.659 214.08 264.267 213.901C263.876 213.718 263.566 213.455 263.338 213.11C263.112 212.765 263 212.343 263 211.842C263 211.411 263.083 211.057 263.248 210.778C263.414 210.5 263.638 210.28 263.919 210.117C264.201 209.955 264.516 209.832 264.864 209.749C265.212 209.666 265.567 209.603 265.928 209.56C266.385 209.507 266.757 209.464 267.042 209.431C267.327 209.395 267.534 209.337 267.663 209.257C267.792 209.178 267.857 209.048 267.857 208.869V208.835C267.857 208.4 267.734 208.064 267.489 207.825C267.247 207.587 266.886 207.467 266.405 207.467C265.905 207.467 265.51 207.578 265.222 207.8C264.937 208.019 264.74 208.263 264.63 208.531L263.233 208.213C263.399 207.749 263.641 207.375 263.959 207.089C264.281 206.801 264.65 206.592 265.068 206.463C265.486 206.33 265.925 206.264 266.385 206.264C266.69 206.264 267.013 206.301 267.355 206.374C267.7 206.443 268.021 206.572 268.319 206.761C268.621 206.95 268.868 207.22 269.06 207.572C269.252 207.92 269.348 208.372 269.348 208.929V214H267.897V212.956H267.837C267.741 213.148 267.597 213.337 267.405 213.523C267.212 213.708 266.965 213.862 266.664 213.985C266.362 214.108 266.001 214.169 265.58 214.169ZM265.903 212.976C266.314 212.976 266.665 212.895 266.957 212.732C267.252 212.57 267.476 212.358 267.628 212.096C267.784 211.831 267.862 211.547 267.862 211.246V210.261C267.809 210.314 267.706 210.364 267.554 210.411C267.405 210.454 267.234 210.492 267.042 210.525C266.849 210.555 266.662 210.583 266.48 210.609C266.298 210.633 266.145 210.652 266.022 210.669C265.734 210.705 265.471 210.767 265.232 210.853C264.997 210.939 264.808 211.063 264.665 211.226C264.526 211.385 264.456 211.597 264.456 211.862C264.456 212.23 264.592 212.509 264.864 212.697C265.136 212.883 265.482 212.976 265.903 212.976ZM272.815 203.818V214H271.328V203.818H272.815Z" fill="#35CC8C"/>
<rect opacity="0.4" x="174" y="34" width="32" height="4" rx="2" fill="#BFBFBF"/>
</g>
<defs>
<filter id="filter0_d_994_7014" x="0" y="0" width="380" height="357" filterUnits="userSpaceOnUse" color-interpolation-filters="sRGB">
<feFlood flood-opacity="0" result="BackgroundImageFix"/>
<feColorMatrix in="SourceAlpha" type="matrix" values="0 0 0 0 0 0 0 0 0 0 0 0 0 0 0 0 0 0 127 0" result="hardAlpha"/>
<feOffset dy="-4"/>
<feGaussianBlur stdDeviation="5"/>
<feComposite in2="hardAlpha" operator="out"/>
<feColorMatrix type="matrix" values="0 0 0 0 0 0 0 0 0 0 0 0 0 0 0 0 0 0 0.16 0"/>
<feBlend mode="normal" in2="BackgroundImageFix" result="effect1_dropShadow_994_7014"/>
<feBlend mode="normal" in="SourceGraphic" in2="effect1_dropShadow_994_7014" result="shape"/>
</filter>
</defs>
</svg>
