<svg width="328" height="144" viewBox="0 0 328 144" fill="none" xmlns="http://www.w3.org/2000/svg">
<rect width="328" height="144" rx="10" fill="#F7F7F7"/>
<path d="M32.0191 19.2727V28H30.9623V20.3807H30.9112L28.7805 21.7955V20.7216L30.9623 19.2727H32.0191ZM37.2563 28.1193C36.7563 28.1193 36.3061 28.0199 35.9055 27.821C35.5049 27.6222 35.1839 27.3494 34.9424 27.0028C34.7009 26.6562 34.5688 26.2614 34.5461 25.8182H35.5688C35.6086 26.2131 35.7876 26.5398 36.1058 26.7983C36.4268 27.054 36.8103 27.1818 37.2563 27.1818C37.6143 27.1818 37.9325 27.098 38.2109 26.9304C38.4921 26.7628 38.7123 26.5327 38.8714 26.2401C39.0333 25.9446 39.1143 25.6108 39.1143 25.2386C39.1143 24.858 39.0305 24.5185 38.8629 24.2202C38.6981 23.919 38.4708 23.6818 38.1811 23.5085C37.8913 23.3352 37.5603 23.2472 37.1882 23.2443C36.9211 23.2415 36.647 23.2827 36.3657 23.3679C36.0845 23.4503 35.8529 23.5568 35.6711 23.6875L34.6825 23.5682L35.2109 19.2727H39.745V20.2102H36.0972L35.7904 22.7841H35.8416C36.0205 22.642 36.245 22.5241 36.5149 22.4304C36.7847 22.3366 37.066 22.2898 37.3586 22.2898C37.8927 22.2898 38.3686 22.4176 38.7862 22.6733C39.2066 22.9261 39.5362 23.2727 39.7748 23.7131C40.0163 24.1534 40.137 24.6562 40.137 25.2216C40.137 25.7784 40.012 26.2756 39.762 26.7131C39.5149 27.1477 39.1739 27.4915 38.7393 27.7443C38.3046 27.9943 37.8103 28.1193 37.2563 28.1193ZM44.6764 28.1193C44.0344 28.1193 43.4875 27.9446 43.0358 27.5952C42.5841 27.2429 42.2389 26.733 42.0003 26.0653C41.7617 25.3949 41.6423 24.5852 41.6423 23.6364C41.6423 22.6932 41.7617 21.8878 42.0003 21.2202C42.2418 20.5497 42.5884 20.0384 43.0401 19.6861C43.4946 19.331 44.0401 19.1534 44.6764 19.1534C45.3128 19.1534 45.8568 19.331 46.3085 19.6861C46.7631 20.0384 47.1097 20.5497 47.3483 21.2202C47.5898 21.8878 47.7105 22.6932 47.7105 23.6364C47.7105 24.5852 47.5912 25.3949 47.3526 26.0653C47.1139 26.733 46.7688 27.2429 46.3171 27.5952C45.8654 27.9446 45.3185 28.1193 44.6764 28.1193ZM44.6764 27.1818C45.3128 27.1818 45.8071 26.875 46.1594 26.2614C46.5117 25.6477 46.6878 24.7727 46.6878 23.6364C46.6878 22.8807 46.6068 22.2372 46.4449 21.706C46.2858 21.1747 46.0557 20.7699 45.7546 20.4915C45.4563 20.2131 45.0969 20.0739 44.6764 20.0739C44.0458 20.0739 43.5529 20.3849 43.1977 21.0071C42.8426 21.6264 42.6651 22.5028 42.6651 23.6364C42.6651 24.392 42.7446 25.0341 42.9037 25.5625C43.0628 26.0909 43.2915 26.4929 43.5898 26.7685C43.8909 27.044 44.2531 27.1818 44.6764 27.1818ZM55.8071 18.8636L52.9946 29.3125H52.0742L54.8867 18.8636H55.8071ZM60.3572 28V27.233L63.2379 24.0795C63.5759 23.7102 63.8543 23.3892 64.0731 23.1165C64.2918 22.8409 64.4538 22.5824 64.5589 22.3409C64.6668 22.0966 64.7208 21.8409 64.7208 21.5739C64.7208 21.267 64.647 21.0014 64.4992 20.777C64.3543 20.5526 64.1555 20.3793 63.9026 20.2571C63.6498 20.1349 63.3657 20.0739 63.0504 20.0739C62.7151 20.0739 62.4225 20.1435 62.1725 20.2827C61.9254 20.419 61.7336 20.6108 61.5972 20.858C61.4637 21.1051 61.397 21.3949 61.397 21.7273H60.3913C60.3913 21.2159 60.5092 20.767 60.745 20.3807C60.9808 19.9943 61.3018 19.6932 61.708 19.4773C62.1171 19.2614 62.5759 19.1534 63.0845 19.1534C63.5958 19.1534 64.0489 19.2614 64.4438 19.4773C64.8387 19.6932 65.1484 19.9844 65.3728 20.3509C65.5972 20.7173 65.7095 21.125 65.7095 21.5739C65.7095 21.8949 65.6512 22.2088 65.5347 22.5156C65.4211 22.8196 65.2222 23.1591 64.9382 23.5341C64.6569 23.9062 64.2663 24.3608 63.7663 24.8977L61.8061 26.9943V27.0625H65.8629V28H60.3572ZM67.6228 28V27.233L70.5035 24.0795C70.8416 23.7102 71.12 23.3892 71.3387 23.1165C71.5575 22.8409 71.7194 22.5824 71.8245 22.3409C71.9325 22.0966 71.9864 21.8409 71.9864 21.5739C71.9864 21.267 71.9126 21.0014 71.7649 20.777C71.62 20.5526 71.4211 20.3793 71.1683 20.2571C70.9154 20.1349 70.6313 20.0739 70.316 20.0739C69.9808 20.0739 69.6882 20.1435 69.4382 20.2827C69.191 20.419 68.9992 20.6108 68.8629 20.858C68.7293 21.1051 68.6626 21.3949 68.6626 21.7273H67.6569C67.6569 21.2159 67.7748 20.767 68.0106 20.3807C68.2464 19.9943 68.5674 19.6932 68.9737 19.4773C69.3828 19.2614 69.8416 19.1534 70.3501 19.1534C70.8614 19.1534 71.3146 19.2614 71.7095 19.4773C72.1043 19.6932 72.414 19.9844 72.6384 20.3509C72.8629 20.7173 72.9751 21.125 72.9751 21.5739C72.9751 21.8949 72.9168 22.2088 72.8004 22.5156C72.6867 22.8196 72.4879 23.1591 72.2038 23.5341C71.9225 23.9062 71.5319 24.3608 71.0319 24.8977L69.0717 26.9943V27.0625H73.1285V28H67.6228ZM77.6157 28.1193C77.1157 28.1193 76.6654 28.0199 76.2649 27.821C75.8643 27.6222 75.5433 27.3494 75.3018 27.0028C75.0603 26.6562 74.9282 26.2614 74.9055 25.8182H75.9282C75.968 26.2131 76.147 26.5398 76.4651 26.7983C76.7862 27.054 77.1697 27.1818 77.6157 27.1818C77.9737 27.1818 78.2918 27.098 78.5703 26.9304C78.8515 26.7628 79.0717 26.5327 79.2308 26.2401C79.3927 25.9446 79.4737 25.6108 79.4737 25.2386C79.4737 24.858 79.3899 24.5185 79.2222 24.2202C79.0575 23.919 78.8302 23.6818 78.5404 23.5085C78.2507 23.3352 77.9197 23.2472 77.5475 23.2443C77.2805 23.2415 77.0063 23.2827 76.7251 23.3679C76.4438 23.4503 76.2123 23.5568 76.0305 23.6875L75.0418 23.5682L75.5703 19.2727H80.1043V20.2102H76.4566L76.1498 22.7841H76.2009C76.3799 22.642 76.6043 22.5241 76.8742 22.4304C77.1441 22.3366 77.4254 22.2898 77.718 22.2898C78.2521 22.2898 78.7279 22.4176 79.1455 22.6733C79.566 22.9261 79.8955 23.2727 80.1342 23.7131C80.3757 24.1534 80.4964 24.6562 80.4964 25.2216C80.4964 25.7784 80.3714 26.2756 80.1214 26.7131C79.8742 27.1477 79.5333 27.4915 79.0987 27.7443C78.664 27.9943 78.1697 28.1193 77.6157 28.1193Z" fill="#0D1220"/>
<path d="M12 37H97.3333" stroke="url(#paint0_linear_40_766)" stroke-width="5" stroke-linecap="round"/>
<path d="M28.802 57V46.8182H32.2423C33.0411 46.8182 33.694 46.9624 34.2011 47.2507C34.7115 47.5357 35.0894 47.9219 35.3346 48.4091C35.5799 48.8963 35.7025 49.4399 35.7025 50.0398C35.7025 50.6397 35.5799 51.1849 35.3346 51.6754C35.0927 52.166 34.7182 52.5571 34.2111 52.8487C33.704 53.1371 33.0543 53.2812 32.2622 53.2812H29.7963V52.1875H32.2224C32.7693 52.1875 33.2085 52.093 33.5399 51.9041C33.8713 51.7152 34.1116 51.46 34.2608 51.1385C34.4132 50.8137 34.4895 50.4474 34.4895 50.0398C34.4895 49.6321 34.4132 49.2675 34.2608 48.946C34.1116 48.6245 33.8697 48.3726 33.5349 48.1903C33.2002 48.0047 32.756 47.9119 32.2025 47.9119H30.0349V57H28.802ZM37.5296 57V49.3636H38.6631V50.517H38.7427C38.8819 50.1392 39.1338 49.8326 39.4983 49.5973C39.8629 49.362 40.2739 49.2443 40.7313 49.2443C40.8175 49.2443 40.9252 49.246 41.0545 49.2493C41.1837 49.2526 41.2815 49.2576 41.3478 49.2642V50.4574C41.308 50.4474 41.2169 50.4325 41.0743 50.4126C40.9351 50.3894 40.7876 50.3778 40.6319 50.3778C40.2607 50.3778 39.9292 50.4557 39.6375 50.6115C39.3492 50.764 39.1205 50.9761 38.9515 51.2479C38.7857 51.5163 38.7029 51.8229 38.7029 52.1676V57H37.5296ZM45.6084 57.1591C44.919 57.1591 44.3142 56.995 43.7938 56.6669C43.2768 56.3388 42.8724 55.8797 42.5807 55.2898C42.2924 54.6998 42.1482 54.0104 42.1482 53.2216C42.1482 52.4261 42.2924 51.7318 42.5807 51.1385C42.8724 50.5452 43.2768 50.0845 43.7938 49.7564C44.3142 49.4283 44.919 49.2642 45.6084 49.2642C46.2978 49.2642 46.901 49.4283 47.4181 49.7564C47.9384 50.0845 48.3428 50.5452 48.6312 51.1385C48.9228 51.7318 49.0687 52.4261 49.0687 53.2216C49.0687 54.0104 48.9228 54.6998 48.6312 55.2898C48.3428 55.8797 47.9384 56.3388 47.4181 56.6669C46.901 56.995 46.2978 57.1591 45.6084 57.1591ZM45.6084 56.1051C46.1321 56.1051 46.563 55.9709 46.901 55.7024C47.2391 55.4339 47.4893 55.081 47.6518 54.6435C47.8142 54.206 47.8954 53.732 47.8954 53.2216C47.8954 52.7112 47.8142 52.2356 47.6518 51.7947C47.4893 51.3539 47.2391 50.9976 46.901 50.7259C46.563 50.4541 46.1321 50.3182 45.6084 50.3182C45.0848 50.3182 44.6539 50.4541 44.3158 50.7259C43.9777 50.9976 43.7275 51.3539 43.5651 51.7947C43.4027 52.2356 43.3215 52.7112 43.3215 53.2216C43.3215 53.732 43.4027 54.206 43.5651 54.6435C43.7275 55.081 43.9777 55.4339 44.3158 55.7024C44.6539 55.9709 45.0848 56.1051 45.6084 56.1051ZM54.1807 49.3636V50.358H50.2233V49.3636H54.1807ZM51.3767 47.5341H52.55V54.8125C52.55 55.1439 52.5981 55.3925 52.6942 55.5582C52.7936 55.7206 52.9196 55.83 53.072 55.8864C53.2278 55.9394 53.3919 55.9659 53.5642 55.9659C53.6935 55.9659 53.7995 55.9593 53.8824 55.946C53.9653 55.9295 54.0315 55.9162 54.0813 55.9062L54.3199 56.9602C54.2404 56.9901 54.1293 57.0199 53.9868 57.0497C53.8443 57.0829 53.6636 57.0994 53.4449 57.0994C53.1135 57.0994 52.7886 57.0282 52.4705 56.8857C52.1556 56.7431 51.8938 56.526 51.685 56.2344C51.4795 55.9427 51.3767 55.5748 51.3767 55.1307V47.5341ZM59.0653 57.1591C58.3295 57.1591 57.6948 56.9967 57.1612 56.6719C56.6309 56.3438 56.2215 55.8864 55.9332 55.2997C55.6481 54.7098 55.5056 54.0237 55.5056 53.2415C55.5056 52.4593 55.6481 51.7699 55.9332 51.1733C56.2215 50.5734 56.6226 50.1061 57.1363 49.7713C57.6534 49.4332 58.2566 49.2642 58.946 49.2642C59.3437 49.2642 59.7364 49.3305 60.1242 49.4631C60.512 49.5956 60.865 49.8111 61.1832 50.1094C61.5014 50.4044 61.7549 50.7955 61.9438 51.2827C62.1328 51.7699 62.2272 52.3698 62.2272 53.0824V53.5795H56.3409V52.5653H61.034C61.034 52.1345 60.9479 51.75 60.7755 51.4119C60.6065 51.0739 60.3645 50.8071 60.0497 50.6115C59.7381 50.416 59.3702 50.3182 58.946 50.3182C58.4786 50.3182 58.0743 50.4342 57.7329 50.6662C57.3948 50.8949 57.1346 51.1932 56.9524 51.5611C56.7701 51.929 56.6789 52.3234 56.6789 52.7443V53.4205C56.6789 53.9972 56.7784 54.486 56.9772 54.8871C57.1794 55.2848 57.4595 55.5881 57.8174 55.7969C58.1754 56.0024 58.5913 56.1051 59.0653 56.1051C59.3735 56.1051 59.6519 56.062 59.9005 55.9759C60.1524 55.8864 60.3695 55.7538 60.5518 55.5781C60.7341 55.3991 60.8749 55.1771 60.9744 54.9119L62.1079 55.2301C61.9886 55.6146 61.7881 55.9527 61.5063 56.2443C61.2246 56.5327 60.8766 56.758 60.4623 56.9205C60.048 57.0795 59.5823 57.1591 59.0653 57.1591ZM64.012 57V49.3636H65.1853V57H64.012ZM64.6086 48.0909C64.3799 48.0909 64.1827 48.013 64.017 47.8572C63.8546 47.7015 63.7734 47.5142 63.7734 47.2955C63.7734 47.0767 63.8546 46.8894 64.017 46.7337C64.1827 46.5779 64.3799 46.5 64.6086 46.5C64.8373 46.5 65.0328 46.5779 65.1953 46.7337C65.361 46.8894 65.4438 47.0767 65.4438 47.2955C65.4438 47.5142 65.361 47.7015 65.1953 47.8572C65.0328 48.013 64.8373 48.0909 64.6086 48.0909ZM68.5076 52.4062V57H67.3343V49.3636H68.4678V50.5568H68.5672C68.7462 50.169 69.018 49.8575 69.3826 49.6222C69.7472 49.3835 70.2178 49.2642 70.7945 49.2642C71.3116 49.2642 71.764 49.3703 72.1518 49.5824C72.5395 49.7912 72.8411 50.1094 73.0566 50.5369C73.272 50.9612 73.3797 51.4981 73.3797 52.1477V57H72.2064V52.2273C72.2064 51.6274 72.0507 51.16 71.7391 50.8253C71.4276 50.4872 71 50.3182 70.4564 50.3182C70.0819 50.3182 69.7472 50.3994 69.4522 50.5618C69.1605 50.7242 68.9302 50.9612 68.7611 51.2727C68.5921 51.5843 68.5076 51.9621 68.5076 52.4062ZM80.9328 51.0739L79.8788 51.3722C79.8126 51.1965 79.7148 51.0258 79.5855 50.8601C79.4596 50.6911 79.2872 50.5518 79.0685 50.4425C78.8497 50.3331 78.5697 50.2784 78.2283 50.2784C77.761 50.2784 77.3715 50.3861 77.06 50.6016C76.7517 50.8137 76.5976 51.0838 76.5976 51.4119C76.5976 51.7036 76.7037 51.9339 76.9158 52.103C77.1279 52.272 77.4593 52.4129 77.9101 52.5256L79.0436 52.804C79.7264 52.9697 80.2351 53.2232 80.5699 53.5646C80.9047 53.9027 81.072 54.3385 81.072 54.8722C81.072 55.3097 80.9461 55.7008 80.6942 56.0455C80.4456 56.3902 80.0976 56.6619 79.6502 56.8608C79.2027 57.0597 78.6824 57.1591 78.0891 57.1591C77.3102 57.1591 76.6655 56.9901 76.1551 56.652C75.6447 56.3139 75.3216 55.8201 75.1857 55.1705L76.2993 54.892C76.4054 55.303 76.6059 55.6113 76.9009 55.8168C77.1992 56.0223 77.5886 56.125 78.0692 56.125C78.6161 56.125 79.0503 56.009 79.3717 55.777C79.6966 55.5417 79.859 55.2599 79.859 54.9318C79.859 54.6667 79.7662 54.4446 79.5806 54.2656C79.3949 54.0833 79.1099 53.9474 78.7254 53.858L77.4527 53.5597C76.7534 53.3939 76.2396 53.1371 75.9115 52.7891C75.5867 52.4377 75.4243 51.9986 75.4243 51.4716C75.4243 51.0407 75.5453 50.6596 75.7872 50.3281C76.0325 49.9967 76.3656 49.7365 76.7865 49.5476C77.2108 49.3587 77.6913 49.2642 78.2283 49.2642C78.984 49.2642 79.5772 49.4299 80.0081 49.7614C80.4423 50.0928 80.7505 50.5303 80.9328 51.0739Z" fill="#0D1220"/>
<path d="M145.493 28.1193C144.93 28.1193 144.429 28.0227 143.989 27.8295C143.551 27.6364 143.203 27.3679 142.945 27.0241C142.689 26.6776 142.55 26.2756 142.527 25.8182H143.601C143.624 26.0994 143.72 26.3423 143.891 26.5469C144.061 26.7486 144.284 26.9048 144.56 27.0156C144.835 27.1264 145.141 27.1818 145.476 27.1818C145.851 27.1818 146.183 27.1165 146.473 26.9858C146.763 26.8551 146.99 26.6733 147.155 26.4403C147.32 26.2074 147.402 25.9375 147.402 25.6307C147.402 25.3097 147.322 25.027 147.163 24.7827C147.004 24.5355 146.771 24.3423 146.464 24.2031C146.158 24.0639 145.783 23.9943 145.339 23.9943H144.641V23.0568H145.339C145.686 23.0568 145.99 22.9943 146.251 22.8693C146.516 22.7443 146.722 22.5682 146.869 22.3409C147.02 22.1136 147.095 21.8466 147.095 21.5398C147.095 21.2443 147.03 20.9872 146.899 20.7685C146.768 20.5497 146.584 20.3793 146.345 20.2571C146.109 20.1349 145.831 20.0739 145.51 20.0739C145.209 20.0739 144.925 20.1293 144.658 20.2401C144.393 20.348 144.178 20.5057 144.01 20.7131C143.842 20.9176 143.751 21.1648 143.737 21.4545H142.714C142.732 20.9972 142.869 20.5966 143.128 20.2528C143.386 19.9062 143.724 19.6364 144.142 19.4432C144.563 19.25 145.024 19.1534 145.527 19.1534C146.067 19.1534 146.53 19.2628 146.916 19.4815C147.303 19.6974 147.599 19.983 147.807 20.3381C148.014 20.6932 148.118 21.0767 148.118 21.4886C148.118 21.9801 147.989 22.3991 147.73 22.7457C147.474 23.0923 147.126 23.3324 146.686 23.4659V23.5341C147.237 23.625 147.668 23.8594 147.977 24.2372C148.287 24.6122 148.442 25.0767 148.442 25.6307C148.442 26.1051 148.313 26.5312 148.054 26.9091C147.798 27.2841 147.449 27.5795 147.006 27.7955C146.563 28.0114 146.058 28.1193 145.493 28.1193ZM153.031 28.1193C152.389 28.1193 151.842 27.9446 151.391 27.5952C150.939 27.2429 150.594 26.733 150.355 26.0653C150.116 25.3949 149.997 24.5852 149.997 23.6364C149.997 22.6932 150.116 21.8878 150.355 21.2202C150.597 20.5497 150.943 20.0384 151.395 19.6861C151.849 19.331 152.395 19.1534 153.031 19.1534C153.668 19.1534 154.212 19.331 154.663 19.6861C155.118 20.0384 155.464 20.5497 155.703 21.2202C155.945 21.8878 156.065 22.6932 156.065 23.6364C156.065 24.5852 155.946 25.3949 155.707 26.0653C155.469 26.733 155.124 27.2429 154.672 27.5952C154.22 27.9446 153.673 28.1193 153.031 28.1193ZM153.031 27.1818C153.668 27.1818 154.162 26.875 154.514 26.2614C154.866 25.6477 155.043 24.7727 155.043 23.6364C155.043 22.8807 154.962 22.2372 154.8 21.706C154.641 21.1747 154.411 20.7699 154.109 20.4915C153.811 20.2131 153.452 20.0739 153.031 20.0739C152.401 20.0739 151.908 20.3849 151.553 21.0071C151.197 21.6264 151.02 22.5028 151.02 23.6364C151.02 24.392 151.099 25.0341 151.259 25.5625C151.418 26.0909 151.646 26.4929 151.945 26.7685C152.246 27.044 152.608 27.1818 153.031 27.1818ZM164.162 18.8636L161.349 29.3125H160.429L163.241 18.8636H164.162ZM171.78 19.2727V28H170.723V20.3807H170.672L168.542 21.7955V20.7216L170.723 19.2727H171.78ZM177.358 19.2727V28H176.301V20.3807H176.25L174.12 21.7955V20.7216L176.301 19.2727H177.358ZM182.664 28.1193C182.078 28.1193 181.561 28.0156 181.113 27.8082C180.667 27.598 180.319 27.3097 180.069 26.9432C179.819 26.5739 179.695 26.1534 179.698 25.6818C179.695 25.3125 179.767 24.9716 179.915 24.6591C180.063 24.3437 180.265 24.081 180.52 23.8707C180.779 23.6577 181.067 23.5227 181.385 23.4659V23.4148C180.968 23.3068 180.635 23.0724 180.388 22.7116C180.141 22.348 180.019 21.9347 180.022 21.4716C180.019 21.0284 180.131 20.6321 180.358 20.2827C180.586 19.9332 180.898 19.6577 181.296 19.456C181.696 19.2543 182.152 19.1534 182.664 19.1534C183.169 19.1534 183.621 19.2543 184.019 19.456C184.417 19.6577 184.729 19.9332 184.956 20.2827C185.186 20.6321 185.303 21.0284 185.306 21.4716C185.303 21.9347 185.176 22.348 184.926 22.7116C184.679 23.0724 184.351 23.3068 183.942 23.4148V23.4659C184.257 23.5227 184.542 23.6577 184.794 23.8707C185.047 24.081 185.249 24.3437 185.4 24.6591C185.55 24.9716 185.627 25.3125 185.63 25.6818C185.627 26.1534 185.499 26.5739 185.246 26.9432C184.996 27.3097 184.648 27.598 184.202 27.8082C183.759 28.0156 183.246 28.1193 182.664 28.1193ZM182.664 27.1818C183.059 27.1818 183.4 27.1179 183.686 26.9901C183.973 26.8622 184.195 26.6818 184.351 26.4489C184.507 26.2159 184.587 25.9432 184.59 25.6307C184.587 25.3011 184.502 25.0099 184.334 24.7571C184.167 24.5043 183.938 24.3054 183.648 24.1605C183.361 24.0156 183.033 23.9432 182.664 23.9432C182.292 23.9432 181.959 24.0156 181.667 24.1605C181.377 24.3054 181.148 24.5043 180.98 24.7571C180.816 25.0099 180.735 25.3011 180.738 25.6307C180.735 25.9432 180.81 26.2159 180.963 26.4489C181.12 26.6818 181.343 26.8622 181.632 26.9901C181.922 27.1179 182.266 27.1818 182.664 27.1818ZM182.664 23.0398C182.976 23.0398 183.253 22.9773 183.495 22.8523C183.739 22.7273 183.931 22.5526 184.07 22.3281C184.209 22.1037 184.28 21.8409 184.283 21.5398C184.28 21.2443 184.211 20.9872 184.074 20.7685C183.938 20.5469 183.749 20.3764 183.507 20.2571C183.266 20.1349 182.985 20.0739 182.664 20.0739C182.337 20.0739 182.051 20.1349 181.807 20.2571C181.563 20.3764 181.374 20.5469 181.24 20.7685C181.107 20.9872 181.042 21.2443 181.044 21.5398C181.042 21.8409 181.108 22.1037 181.245 22.3281C181.384 22.5526 181.576 22.7273 181.82 22.8523C182.064 22.9773 182.346 23.0398 182.664 23.0398Z" fill="#0D1220"/>
<path d="M121.333 37H206.667" stroke="url(#paint1_linear_40_766)" stroke-width="5" stroke-linecap="round"/>
<path d="M151.048 57V46.8182H157.154V47.9119H152.281V51.3523H156.696V52.446H152.281V57H151.048ZM161.353 57.179C160.869 57.179 160.43 57.0878 160.036 56.9055C159.641 56.7199 159.328 56.4531 159.096 56.1051C158.864 55.7538 158.748 55.3295 158.748 54.8324C158.748 54.3949 158.834 54.0402 159.007 53.7685C159.179 53.4934 159.409 53.2779 159.698 53.1222C159.986 52.9664 160.304 52.8504 160.652 52.7741C161.004 52.6946 161.357 52.6316 161.711 52.5852C162.175 52.5256 162.551 52.4808 162.84 52.451C163.131 52.4179 163.344 52.3632 163.476 52.2869C163.612 52.2107 163.68 52.0781 163.68 51.8892V51.8494C163.68 51.3589 163.546 50.9777 163.277 50.706C163.012 50.4342 162.609 50.2983 162.069 50.2983C161.509 50.2983 161.07 50.4209 160.752 50.6662C160.434 50.9115 160.21 51.1733 160.081 51.4517L158.967 51.054C159.166 50.59 159.431 50.2287 159.762 49.9702C160.097 49.7083 160.462 49.526 160.856 49.4233C161.254 49.3172 161.645 49.2642 162.029 49.2642C162.275 49.2642 162.556 49.294 162.875 49.3537C163.196 49.41 163.506 49.5277 163.804 49.7067C164.106 49.8857 164.356 50.1558 164.555 50.517C164.754 50.8783 164.853 51.3622 164.853 51.9688V57H163.68V55.9659H163.62C163.541 56.1316 163.408 56.3089 163.223 56.4979C163.037 56.6868 162.79 56.8475 162.482 56.9801C162.174 57.1127 161.797 57.179 161.353 57.179ZM161.532 56.125C161.996 56.125 162.387 56.0339 162.706 55.8516C163.027 55.6693 163.269 55.4339 163.431 55.1456C163.597 54.8572 163.68 54.554 163.68 54.2358V53.1619C163.63 53.2216 163.521 53.2763 163.352 53.326C163.186 53.3724 162.994 53.4138 162.775 53.4503C162.56 53.4834 162.349 53.5133 162.144 53.5398C161.942 53.563 161.777 53.5829 161.652 53.5994C161.347 53.6392 161.062 53.7038 160.796 53.7933C160.535 53.8795 160.322 54.0104 160.16 54.1861C160.001 54.3584 159.921 54.5937 159.921 54.892C159.921 55.2997 160.072 55.608 160.374 55.8168C160.679 56.0223 161.065 56.125 161.532 56.125ZM170.316 49.3636V50.358H166.358V49.3636H170.316ZM167.512 47.5341H168.685V54.8125C168.685 55.1439 168.733 55.3925 168.829 55.5582C168.929 55.7206 169.055 55.83 169.207 55.8864C169.363 55.9394 169.527 55.9659 169.699 55.9659C169.829 55.9659 169.935 55.9593 170.017 55.946C170.1 55.9295 170.167 55.9162 170.216 55.9062L170.455 56.9602C170.375 56.9901 170.264 57.0199 170.122 57.0497C169.979 57.0829 169.799 57.0994 169.58 57.0994C169.249 57.0994 168.924 57.0282 168.606 56.8857C168.291 56.7431 168.029 56.526 167.82 56.2344C167.615 55.9427 167.512 55.5748 167.512 55.1307V47.5341ZM177.353 51.0739L176.299 51.3722C176.233 51.1965 176.135 51.0258 176.006 50.8601C175.88 50.6911 175.707 50.5518 175.489 50.4425C175.27 50.3331 174.99 50.2784 174.649 50.2784C174.181 50.2784 173.792 50.3861 173.48 50.6016C173.172 50.8137 173.018 51.0838 173.018 51.4119C173.018 51.7036 173.124 51.9339 173.336 52.103C173.548 52.272 173.88 52.4129 174.33 52.5256L175.464 52.804C176.147 52.9697 176.655 53.2232 176.99 53.5646C177.325 53.9027 177.492 54.3385 177.492 54.8722C177.492 55.3097 177.366 55.7008 177.114 56.0455C176.866 56.3902 176.518 56.6619 176.07 56.8608C175.623 57.0597 175.103 57.1591 174.509 57.1591C173.73 57.1591 173.086 56.9901 172.575 56.652C172.065 56.3139 171.742 55.8201 171.606 55.1705L172.72 54.892C172.826 55.303 173.026 55.6113 173.321 55.8168C173.619 56.0223 174.009 56.125 174.489 56.125C175.036 56.125 175.471 56.009 175.792 55.777C176.117 55.5417 176.279 55.2599 176.279 54.9318C176.279 54.6667 176.186 54.4446 176.001 54.2656C175.815 54.0833 175.53 53.9474 175.146 53.858L173.873 53.5597C173.174 53.3939 172.66 53.1371 172.332 52.7891C172.007 52.4377 171.845 51.9986 171.845 51.4716C171.845 51.0407 171.966 50.6596 172.207 50.3281C172.453 49.9967 172.786 49.7365 173.207 49.5476C173.631 49.3587 174.112 49.2642 174.649 49.2642C175.404 49.2642 175.997 49.4299 176.428 49.7614C176.863 50.0928 177.171 50.5303 177.353 51.0739Z" fill="#0D1220"/>
<path d="M249.898 28.1193C249.336 28.1193 248.835 28.0227 248.394 27.8295C247.957 27.6364 247.609 27.3679 247.35 27.0241C247.094 26.6776 246.955 26.2756 246.933 25.8182H248.006C248.029 26.0994 248.126 26.3423 248.296 26.5469C248.467 26.7486 248.69 26.9048 248.965 27.0156C249.241 27.1264 249.546 27.1818 249.881 27.1818C250.256 27.1818 250.589 27.1165 250.879 26.9858C251.168 26.8551 251.396 26.6733 251.56 26.4403C251.725 26.2074 251.808 25.9375 251.808 25.6307C251.808 25.3097 251.728 25.027 251.569 24.7827C251.41 24.5355 251.177 24.3423 250.87 24.2031C250.563 24.0639 250.188 23.9943 249.745 23.9943H249.046V23.0568H249.745C250.092 23.0568 250.396 22.9943 250.657 22.8693C250.921 22.7443 251.127 22.5682 251.275 22.3409C251.425 22.1136 251.501 21.8466 251.501 21.5398C251.501 21.2443 251.435 20.9872 251.305 20.7685C251.174 20.5497 250.989 20.3793 250.751 20.2571C250.515 20.1349 250.237 20.0739 249.916 20.0739C249.614 20.0739 249.33 20.1293 249.063 20.2401C248.799 20.348 248.583 20.5057 248.416 20.7131C248.248 20.9176 248.157 21.1648 248.143 21.4545H247.12C247.137 20.9972 247.275 20.5966 247.533 20.2528C247.792 19.9062 248.13 19.6364 248.548 19.4432C248.968 19.25 249.43 19.1534 249.933 19.1534C250.472 19.1534 250.935 19.2628 251.322 19.4815C251.708 19.6974 252.005 19.983 252.212 20.3381C252.42 20.6932 252.523 21.0767 252.523 21.4886C252.523 21.9801 252.394 22.3991 252.136 22.7457C251.88 23.0923 251.532 23.3324 251.092 23.4659V23.5341C251.643 23.625 252.073 23.8594 252.383 24.2372C252.693 24.6122 252.847 25.0767 252.847 25.6307C252.847 26.1051 252.718 26.5312 252.46 26.9091C252.204 27.2841 251.854 27.5795 251.411 27.7955C250.968 28.0114 250.464 28.1193 249.898 28.1193ZM257.658 19.2727V28H256.602V20.3807H256.55L254.42 21.7955V20.7216L256.602 19.2727H257.658ZM262.947 19.1534C263.305 19.1562 263.663 19.2244 264.021 19.358C264.379 19.4915 264.705 19.7131 265.001 20.0227C265.296 20.3295 265.533 20.7486 265.712 21.2798C265.891 21.8111 265.981 22.4773 265.981 23.2784C265.981 24.054 265.907 24.7429 265.759 25.3452C265.614 25.9446 265.404 26.4503 265.129 26.8622C264.856 27.2741 264.523 27.5866 264.131 27.7997C263.742 28.0128 263.302 28.1193 262.81 28.1193C262.322 28.1193 261.886 28.0227 261.502 27.8295C261.121 27.6335 260.809 27.3622 260.565 27.0156C260.323 26.6662 260.168 26.2614 260.1 25.8011H261.14C261.234 26.2017 261.42 26.5327 261.698 26.794C261.979 27.0526 262.35 27.1818 262.81 27.1818C263.484 27.1818 264.015 26.8878 264.404 26.2997C264.796 25.7116 264.992 24.8807 264.992 23.8068H264.924C264.765 24.0455 264.576 24.2514 264.357 24.4247C264.139 24.598 263.896 24.7315 263.629 24.8253C263.362 24.919 263.077 24.9659 262.776 24.9659C262.276 24.9659 261.818 24.8423 261.4 24.5952C260.985 24.3452 260.653 24.0028 260.403 23.5682C260.156 23.1307 260.032 22.6307 260.032 22.0682C260.032 21.5341 260.151 21.0455 260.39 20.6023C260.631 20.1562 260.969 19.8011 261.404 19.5369C261.842 19.2727 262.356 19.1449 262.947 19.1534ZM262.947 20.0909C262.589 20.0909 262.266 20.1804 261.979 20.3594C261.695 20.5355 261.469 20.7741 261.302 21.0753C261.137 21.3736 261.055 21.7045 261.055 22.0682C261.055 22.4318 261.134 22.7628 261.293 23.0611C261.455 23.3565 261.675 23.5923 261.954 23.7685C262.235 23.9418 262.555 24.0284 262.913 24.0284C263.183 24.0284 263.434 23.9759 263.667 23.8707C263.9 23.7628 264.103 23.6165 264.276 23.4318C264.452 23.2443 264.59 23.0327 264.69 22.7969C264.789 22.5582 264.839 22.3097 264.839 22.0511C264.839 21.7102 264.756 21.3906 264.592 21.0923C264.43 20.794 264.205 20.5526 263.918 20.3679C263.634 20.1832 263.31 20.0909 262.947 20.0909ZM274.134 18.8636L271.321 29.3125H270.401L273.213 18.8636H274.134ZM281.633 28.1193C281.07 28.1193 280.569 28.0227 280.129 27.8295C279.691 27.6364 279.343 27.3679 279.085 27.0241C278.829 26.6776 278.69 26.2756 278.667 25.8182H279.741C279.764 26.0994 279.86 26.3423 280.031 26.5469C280.201 26.7486 280.424 26.9048 280.7 27.0156C280.975 27.1264 281.281 27.1818 281.616 27.1818C281.991 27.1818 282.323 27.1165 282.613 26.9858C282.903 26.8551 283.13 26.6733 283.295 26.4403C283.46 26.2074 283.542 25.9375 283.542 25.6307C283.542 25.3097 283.462 25.027 283.303 24.7827C283.144 24.5355 282.911 24.3423 282.604 24.2031C282.298 24.0639 281.923 23.9943 281.479 23.9943H280.781V23.0568H281.479C281.826 23.0568 282.13 22.9943 282.391 22.8693C282.656 22.7443 282.862 22.5682 283.009 22.3409C283.16 22.1136 283.235 21.8466 283.235 21.5398C283.235 21.2443 283.17 20.9872 283.039 20.7685C282.908 20.5497 282.724 20.3793 282.485 20.2571C282.249 20.1349 281.971 20.0739 281.65 20.0739C281.349 20.0739 281.065 20.1293 280.798 20.2401C280.533 20.348 280.318 20.5057 280.15 20.7131C279.982 20.9176 279.891 21.1648 279.877 21.4545H278.854C278.871 20.9972 279.009 20.5966 279.268 20.2528C279.526 19.9062 279.864 19.6364 280.282 19.4432C280.702 19.25 281.164 19.1534 281.667 19.1534C282.207 19.1534 282.67 19.2628 283.056 19.4815C283.443 19.6974 283.739 19.983 283.947 20.3381C284.154 20.6932 284.258 21.0767 284.258 21.4886C284.258 21.9801 284.129 22.3991 283.87 22.7457C283.614 23.0923 283.266 23.3324 282.826 23.4659V23.5341C283.377 23.625 283.808 23.8594 284.117 24.2372C284.427 24.6122 284.582 25.0767 284.582 25.6307C284.582 26.1051 284.452 26.5312 284.194 26.9091C283.938 27.2841 283.589 27.5795 283.146 27.7955C282.702 28.0114 282.198 28.1193 281.633 28.1193ZM286.12 26.2102V25.3409L289.955 19.2727H290.586V20.6193H290.16L287.262 25.2045V25.2727H292.427V26.2102H286.12ZM290.228 28V25.946V25.5412V19.2727H291.234V28H290.228ZM296.87 28.1193C296.228 28.1193 295.682 27.9446 295.23 27.5952C294.778 27.2429 294.433 26.733 294.194 26.0653C293.956 25.3949 293.836 24.5852 293.836 23.6364C293.836 22.6932 293.956 21.8878 294.194 21.2202C294.436 20.5497 294.782 20.0384 295.234 19.6861C295.689 19.331 296.234 19.1534 296.87 19.1534C297.507 19.1534 298.051 19.331 298.503 19.6861C298.957 20.0384 299.304 20.5497 299.542 21.2202C299.784 21.8878 299.905 22.6932 299.905 23.6364C299.905 24.5852 299.785 25.3949 299.547 26.0653C299.308 26.733 298.963 27.2429 298.511 27.5952C298.059 27.9446 297.512 28.1193 296.87 28.1193ZM296.87 27.1818C297.507 27.1818 298.001 26.875 298.353 26.2614C298.706 25.6477 298.882 24.7727 298.882 23.6364C298.882 22.8807 298.801 22.2372 298.639 21.706C298.48 21.1747 298.25 20.7699 297.949 20.4915C297.65 20.2131 297.291 20.0739 296.87 20.0739C296.24 20.0739 295.747 20.3849 295.392 21.0071C295.037 21.6264 294.859 22.5028 294.859 23.6364C294.859 24.392 294.939 25.0341 295.098 25.5625C295.257 26.0909 295.485 26.4929 295.784 26.7685C296.085 27.044 296.447 27.1818 296.87 27.1818Z" fill="#0D1220"/>
<path d="M230.667 37H316" stroke="url(#paint2_linear_40_766)" stroke-width="5" stroke-linecap="round"/>
<path d="M263.113 50H261.88C261.807 49.6454 261.679 49.3338 261.497 49.0653C261.318 48.7969 261.099 48.5715 260.841 48.3892C260.586 48.2036 260.302 48.0644 259.991 47.9716C259.679 47.8788 259.354 47.8324 259.016 47.8324C258.4 47.8324 257.841 47.9882 257.341 48.2997C256.844 48.6113 256.448 49.0703 256.153 49.6768C255.861 50.2834 255.715 51.0275 255.715 51.9091C255.715 52.7907 255.861 53.5348 256.153 54.1413C256.448 54.7479 256.844 55.2069 257.341 55.5185C257.841 55.83 258.4 55.9858 259.016 55.9858C259.354 55.9858 259.679 55.9394 259.991 55.8466C260.302 55.7538 260.586 55.6162 260.841 55.4339C261.099 55.2483 261.318 55.0213 261.497 54.7528C261.679 54.4811 261.807 54.1695 261.88 53.8182H263.113C263.02 54.3385 262.851 54.8042 262.606 55.2152C262.361 55.6262 262.056 55.9759 261.691 56.2642C261.327 56.5492 260.917 56.7663 260.463 56.9155C260.012 57.0646 259.53 57.1392 259.016 57.1392C258.148 57.1392 257.376 56.9271 256.7 56.5028C256.023 56.0786 255.492 55.4754 255.104 54.6932C254.716 53.911 254.522 52.983 254.522 51.9091C254.522 50.8352 254.716 49.9072 255.104 49.125C255.492 48.3428 256.023 47.7396 256.7 47.3153C257.376 46.8911 258.148 46.679 259.016 46.679C259.53 46.679 260.012 46.7536 260.463 46.9027C260.917 47.0518 261.327 47.2706 261.691 47.5589C262.056 47.844 262.361 48.192 262.606 48.603C262.851 49.0107 263.02 49.4763 263.113 50ZM267.193 57.179C266.71 57.179 266.27 57.0878 265.876 56.9055C265.482 56.7199 265.168 56.4531 264.936 56.1051C264.704 55.7538 264.588 55.3295 264.588 54.8324C264.588 54.3949 264.674 54.0402 264.847 53.7685C265.019 53.4934 265.25 53.2779 265.538 53.1222C265.826 52.9664 266.144 52.8504 266.492 52.7741C266.844 52.6946 267.197 52.6316 267.551 52.5852C268.015 52.5256 268.392 52.4808 268.68 52.451C268.972 52.4179 269.184 52.3632 269.316 52.2869C269.452 52.2107 269.52 52.0781 269.52 51.8892V51.8494C269.52 51.3589 269.386 50.9777 269.117 50.706C268.852 50.4342 268.45 50.2983 267.909 50.2983C267.349 50.2983 266.91 50.4209 266.592 50.6662C266.274 50.9115 266.05 51.1733 265.921 51.4517L264.807 51.054C265.006 50.59 265.271 50.2287 265.602 49.9702C265.937 49.7083 266.302 49.526 266.696 49.4233C267.094 49.3172 267.485 49.2642 267.87 49.2642C268.115 49.2642 268.397 49.294 268.715 49.3537C269.036 49.41 269.346 49.5277 269.644 49.7067C269.946 49.8857 270.196 50.1558 270.395 50.517C270.594 50.8783 270.693 51.3622 270.693 51.9688V57H269.52V55.9659H269.46C269.381 56.1316 269.248 56.3089 269.063 56.4979C268.877 56.6868 268.63 56.8475 268.322 56.9801C268.014 57.1127 267.638 57.179 267.193 57.179ZM267.372 56.125C267.836 56.125 268.227 56.0339 268.546 55.8516C268.867 55.6693 269.109 55.4339 269.272 55.1456C269.437 54.8572 269.52 54.554 269.52 54.2358V53.1619C269.47 53.2216 269.361 53.2763 269.192 53.326C269.026 53.3724 268.834 53.4138 268.615 53.4503C268.4 53.4834 268.189 53.5133 267.984 53.5398C267.782 53.563 267.618 53.5829 267.492 53.5994C267.187 53.6392 266.902 53.7038 266.637 53.7933C266.375 53.8795 266.163 54.0104 266 54.1861C265.841 54.3584 265.762 54.5937 265.762 54.892C265.762 55.2997 265.912 55.608 266.214 55.8168C266.519 56.0223 266.905 56.125 267.372 56.125ZM272.835 57V49.3636H273.968V50.517H274.048C274.187 50.1392 274.439 49.8326 274.804 49.5973C275.168 49.362 275.579 49.2443 276.037 49.2443C276.123 49.2443 276.231 49.246 276.36 49.2493C276.489 49.2526 276.587 49.2576 276.653 49.2642V50.4574C276.613 50.4474 276.522 50.4325 276.38 50.4126C276.24 50.3894 276.093 50.3778 275.937 50.3778C275.566 50.3778 275.235 50.4557 274.943 50.6115C274.655 50.764 274.426 50.9761 274.257 51.2479C274.091 51.5163 274.008 51.8229 274.008 52.1676V57H272.835ZM278.203 57V46.8182H279.376V50.5767H279.476C279.562 50.4441 279.681 50.2751 279.834 50.0696C279.989 49.8608 280.212 49.6752 280.5 49.5128C280.792 49.3471 281.186 49.2642 281.683 49.2642C282.326 49.2642 282.893 49.425 283.383 49.7464C283.874 50.0679 284.257 50.5237 284.532 51.1136C284.807 51.7036 284.944 52.3996 284.944 53.2017C284.944 54.0104 284.807 54.7114 284.532 55.3047C284.257 55.8946 283.876 56.352 283.388 56.6768C282.901 56.9983 282.339 57.1591 281.703 57.1591C281.212 57.1591 280.82 57.0779 280.525 56.9155C280.23 56.7498 280.003 56.5625 279.844 56.3537C279.685 56.1416 279.562 55.9659 279.476 55.8267H279.337V57H278.203ZM279.356 53.1818C279.356 53.7585 279.441 54.2673 279.61 54.7081C279.779 55.1456 280.026 55.4886 280.351 55.7372C280.676 55.9825 281.073 56.1051 281.544 56.1051C282.034 56.1051 282.444 55.9759 282.772 55.7173C283.103 55.4555 283.352 55.1042 283.518 54.6634C283.687 54.2192 283.771 53.7254 283.771 53.1818C283.771 52.6449 283.688 52.161 283.523 51.7301C283.36 51.2959 283.113 50.9529 282.782 50.701C282.454 50.4458 282.041 50.3182 281.544 50.3182C281.067 50.3182 280.666 50.4392 280.341 50.6811C280.016 50.9197 279.771 51.2545 279.605 51.6854C279.439 52.1129 279.356 52.6117 279.356 53.1818ZM292.148 51.0739L291.094 51.3722C291.028 51.1965 290.93 51.0258 290.801 50.8601C290.675 50.6911 290.503 50.5518 290.284 50.4425C290.065 50.3331 289.785 50.2784 289.444 50.2784C288.976 50.2784 288.587 50.3861 288.275 50.6016C287.967 50.8137 287.813 51.0838 287.813 51.4119C287.813 51.7036 287.919 51.9339 288.131 52.103C288.343 52.272 288.675 52.4129 289.126 52.5256L290.259 52.804C290.942 52.9697 291.451 53.2232 291.785 53.5646C292.12 53.9027 292.288 54.3385 292.288 54.8722C292.288 55.3097 292.162 55.7008 291.91 56.0455C291.661 56.3902 291.313 56.6619 290.866 56.8608C290.418 57.0597 289.898 57.1591 289.305 57.1591C288.526 57.1591 287.881 56.9901 287.371 56.652C286.86 56.3139 286.537 55.8201 286.401 55.1705L287.515 54.892C287.621 55.303 287.821 55.6113 288.116 55.8168C288.415 56.0223 288.804 56.125 289.285 56.125C289.832 56.125 290.266 56.009 290.587 55.777C290.912 55.5417 291.074 55.2599 291.074 54.9318C291.074 54.6667 290.982 54.4446 290.796 54.2656C290.61 54.0833 290.325 53.9474 289.941 53.858L288.668 53.5597C287.969 53.3939 287.455 53.1371 287.127 52.7891C286.802 52.4377 286.64 51.9986 286.64 51.4716C286.64 51.0407 286.761 50.6596 287.003 50.3281C287.248 49.9967 287.581 49.7365 288.002 49.5476C288.426 49.3587 288.907 49.2642 289.444 49.2642C290.199 49.2642 290.793 49.4299 291.224 49.7614C291.658 50.0928 291.966 50.5303 292.148 51.0739Z" fill="#0D1220"/>
<path d="M129.437 96V95.233L132.317 92.0795C132.655 91.7102 132.934 91.3892 133.153 91.1165C133.371 90.8409 133.533 90.5824 133.638 90.3409C133.746 90.0966 133.8 89.8409 133.8 89.5739C133.8 89.267 133.726 89.0014 133.579 88.777C133.434 88.5526 133.235 88.3793 132.982 88.2571C132.729 88.1349 132.445 88.0739 132.13 88.0739C131.795 88.0739 131.502 88.1435 131.252 88.2827C131.005 88.419 130.813 88.6108 130.677 88.858C130.543 89.1051 130.476 89.3949 130.476 89.7273H129.471C129.471 89.2159 129.589 88.767 129.824 88.3807C130.06 87.9943 130.381 87.6932 130.787 87.4773C131.197 87.2614 131.655 87.1534 132.164 87.1534C132.675 87.1534 133.128 87.2614 133.523 87.4773C133.918 87.6932 134.228 87.9844 134.452 88.3509C134.677 88.7173 134.789 89.125 134.789 89.5739C134.789 89.8949 134.731 90.2088 134.614 90.5156C134.501 90.8196 134.302 91.1591 134.018 91.5341C133.736 91.9062 133.346 92.3608 132.846 92.8977L130.885 94.9943V95.0625H134.942V96H129.437ZM136.31 94.2102V93.3409L140.145 87.2727H140.776V88.6193H140.35L137.452 93.2045V93.2727H142.617V94.2102H136.31ZM140.418 96V93.946V93.5412V87.2727H141.424V96H140.418ZM146.941 96.1193C146.441 96.1193 145.991 96.0199 145.59 95.821C145.19 95.6222 144.869 95.3494 144.627 95.0028C144.386 94.6562 144.254 94.2614 144.231 93.8182H145.254C145.294 94.2131 145.472 94.5398 145.791 94.7983C146.112 95.054 146.495 95.1818 146.941 95.1818C147.299 95.1818 147.617 95.098 147.896 94.9304C148.177 94.7628 148.397 94.5327 148.556 94.2401C148.718 93.9446 148.799 93.6108 148.799 93.2386C148.799 92.858 148.715 92.5185 148.548 92.2202C148.383 91.919 148.156 91.6818 147.866 91.5085C147.576 91.3352 147.245 91.2472 146.873 91.2443C146.606 91.2415 146.332 91.2827 146.051 91.3679C145.769 91.4503 145.538 91.5568 145.356 91.6875L144.367 91.5682L144.896 87.2727H149.43V88.2102H145.782L145.475 90.7841H145.526C145.705 90.642 145.93 90.5241 146.2 90.4304C146.47 90.3366 146.751 90.2898 147.044 90.2898C147.578 90.2898 148.053 90.4176 148.471 90.6733C148.892 90.9261 149.221 91.2727 149.46 91.7131C149.701 92.1534 149.822 92.6562 149.822 93.2216C149.822 93.7784 149.697 94.2756 149.447 94.7131C149.2 95.1477 148.859 95.4915 148.424 95.7443C147.99 95.9943 147.495 96.1193 146.941 96.1193ZM154.412 96.1193C154.055 96.1136 153.697 96.0455 153.339 95.9148C152.981 95.7841 152.654 95.5639 152.358 95.2543C152.063 94.9418 151.826 94.5199 151.647 93.9886C151.468 93.4545 151.378 92.7841 151.378 91.9773C151.378 91.2045 151.451 90.5199 151.596 89.9233C151.741 89.3239 151.951 88.8196 152.226 88.4105C152.502 87.9986 152.834 87.6861 153.224 87.473C153.616 87.2599 154.057 87.1534 154.549 87.1534C155.037 87.1534 155.472 87.2514 155.853 87.4474C156.236 87.6406 156.549 87.9105 156.79 88.2571C157.032 88.6037 157.188 89.0028 157.259 89.4545H156.219C156.123 89.0625 155.935 88.7372 155.657 88.4787C155.378 88.2202 155.009 88.0909 154.549 88.0909C153.873 88.0909 153.34 88.3849 152.951 88.973C152.564 89.5611 152.37 90.3864 152.367 91.4489H152.435C152.594 91.2074 152.783 91.0014 153.002 90.831C153.224 90.6577 153.468 90.5241 153.735 90.4304C154.002 90.3366 154.285 90.2898 154.583 90.2898C155.083 90.2898 155.54 90.4148 155.955 90.6648C156.37 90.9119 156.702 91.2543 156.952 91.6918C157.202 92.1264 157.327 92.625 157.327 93.1875C157.327 93.7273 157.206 94.2216 156.965 94.6705C156.724 95.1165 156.384 95.4716 155.947 95.7358C155.512 95.9972 155.001 96.125 154.412 96.1193ZM154.412 95.1818C154.77 95.1818 155.091 95.0923 155.376 94.9134C155.662 94.7344 155.888 94.4943 156.053 94.1932C156.221 93.892 156.305 93.5568 156.305 93.1875C156.305 92.8267 156.224 92.4986 156.062 92.2031C155.903 91.9048 155.682 91.6676 155.401 91.4915C155.123 91.3153 154.805 91.2273 154.447 91.2273C154.177 91.2273 153.925 91.2812 153.692 91.3892C153.459 91.4943 153.255 91.6392 153.079 91.8239C152.905 92.0085 152.769 92.2202 152.67 92.4588C152.57 92.6946 152.52 92.9432 152.52 93.2045C152.52 93.5511 152.601 93.875 152.763 94.1761C152.928 94.4773 153.153 94.7202 153.437 94.9048C153.724 95.0895 154.049 95.1818 154.412 95.1818ZM165.48 86.8636L162.668 97.3125H161.747L164.56 86.8636H165.48ZM172.979 96.1193C172.417 96.1193 171.915 96.0227 171.475 95.8295C171.037 95.6364 170.689 95.3679 170.431 95.0241C170.175 94.6776 170.036 94.2756 170.013 93.8182H171.087C171.11 94.0994 171.206 94.3423 171.377 94.5469C171.547 94.7486 171.77 94.9048 172.046 95.0156C172.322 95.1264 172.627 95.1818 172.962 95.1818C173.337 95.1818 173.67 95.1165 173.959 94.9858C174.249 94.8551 174.476 94.6733 174.641 94.4403C174.806 94.2074 174.888 93.9375 174.888 93.6307C174.888 93.3097 174.809 93.027 174.65 92.7827C174.491 92.5355 174.258 92.3423 173.951 92.2031C173.644 92.0639 173.269 91.9943 172.826 91.9943H172.127V91.0568H172.826C173.172 91.0568 173.476 90.9943 173.738 90.8693C174.002 90.7443 174.208 90.5682 174.356 90.3409C174.506 90.1136 174.581 89.8466 174.581 89.5398C174.581 89.2443 174.516 88.9872 174.385 88.7685C174.255 88.5497 174.07 88.3793 173.831 88.2571C173.596 88.1349 173.317 88.0739 172.996 88.0739C172.695 88.0739 172.411 88.1293 172.144 88.2401C171.88 88.348 171.664 88.5057 171.496 88.7131C171.329 88.9176 171.238 89.1648 171.224 89.4545H170.201C170.218 88.9972 170.356 88.5966 170.614 88.2528C170.873 87.9062 171.211 87.6364 171.628 87.4432C172.049 87.25 172.51 87.1534 173.013 87.1534C173.553 87.1534 174.016 87.2628 174.403 87.4815C174.789 87.6974 175.086 87.983 175.293 88.3381C175.501 88.6932 175.604 89.0767 175.604 89.4886C175.604 89.9801 175.475 90.3991 175.216 90.7457C174.961 91.0923 174.613 91.3324 174.172 91.4659V91.5341C174.724 91.625 175.154 91.8594 175.464 92.2372C175.773 92.6122 175.928 93.0767 175.928 93.6307C175.928 94.1051 175.799 94.5312 175.54 94.9091C175.285 95.2841 174.935 95.5795 174.492 95.7955C174.049 96.0114 173.545 96.1193 172.979 96.1193ZM177.466 94.2102V93.3409L181.302 87.2727H181.932V88.6193H181.506L178.608 93.2045V93.2727H183.773V94.2102H177.466ZM181.574 96V93.946V93.5412V87.2727H182.58V96H181.574ZM188.217 96.1193C187.575 96.1193 187.028 95.9446 186.576 95.5952C186.124 95.2429 185.779 94.733 185.541 94.0653C185.302 93.3949 185.183 92.5852 185.183 91.6364C185.183 90.6932 185.302 89.8878 185.541 89.2202C185.782 88.5497 186.129 88.0384 186.58 87.6861C187.035 87.331 187.58 87.1534 188.217 87.1534C188.853 87.1534 189.397 87.331 189.849 87.6861C190.303 88.0384 190.65 88.5497 190.889 89.2202C191.13 89.8878 191.251 90.6932 191.251 91.6364C191.251 92.5852 191.132 93.3949 190.893 94.0653C190.654 94.733 190.309 95.2429 189.857 95.5952C189.406 95.9446 188.859 96.1193 188.217 96.1193ZM188.217 95.1818C188.853 95.1818 189.347 94.875 189.7 94.2614C190.052 93.6477 190.228 92.7727 190.228 91.6364C190.228 90.8807 190.147 90.2372 189.985 89.706C189.826 89.1747 189.596 88.7699 189.295 88.4915C188.997 88.2131 188.637 88.0739 188.217 88.0739C187.586 88.0739 187.093 88.3849 186.738 89.0071C186.383 89.6264 186.205 90.5028 186.205 91.6364C186.205 92.392 186.285 93.0341 186.444 93.5625C186.603 94.0909 186.832 94.4929 187.13 94.7685C187.431 95.044 187.794 95.1818 188.217 95.1818ZM195.717 96.1193C195.075 96.1193 194.528 95.9446 194.076 95.5952C193.624 95.2429 193.279 94.733 193.041 94.0653C192.802 93.3949 192.683 92.5852 192.683 91.6364C192.683 90.6932 192.802 89.8878 193.041 89.2202C193.282 88.5497 193.629 88.0384 194.08 87.6861C194.535 87.331 195.08 87.1534 195.717 87.1534C196.353 87.1534 196.897 87.331 197.349 87.6861C197.803 88.0384 198.15 88.5497 198.389 89.2202C198.63 89.8878 198.751 90.6932 198.751 91.6364C198.751 92.5852 198.632 93.3949 198.393 94.0653C198.154 94.733 197.809 95.2429 197.357 95.5952C196.906 95.9446 196.359 96.1193 195.717 96.1193ZM195.717 95.1818C196.353 95.1818 196.847 94.875 197.2 94.2614C197.552 93.6477 197.728 92.7727 197.728 91.6364C197.728 90.8807 197.647 90.2372 197.485 89.706C197.326 89.1747 197.096 88.7699 196.795 88.4915C196.497 88.2131 196.137 88.0739 195.717 88.0739C195.086 88.0739 194.593 88.3849 194.238 89.0071C193.883 89.6264 193.705 90.5028 193.705 91.6364C193.705 92.392 193.785 93.0341 193.944 93.5625C194.103 94.0909 194.332 94.4929 194.63 94.7685C194.931 95.044 195.294 95.1818 195.717 95.1818Z" fill="#0D1220"/>
<path d="M12 105H316" stroke="url(#paint3_linear_40_766)" stroke-width="5" stroke-linecap="round"/>
<path d="M146.554 118H145.321C145.248 117.645 145.121 117.334 144.938 117.065C144.759 116.797 144.541 116.571 144.282 116.389C144.027 116.204 143.743 116.064 143.432 115.972C143.12 115.879 142.796 115.832 142.457 115.832C141.841 115.832 141.283 115.988 140.782 116.3C140.285 116.611 139.889 117.07 139.594 117.677C139.302 118.283 139.156 119.027 139.156 119.909C139.156 120.791 139.302 121.535 139.594 122.141C139.889 122.748 140.285 123.207 140.782 123.518C141.283 123.83 141.841 123.986 142.457 123.986C142.796 123.986 143.12 123.939 143.432 123.847C143.743 123.754 144.027 123.616 144.282 123.434C144.541 123.248 144.759 123.021 144.938 122.753C145.121 122.481 145.248 122.17 145.321 121.818H146.554C146.461 122.339 146.292 122.804 146.047 123.215C145.802 123.626 145.497 123.976 145.132 124.264C144.768 124.549 144.358 124.766 143.904 124.915C143.453 125.065 142.971 125.139 142.457 125.139C141.589 125.139 140.817 124.927 140.141 124.503C139.465 124.079 138.933 123.475 138.545 122.693C138.157 121.911 137.963 120.983 137.963 119.909C137.963 118.835 138.157 117.907 138.545 117.125C138.933 116.343 139.465 115.74 140.141 115.315C140.817 114.891 141.589 114.679 142.457 114.679C142.971 114.679 143.453 114.754 143.904 114.903C144.358 115.052 144.768 115.271 145.132 115.559C145.497 115.844 145.802 116.192 146.047 116.603C146.292 117.011 146.461 117.476 146.554 118ZM150.634 125.179C150.151 125.179 149.711 125.088 149.317 124.906C148.923 124.72 148.609 124.453 148.377 124.105C148.145 123.754 148.029 123.33 148.029 122.832C148.029 122.395 148.116 122.04 148.288 121.768C148.46 121.493 148.691 121.278 148.979 121.122C149.267 120.966 149.585 120.85 149.934 120.774C150.285 120.695 150.638 120.632 150.992 120.585C151.456 120.526 151.833 120.481 152.121 120.451C152.413 120.418 152.625 120.363 152.757 120.287C152.893 120.211 152.961 120.078 152.961 119.889V119.849C152.961 119.359 152.827 118.978 152.559 118.706C152.293 118.434 151.891 118.298 151.35 118.298C150.79 118.298 150.351 118.421 150.033 118.666C149.715 118.911 149.491 119.173 149.362 119.452L148.248 119.054C148.447 118.59 148.712 118.229 149.044 117.97C149.378 117.708 149.743 117.526 150.137 117.423C150.535 117.317 150.926 117.264 151.311 117.264C151.556 117.264 151.838 117.294 152.156 117.354C152.477 117.41 152.787 117.528 153.085 117.707C153.387 117.886 153.637 118.156 153.836 118.517C154.035 118.878 154.134 119.362 154.134 119.969V125H152.961V123.966H152.902C152.822 124.132 152.689 124.309 152.504 124.498C152.318 124.687 152.071 124.848 151.763 124.98C151.455 125.113 151.079 125.179 150.634 125.179ZM150.813 124.125C151.277 124.125 151.669 124.034 151.987 123.852C152.308 123.669 152.55 123.434 152.713 123.146C152.878 122.857 152.961 122.554 152.961 122.236V121.162C152.911 121.222 152.802 121.276 152.633 121.326C152.467 121.372 152.275 121.414 152.056 121.45C151.841 121.483 151.63 121.513 151.425 121.54C151.223 121.563 151.059 121.583 150.933 121.599C150.628 121.639 150.343 121.704 150.078 121.793C149.816 121.879 149.604 122.01 149.441 122.186C149.282 122.358 149.203 122.594 149.203 122.892C149.203 123.3 149.353 123.608 149.655 123.817C149.96 124.022 150.346 124.125 150.813 124.125ZM157.449 114.818V125H156.276V114.818H157.449ZM162.701 125.159C162.011 125.159 161.406 124.995 160.886 124.667C160.369 124.339 159.965 123.88 159.673 123.29C159.384 122.7 159.24 122.01 159.24 121.222C159.24 120.426 159.384 119.732 159.673 119.138C159.965 118.545 160.369 118.085 160.886 117.756C161.406 117.428 162.011 117.264 162.701 117.264C163.39 117.264 163.993 117.428 164.51 117.756C165.031 118.085 165.435 118.545 165.723 119.138C166.015 119.732 166.161 120.426 166.161 121.222C166.161 122.01 166.015 122.7 165.723 123.29C165.435 123.88 165.031 124.339 164.51 124.667C163.993 124.995 163.39 125.159 162.701 125.159ZM162.701 124.105C163.224 124.105 163.655 123.971 163.993 123.702C164.331 123.434 164.581 123.081 164.744 122.643C164.906 122.206 164.987 121.732 164.987 121.222C164.987 120.711 164.906 120.236 164.744 119.795C164.581 119.354 164.331 118.998 163.993 118.726C163.655 118.454 163.224 118.318 162.701 118.318C162.177 118.318 161.746 118.454 161.408 118.726C161.07 118.998 160.82 119.354 160.657 119.795C160.495 120.236 160.414 120.711 160.414 121.222C160.414 121.732 160.495 122.206 160.657 122.643C160.82 123.081 161.07 123.434 161.408 123.702C161.746 123.971 162.177 124.105 162.701 124.105ZM167.952 125V117.364H169.085V118.517H169.165C169.304 118.139 169.556 117.833 169.921 117.597C170.285 117.362 170.696 117.244 171.153 117.244C171.24 117.244 171.347 117.246 171.477 117.249C171.606 117.253 171.704 117.258 171.77 117.264V118.457C171.73 118.447 171.639 118.433 171.497 118.413C171.357 118.389 171.21 118.378 171.054 118.378C170.683 118.378 170.351 118.456 170.06 118.612C169.771 118.764 169.543 118.976 169.374 119.248C169.208 119.516 169.125 119.823 169.125 120.168V125H167.952ZM173.161 125V117.364H174.334V125H173.161ZM173.757 116.091C173.529 116.091 173.331 116.013 173.166 115.857C173.003 115.701 172.922 115.514 172.922 115.295C172.922 115.077 173.003 114.889 173.166 114.734C173.331 114.578 173.529 114.5 173.757 114.5C173.986 114.5 174.182 114.578 174.344 114.734C174.51 114.889 174.593 115.077 174.593 115.295C174.593 115.514 174.51 115.701 174.344 115.857C174.182 116.013 173.986 116.091 173.757 116.091ZM179.685 125.159C178.949 125.159 178.314 124.997 177.781 124.672C177.25 124.344 176.841 123.886 176.553 123.3C176.268 122.71 176.125 122.024 176.125 121.241C176.125 120.459 176.268 119.77 176.553 119.173C176.841 118.573 177.242 118.106 177.756 117.771C178.273 117.433 178.876 117.264 179.565 117.264C179.963 117.264 180.356 117.33 180.744 117.463C181.131 117.596 181.484 117.811 181.803 118.109C182.121 118.404 182.374 118.795 182.563 119.283C182.752 119.77 182.847 120.37 182.847 121.082V121.58H176.96V120.565H181.653C181.653 120.134 181.567 119.75 181.395 119.412C181.226 119.074 180.984 118.807 180.669 118.612C180.358 118.416 179.99 118.318 179.565 118.318C179.098 118.318 178.694 118.434 178.352 118.666C178.014 118.895 177.754 119.193 177.572 119.561C177.39 119.929 177.298 120.323 177.298 120.744V121.42C177.298 121.997 177.398 122.486 177.597 122.887C177.799 123.285 178.079 123.588 178.437 123.797C178.795 124.002 179.211 124.105 179.685 124.105C179.993 124.105 180.271 124.062 180.52 123.976C180.772 123.886 180.989 123.754 181.171 123.578C181.354 123.399 181.494 123.177 181.594 122.912L182.727 123.23C182.608 123.615 182.408 123.953 182.126 124.244C181.844 124.533 181.496 124.758 181.082 124.92C180.667 125.08 180.202 125.159 179.685 125.159ZM190.041 119.074L188.987 119.372C188.92 119.196 188.823 119.026 188.693 118.86C188.567 118.691 188.395 118.552 188.176 118.442C187.957 118.333 187.677 118.278 187.336 118.278C186.869 118.278 186.479 118.386 186.168 118.602C185.859 118.814 185.705 119.084 185.705 119.412C185.705 119.704 185.811 119.934 186.024 120.103C186.236 120.272 186.567 120.413 187.018 120.526L188.151 120.804C188.834 120.97 189.343 121.223 189.678 121.565C190.012 121.903 190.18 122.339 190.18 122.872C190.18 123.31 190.054 123.701 189.802 124.045C189.553 124.39 189.205 124.662 188.758 124.861C188.31 125.06 187.79 125.159 187.197 125.159C186.418 125.159 185.773 124.99 185.263 124.652C184.752 124.314 184.429 123.82 184.293 123.17L185.407 122.892C185.513 123.303 185.714 123.611 186.009 123.817C186.307 124.022 186.696 124.125 187.177 124.125C187.724 124.125 188.158 124.009 188.479 123.777C188.804 123.542 188.967 123.26 188.967 122.932C188.967 122.667 188.874 122.445 188.688 122.266C188.503 122.083 188.218 121.947 187.833 121.858L186.56 121.56C185.861 121.394 185.347 121.137 185.019 120.789C184.694 120.438 184.532 119.999 184.532 119.472C184.532 119.041 184.653 118.66 184.895 118.328C185.14 117.997 185.473 117.737 185.894 117.548C186.319 117.359 186.799 117.264 187.336 117.264C188.092 117.264 188.685 117.43 189.116 117.761C189.55 118.093 189.858 118.53 190.041 119.074Z" fill="#0D1220"/>
<defs>
<linearGradient id="paint0_linear_40_766" x1="65.8667" y1="37" x2="66.4" y2="37" gradientUnits="userSpaceOnUse">
<stop stop-color="#E66571"/>
<stop offset="1" stop-color="#CCCCCC"/>
</linearGradient>
<linearGradient id="paint1_linear_40_766" x1="150.667" y1="37.5" x2="151.2" y2="37.5" gradientUnits="userSpaceOnUse">
<stop stop-color="#FFA072"/>
<stop offset="1" stop-color="#CCCCCC"/>
</linearGradient>
<linearGradient id="paint2_linear_40_766" x1="308" y1="37" x2="308.533" y2="37" gradientUnits="userSpaceOnUse">
<stop stop-color="#59FFC4"/>
<stop offset="1" stop-color="#CCCCCC"/>
</linearGradient>
<linearGradient id="paint3_linear_40_766" x1="203.9" y1="105" x2="205.8" y2="105" gradientUnits="userSpaceOnUse">
<stop stop-color="#35CC8C"/>
<stop offset="1" stop-color="#CCCCCC"/>
</linearGradient>
</defs>
</svg>
