<svg width="312" height="132" viewBox="0 0 312 132" fill="none" xmlns="http://www.w3.org/2000/svg">
<rect width="312" height="132" rx="20" fill="#F7F7F7"/>
<path d="M19.0014 28L16.6151 19.2727H17.6889L19.5128 26.3807H19.598L21.456 19.2727H22.6491L24.5071 26.3807H24.5923L26.4162 19.2727H27.4901L25.1037 28H24.0128L22.0866 21.0455H22.0185L20.0923 28H19.0014ZM29.9872 28.1534C29.5724 28.1534 29.196 28.0753 28.858 27.919C28.5199 27.7599 28.2514 27.5312 28.0526 27.233C27.8537 26.9318 27.7543 26.5682 27.7543 26.142C27.7543 25.767 27.8281 25.4631 27.9759 25.2301C28.1236 24.9943 28.321 24.8097 28.5682 24.6761C28.8153 24.5426 29.0881 24.4432 29.3864 24.3778C29.6875 24.3097 29.9901 24.2557 30.294 24.2159C30.6918 24.1648 31.0142 24.1264 31.2614 24.1009C31.5114 24.0724 31.6932 24.0256 31.8068 23.9602C31.9233 23.8949 31.9815 23.7812 31.9815 23.6193V23.5852C31.9815 23.1648 31.8665 22.8381 31.6364 22.6051C31.4091 22.3722 31.0639 22.2557 30.6009 22.2557C30.1207 22.2557 29.7443 22.3608 29.4716 22.571C29.1989 22.7812 29.0071 23.0057 28.8963 23.2443L27.9418 22.9034C28.1122 22.5057 28.3395 22.196 28.6236 21.9744C28.9105 21.75 29.223 21.5937 29.5611 21.5057C29.902 21.4148 30.2372 21.3693 30.5668 21.3693C30.777 21.3693 31.0185 21.3949 31.2912 21.446C31.5668 21.4943 31.8324 21.5952 32.0881 21.7486C32.3466 21.902 32.5611 22.1335 32.7315 22.4432C32.902 22.7528 32.9872 23.1676 32.9872 23.6875V28H31.9815V27.1136H31.9304C31.8622 27.2557 31.7486 27.4077 31.5895 27.5696C31.4304 27.7315 31.2188 27.8693 30.9545 27.983C30.6903 28.0966 30.3679 28.1534 29.9872 28.1534ZM30.1406 27.25C30.5384 27.25 30.8736 27.1719 31.1463 27.0156C31.4219 26.8594 31.6293 26.6577 31.7685 26.4105C31.9105 26.1634 31.9815 25.9034 31.9815 25.6307V24.7102C31.9389 24.7614 31.8452 24.8082 31.7003 24.8509C31.5582 24.8906 31.3935 24.9261 31.206 24.9574C31.0213 24.9858 30.8409 25.0114 30.6648 25.0341C30.4915 25.054 30.3509 25.071 30.2429 25.0852C29.9815 25.1193 29.7372 25.1747 29.5099 25.2514C29.2855 25.3253 29.1037 25.4375 28.9645 25.5881C28.8281 25.7358 28.7599 25.9375 28.7599 26.1932C28.7599 26.5426 28.8892 26.8068 29.1477 26.9858C29.4091 27.1619 29.7401 27.25 30.1406 27.25ZM37.6694 21.4545V22.3068H34.2773V21.4545H37.6694ZM35.266 19.8864H36.2717V26.125C36.2717 26.4091 36.3129 26.6222 36.3952 26.7642C36.4805 26.9034 36.5884 26.9972 36.7191 27.0455C36.8526 27.0909 36.9933 27.1136 37.141 27.1136C37.2518 27.1136 37.3427 27.108 37.4137 27.0966C37.4847 27.0824 37.5415 27.071 37.5842 27.0625L37.7887 27.9659C37.7205 27.9915 37.6254 28.017 37.5032 28.0426C37.381 28.071 37.2262 28.0852 37.0387 28.0852C36.7546 28.0852 36.4762 28.0241 36.2035 27.902C35.9336 27.7798 35.7092 27.5938 35.5302 27.3438C35.354 27.0938 35.266 26.7784 35.266 26.3977V19.8864ZM41.8562 28.1364C41.2255 28.1364 40.6815 27.9972 40.2241 27.7188C39.7695 27.4375 39.4187 27.0455 39.1715 26.5426C38.9272 26.0369 38.805 25.4489 38.805 24.7784C38.805 24.108 38.9272 23.517 39.1715 23.0057C39.4187 22.4915 39.7624 22.0909 40.2028 21.804C40.646 21.5142 41.163 21.3693 41.7539 21.3693C42.0948 21.3693 42.4315 21.4261 42.7638 21.5398C43.0962 21.6534 43.3988 21.8381 43.6715 22.0938C43.9442 22.3466 44.1616 22.6818 44.3235 23.0994C44.4854 23.517 44.5664 24.0312 44.5664 24.642V25.0682H39.521V24.1989H43.5437C43.5437 23.8295 43.4698 23.5 43.3221 23.2102C43.1772 22.9205 42.9698 22.6918 42.6999 22.5241C42.4329 22.3565 42.1175 22.2727 41.7539 22.2727C41.3533 22.2727 41.0067 22.3722 40.7141 22.571C40.4244 22.767 40.2013 23.0227 40.0451 23.3381C39.8888 23.6534 39.8107 23.9915 39.8107 24.3523V24.9318C39.8107 25.4261 39.896 25.8452 40.0664 26.1889C40.2397 26.5298 40.4798 26.7898 40.7866 26.9688C41.0934 27.1449 41.4499 27.233 41.8562 27.233C42.1204 27.233 42.359 27.196 42.5721 27.1222C42.788 27.0455 42.9741 26.9318 43.1303 26.7812C43.2866 26.6278 43.4073 26.4375 43.4925 26.2102L44.4641 26.483C44.3619 26.8125 44.19 27.1023 43.9485 27.3523C43.707 27.5994 43.4087 27.7926 43.0536 27.9318C42.6985 28.0682 42.2994 28.1364 41.8562 28.1364ZM46.0962 28V21.4545H47.0678V22.4432H47.136C47.2553 22.1193 47.4712 21.8565 47.7837 21.6548C48.0962 21.4531 48.4485 21.3523 48.8406 21.3523C48.9144 21.3523 49.0067 21.3537 49.1175 21.3565C49.2283 21.3594 49.3121 21.3636 49.369 21.3693V22.392C49.3349 22.3835 49.2567 22.3707 49.1346 22.3537C49.0153 22.3338 48.8888 22.3239 48.7553 22.3239C48.4371 22.3239 48.1531 22.3906 47.9031 22.5241C47.6559 22.6548 47.4599 22.8366 47.315 23.0696C47.1729 23.2997 47.1019 23.5625 47.1019 23.858V28H46.0962Z" fill="#0D1220"/>
<path d="M22.2182 35.3636V47H20.1103V37.4148H20.0421L17.3205 39.1534V37.2216L20.2125 35.3636H22.2182ZM26.9696 45.4091L26.8958 46.0341C26.8427 46.5114 26.748 46.9962 26.6117 47.4886C26.4791 47.9848 26.339 48.4413 26.1912 48.858C26.0435 49.2746 25.9242 49.6023 25.8333 49.8409H24.4469C24.4999 49.6098 24.5719 49.2955 24.6628 48.8977C24.7575 48.5 24.8484 48.053 24.9355 47.5568C25.0227 47.0606 25.0814 46.5568 25.1117 46.0455L25.1515 45.4091H26.9696ZM33.1188 35.2045C33.6756 35.2083 34.2173 35.3068 34.7438 35.5C35.2741 35.6894 35.7514 36 36.1756 36.4318C36.5998 36.8598 36.937 37.4337 37.187 38.1534C37.437 38.8731 37.562 39.7633 37.562 40.8239C37.5658 41.8239 37.4597 42.7178 37.2438 43.5057C37.0317 44.2898 36.7267 44.9527 36.329 45.4943C35.9313 46.036 35.4521 46.4489 34.8915 46.733C34.3309 47.017 33.7002 47.1591 32.9995 47.1591C32.2646 47.1591 31.6131 47.0152 31.0449 46.7273C30.4805 46.4394 30.0241 46.0455 29.6756 45.5455C29.3271 45.0455 29.1131 44.4735 29.0336 43.8295H31.1074C31.2135 44.2917 31.4294 44.6591 31.7551 44.9318C32.0847 45.2008 32.4995 45.3352 32.9995 45.3352C33.8063 45.3352 34.4275 44.9848 34.8631 44.2841C35.2987 43.5833 35.5165 42.6098 35.5165 41.3636H35.437C35.2514 41.697 35.0108 41.9848 34.7154 42.2273C34.4199 42.4659 34.0847 42.6496 33.7097 42.7784C33.3385 42.9072 32.9445 42.9716 32.5279 42.9716C31.8461 42.9716 31.2324 42.8087 30.687 42.483C30.1453 42.1572 29.7154 41.7102 29.3972 41.142C29.0828 40.5739 28.9237 39.9242 28.9199 39.1932C28.9199 38.4356 29.0942 37.7557 29.4426 37.1534C29.7949 36.5473 30.2855 36.0701 30.9142 35.7216C31.543 35.3693 32.2779 35.197 33.1188 35.2045ZM33.1245 36.9091C32.7154 36.9091 32.3461 37.0095 32.0165 37.2102C31.6908 37.4072 31.4332 37.6761 31.2438 38.017C31.0582 38.3542 30.9654 38.7311 30.9654 39.1477C30.9692 39.5606 31.062 39.9356 31.2438 40.2727C31.4294 40.6098 31.6813 40.8769 31.9995 41.0739C32.3214 41.2708 32.6889 41.3693 33.1017 41.3693C33.4086 41.3693 33.6945 41.3106 33.9597 41.1932C34.2248 41.0758 34.4559 40.9129 34.6529 40.7045C34.8536 40.4924 35.0089 40.2519 35.1188 39.983C35.2324 39.714 35.2873 39.4299 35.2836 39.1307C35.2836 38.733 35.1889 38.3655 34.9995 38.0284C34.8139 37.6913 34.5582 37.4205 34.2324 37.2159C33.9105 37.0114 33.5411 36.9091 33.1245 36.9091ZM47.3688 34.8182L43.6188 48.75H42.1017L45.8517 34.8182H47.3688ZM51.9483 47V46.233L54.829 43.0795C55.1671 42.7102 55.4455 42.3892 55.6642 42.1165C55.883 41.8409 56.0449 41.5824 56.15 41.3409C56.258 41.0966 56.312 40.8409 56.312 40.5739C56.312 40.267 56.2381 40.0014 56.0904 39.777C55.9455 39.5526 55.7466 39.3793 55.4938 39.2571C55.2409 39.1349 54.9569 39.0739 54.6415 39.0739C54.3063 39.0739 54.0137 39.1435 53.7637 39.2827C53.5165 39.419 53.3248 39.6108 53.1884 39.858C53.0549 40.1051 52.9881 40.3949 52.9881 40.7273H51.9824C51.9824 40.2159 52.1003 39.767 52.3361 39.3807C52.5719 38.9943 52.8929 38.6932 53.2992 38.4773C53.7083 38.2614 54.1671 38.1534 54.6756 38.1534C55.187 38.1534 55.6401 38.2614 56.035 38.4773C56.4299 38.6932 56.7395 38.9844 56.964 39.3509C57.1884 39.7173 57.3006 40.125 57.3006 40.5739C57.3006 40.8949 57.2424 41.2088 57.1259 41.5156C57.0123 41.8196 56.8134 42.1591 56.5293 42.5341C56.248 42.9062 55.8574 43.3608 55.3574 43.8977L53.3972 45.9943V46.0625H57.454V47H51.9483ZM60.731 45.8068L60.6628 46.267C60.6145 46.5909 60.5407 46.9375 60.4412 47.3068C60.3446 47.6761 60.2438 48.0241 60.1387 48.3509C60.0336 48.6776 59.9469 48.9375 59.8787 49.1307H59.1117C59.1486 48.9489 59.1969 48.7088 59.2566 48.4105C59.3162 48.1122 59.3759 47.7784 59.4355 47.4091C59.498 47.0426 59.5492 46.6676 59.589 46.2841L59.6401 45.8068H60.731ZM65.1287 47.1193C64.6287 47.1193 64.1784 47.0199 63.7779 46.821C63.3773 46.6222 63.0563 46.3494 62.8148 46.0028C62.5733 45.6562 62.4412 45.2614 62.4185 44.8182H63.4412C63.481 45.2131 63.66 45.5398 63.9782 45.7983C64.2992 46.054 64.6827 46.1818 65.1287 46.1818C65.4867 46.1818 65.8049 46.098 66.0833 45.9304C66.3645 45.7628 66.5847 45.5327 66.7438 45.2401C66.9057 44.9446 66.9867 44.6108 66.9867 44.2386C66.9867 43.858 66.9029 43.5185 66.7353 43.2202C66.5705 42.919 66.3432 42.6818 66.0534 42.5085C65.7637 42.3352 65.4327 42.2472 65.0605 42.2443C64.7935 42.2415 64.5194 42.2827 64.2381 42.3679C63.9569 42.4503 63.7253 42.5568 63.5435 42.6875L62.5549 42.5682L63.0833 38.2727H67.6174V39.2102H63.9696L63.6628 41.7841H63.714C63.8929 41.642 64.1174 41.5241 64.3873 41.4304C64.6571 41.3366 64.9384 41.2898 65.231 41.2898C65.7651 41.2898 66.2409 41.4176 66.6586 41.6733C67.079 41.9261 67.4086 42.2727 67.6472 42.7131C67.8887 43.1534 68.0094 43.6562 68.0094 44.2216C68.0094 44.7784 67.8844 45.2756 67.6344 45.7131C67.3873 46.1477 67.0463 46.4915 66.6117 46.7443C66.177 46.9943 65.6827 47.1193 65.1287 47.1193ZM69.8556 47V38.2727H70.9125V46.0625H74.9693V47H69.8556Z" fill="#0D1220"/>
<path d="M17.5295 107V98.2727H18.5863V106.062H22.6431V107H17.5295ZM26.0692 107.153C25.6545 107.153 25.2781 107.075 24.94 106.919C24.6019 106.76 24.3335 106.531 24.1346 106.233C23.9357 105.932 23.8363 105.568 23.8363 105.142C23.8363 104.767 23.9102 104.463 24.0579 104.23C24.2056 103.994 24.4031 103.81 24.6502 103.676C24.8974 103.543 25.1701 103.443 25.4684 103.378C25.7695 103.31 26.0721 103.256 26.3761 103.216C26.7738 103.165 27.0962 103.126 27.3434 103.101C27.5934 103.072 27.7752 103.026 27.8888 102.96C28.0053 102.895 28.0636 102.781 28.0636 102.619V102.585C28.0636 102.165 27.9485 101.838 27.7184 101.605C27.4911 101.372 27.146 101.256 26.6829 101.256C26.2028 101.256 25.8263 101.361 25.5536 101.571C25.2809 101.781 25.0891 102.006 24.9783 102.244L24.0238 101.903C24.1942 101.506 24.4215 101.196 24.7056 100.974C24.9925 100.75 25.305 100.594 25.6431 100.506C25.984 100.415 26.3192 100.369 26.6488 100.369C26.859 100.369 27.1005 100.395 27.3732 100.446C27.6488 100.494 27.9144 100.595 28.1701 100.749C28.4286 100.902 28.6431 101.134 28.8136 101.443C28.984 101.753 29.0692 102.168 29.0692 102.688V107H28.0636V106.114H28.0124C27.9442 106.256 27.8306 106.408 27.6715 106.57C27.5124 106.732 27.3008 106.869 27.0366 106.983C26.7724 107.097 26.4499 107.153 26.0692 107.153ZM26.2227 106.25C26.6204 106.25 26.9556 106.172 27.2283 106.016C27.5039 105.859 27.7113 105.658 27.8505 105.411C27.9925 105.163 28.0636 104.903 28.0636 104.631V103.71C28.021 103.761 27.9272 103.808 27.7823 103.851C27.6403 103.891 27.4755 103.926 27.288 103.957C27.1033 103.986 26.9229 104.011 26.7468 104.034C26.5735 104.054 26.4329 104.071 26.3249 104.085C26.0636 104.119 25.8192 104.175 25.592 104.251C25.3675 104.325 25.1857 104.437 25.0465 104.588C24.9102 104.736 24.842 104.937 24.842 105.193C24.842 105.543 24.9712 105.807 25.2298 105.986C25.4911 106.162 25.8221 106.25 26.2227 106.25ZM35.5412 101.92L34.6378 102.176C34.581 102.026 34.4972 101.879 34.3864 101.737C34.2784 101.592 34.1307 101.473 33.9432 101.379C33.7557 101.286 33.5156 101.239 33.223 101.239C32.8224 101.239 32.4886 101.331 32.2216 101.516C31.9574 101.697 31.8253 101.929 31.8253 102.21C31.8253 102.46 31.9162 102.658 32.098 102.803C32.2798 102.947 32.5639 103.068 32.9503 103.165L33.9219 103.403C34.5071 103.545 34.9432 103.763 35.2301 104.055C35.517 104.345 35.6605 104.719 35.6605 105.176C35.6605 105.551 35.5526 105.886 35.3366 106.182C35.1236 106.477 34.8253 106.71 34.4418 106.881C34.0582 107.051 33.6122 107.136 33.1037 107.136C32.4361 107.136 31.8835 106.991 31.446 106.702C31.0085 106.412 30.7315 105.989 30.6151 105.432L31.5696 105.193C31.6605 105.545 31.8324 105.81 32.0852 105.986C32.3409 106.162 32.6747 106.25 33.0866 106.25C33.5554 106.25 33.9276 106.151 34.2031 105.952C34.4815 105.75 34.6207 105.509 34.6207 105.227C34.6207 105 34.5412 104.81 34.3821 104.656C34.223 104.5 33.9787 104.384 33.6491 104.307L32.5582 104.051C31.9588 103.909 31.5185 103.689 31.2372 103.391C30.9588 103.089 30.8196 102.713 30.8196 102.261C30.8196 101.892 30.9233 101.565 31.1307 101.281C31.3409 100.997 31.6264 100.774 31.9872 100.612C32.3509 100.45 32.7628 100.369 33.223 100.369C33.8707 100.369 34.3793 100.511 34.7486 100.795C35.1207 101.08 35.3849 101.455 35.5412 101.92ZM40.021 100.455V101.307H36.6289V100.455H40.021ZM37.6175 98.8864H38.6232V105.125C38.6232 105.409 38.6644 105.622 38.7468 105.764C38.832 105.903 38.94 105.997 39.0707 106.045C39.2042 106.091 39.3448 106.114 39.4925 106.114C39.6033 106.114 39.6942 106.108 39.7653 106.097C39.8363 106.082 39.8931 106.071 39.9357 106.062L40.1403 106.966C40.0721 106.991 39.9769 107.017 39.8548 107.043C39.7326 107.071 39.5778 107.085 39.3903 107.085C39.1062 107.085 38.8278 107.024 38.555 106.902C38.2852 106.78 38.0607 106.594 37.8817 106.344C37.7056 106.094 37.6175 105.778 37.6175 105.398V98.8864ZM47.7553 100.455V101.307H44.3633V100.455H47.7553ZM45.3519 98.8864H46.3576V105.125C46.3576 105.409 46.3988 105.622 46.4812 105.764C46.5664 105.903 46.6744 105.997 46.805 106.045C46.9386 106.091 47.0792 106.114 47.2269 106.114C47.3377 106.114 47.4286 106.108 47.4996 106.097C47.5707 106.082 47.6275 106.071 47.6701 106.062L47.8746 106.966C47.8065 106.991 47.7113 107.017 47.5891 107.043C47.467 107.071 47.3121 107.085 47.1246 107.085C46.8406 107.085 46.5621 107.024 46.2894 106.902C46.0195 106.78 45.7951 106.594 45.6161 106.344C45.44 106.094 45.3519 105.778 45.3519 105.398V98.8864ZM49.2681 107V100.455H50.2738V107H49.2681ZM49.7795 99.3636C49.5835 99.3636 49.4144 99.2969 49.2724 99.1634C49.1332 99.0298 49.0636 98.8693 49.0636 98.6818C49.0636 98.4943 49.1332 98.3338 49.2724 98.2003C49.4144 98.0668 49.5835 98 49.7795 98C49.9755 98 50.1431 98.0668 50.2823 98.2003C50.4244 98.3338 50.4954 98.4943 50.4954 98.6818C50.4954 98.8693 50.4244 99.0298 50.2823 99.1634C50.1431 99.2969 49.9755 99.3636 49.7795 99.3636ZM52.1158 107V100.455H53.0874V101.477H53.1726C53.3089 101.128 53.5291 100.857 53.8331 100.663C54.1371 100.467 54.5021 100.369 54.9283 100.369C55.3601 100.369 55.7195 100.467 56.0064 100.663C56.2962 100.857 56.522 101.128 56.6839 101.477H56.7521C56.9197 101.139 57.1712 100.871 57.5064 100.672C57.8416 100.47 58.2436 100.369 58.7124 100.369C59.2976 100.369 59.7763 100.553 60.1484 100.919C60.5206 101.283 60.7067 101.849 60.7067 102.619V107H59.701V102.619C59.701 102.136 59.5689 101.791 59.3047 101.584C59.0405 101.376 58.7294 101.273 58.3714 101.273C57.9112 101.273 57.5547 101.412 57.3018 101.69C57.049 101.966 56.9226 102.315 56.9226 102.739V107H55.8999V102.517C55.8999 102.145 55.7791 101.845 55.5376 101.618C55.2962 101.388 54.9851 101.273 54.6044 101.273C54.343 101.273 54.0987 101.342 53.8714 101.482C53.647 101.621 53.4652 101.814 53.326 102.061C53.1896 102.305 53.1214 102.588 53.1214 102.909V107H52.1158ZM65.2898 107.136C64.6591 107.136 64.1151 106.997 63.6577 106.719C63.2031 106.438 62.8523 106.045 62.6051 105.543C62.3608 105.037 62.2386 104.449 62.2386 103.778C62.2386 103.108 62.3608 102.517 62.6051 102.006C62.8523 101.491 63.196 101.091 63.6364 100.804C64.0795 100.514 64.5966 100.369 65.1875 100.369C65.5284 100.369 65.8651 100.426 66.1974 100.54C66.5298 100.653 66.8324 100.838 67.1051 101.094C67.3778 101.347 67.5952 101.682 67.7571 102.099C67.919 102.517 68 103.031 68 103.642V104.068H62.9545V103.199H66.9773C66.9773 102.83 66.9034 102.5 66.7557 102.21C66.6108 101.92 66.4034 101.692 66.1335 101.524C65.8665 101.357 65.5511 101.273 65.1875 101.273C64.7869 101.273 64.4403 101.372 64.1477 101.571C63.858 101.767 63.6349 102.023 63.4787 102.338C63.3224 102.653 63.2443 102.991 63.2443 103.352V103.932C63.2443 104.426 63.3295 104.845 63.5 105.189C63.6733 105.53 63.9134 105.79 64.2202 105.969C64.527 106.145 64.8835 106.233 65.2898 106.233C65.554 106.233 65.7926 106.196 66.0057 106.122C66.2216 106.045 66.4077 105.932 66.5639 105.781C66.7202 105.628 66.8409 105.437 66.9261 105.21L67.8977 105.483C67.7955 105.812 67.6236 106.102 67.3821 106.352C67.1406 106.599 66.8423 106.793 66.4872 106.932C66.1321 107.068 65.733 107.136 65.2898 107.136ZM75.956 98.2727V107H74.8991V99.3807H74.848L72.7173 100.795V99.7216L74.8991 98.2727H75.956ZM81.3125 107.119C80.6705 107.119 80.1236 106.945 79.6719 106.595C79.2202 106.243 78.875 105.733 78.6364 105.065C78.3977 104.395 78.2784 103.585 78.2784 102.636C78.2784 101.693 78.3977 100.888 78.6364 100.22C78.8778 99.5497 79.2244 99.0384 79.6761 98.6861C80.1307 98.331 80.6761 98.1534 81.3125 98.1534C81.9489 98.1534 82.4929 98.331 82.9446 98.6861C83.3991 99.0384 83.7457 99.5497 83.9844 100.22C84.2259 100.888 84.3466 101.693 84.3466 102.636C84.3466 103.585 84.2273 104.395 83.9886 105.065C83.75 105.733 83.4048 106.243 82.9531 106.595C82.5014 106.945 81.9545 107.119 81.3125 107.119ZM81.3125 106.182C81.9489 106.182 82.4432 105.875 82.7955 105.261C83.1477 104.648 83.3239 103.773 83.3239 102.636C83.3239 101.881 83.2429 101.237 83.081 100.706C82.9219 100.175 82.6918 99.7699 82.3906 99.4915C82.0923 99.2131 81.733 99.0739 81.3125 99.0739C80.6818 99.0739 80.1889 99.3849 79.8338 100.007C79.4787 100.626 79.3011 101.503 79.3011 102.636C79.3011 103.392 79.3807 104.034 79.5398 104.562C79.6989 105.091 79.9276 105.493 80.2259 105.768C80.527 106.044 80.8892 106.182 81.3125 106.182ZM86.7159 105.884C86.5057 105.884 86.3253 105.808 86.1747 105.658C86.0241 105.507 85.9489 105.327 85.9489 105.116C85.9489 104.906 86.0241 104.726 86.1747 104.575C86.3253 104.425 86.5057 104.349 86.7159 104.349C86.9261 104.349 87.1065 104.425 87.2571 104.575C87.4077 104.726 87.483 104.906 87.483 105.116C87.483 105.256 87.4474 105.384 87.3764 105.5C87.3082 105.616 87.2159 105.71 87.0994 105.781C86.9858 105.849 86.858 105.884 86.7159 105.884ZM86.7159 101.469C86.5057 101.469 86.3253 101.393 86.1747 101.243C86.0241 101.092 85.9489 100.912 85.9489 100.702C85.9489 100.491 86.0241 100.311 86.1747 100.161C86.3253 100.01 86.5057 99.9347 86.7159 99.9347C86.9261 99.9347 87.1065 100.01 87.2571 100.161C87.4077 100.311 87.483 100.491 87.483 100.702C87.483 100.841 87.4474 100.969 87.3764 101.085C87.3082 101.202 87.2159 101.295 87.0994 101.366C86.9858 101.435 86.858 101.469 86.7159 101.469ZM89.0661 105.21V104.341L92.9013 98.2727H93.532V99.6193H93.1058L90.2081 104.205V104.273H95.3729V105.21H89.0661ZM93.174 107V104.946V104.541V98.2727H94.1797V107H93.174ZM99.6971 107.119C99.1971 107.119 98.7468 107.02 98.3462 106.821C97.9457 106.622 97.6246 106.349 97.3832 106.003C97.1417 105.656 97.0096 105.261 96.9869 104.818H98.0096C98.0494 105.213 98.2283 105.54 98.5465 105.798C98.8675 106.054 99.2511 106.182 99.6971 106.182C100.055 106.182 100.373 106.098 100.652 105.93C100.933 105.763 101.153 105.533 101.312 105.24C101.474 104.945 101.555 104.611 101.555 104.239C101.555 103.858 101.471 103.518 101.304 103.22C101.139 102.919 100.912 102.682 100.622 102.509C100.332 102.335 100.001 102.247 99.6289 102.244C99.3619 102.241 99.0877 102.283 98.8065 102.368C98.5252 102.45 98.2937 102.557 98.1119 102.688L97.1232 102.568L97.6516 98.2727H102.186V99.2102H98.538L98.2312 101.784H98.2823C98.4613 101.642 98.6857 101.524 98.9556 101.43C99.2255 101.337 99.5067 101.29 99.7994 101.29C100.333 101.29 100.809 101.418 101.227 101.673C101.647 101.926 101.977 102.273 102.216 102.713C102.457 103.153 102.578 103.656 102.578 104.222C102.578 104.778 102.453 105.276 102.203 105.713C101.956 106.148 101.615 106.491 101.18 106.744C100.745 106.994 100.251 107.119 99.6971 107.119ZM108.157 107H107.049L110.254 98.2727H111.344L114.549 107H113.441L110.833 99.6534H110.765L108.157 107ZM108.566 103.591H113.032V104.528H108.566V103.591ZM115.908 98.2727H117.17L120.136 105.517H120.238L123.204 98.2727H124.465V107H123.477V100.369H123.391L120.664 107H119.71L116.982 100.369H116.897V107H115.908V98.2727Z" fill="#808080"/>
<rect x="216" y="30" width="24" height="24" rx="12" fill="#CCCCCC"/>
<path d="M227.5 42.5H224.167C224.025 42.5 223.906 42.4521 223.81 42.3562C223.715 42.2604 223.667 42.1416 223.667 41.9998C223.667 41.8581 223.715 41.7394 223.81 41.6437C223.906 41.5479 224.025 41.5001 224.167 41.5001H227.5V38.1667C227.5 38.0251 227.548 37.9063 227.644 37.8105C227.74 37.7147 227.858 37.6667 228 37.6667C228.142 37.6667 228.261 37.7147 228.356 37.8105C228.452 37.9063 228.5 38.0251 228.5 38.1667V41.5001H231.833C231.975 41.5001 232.094 41.548 232.19 41.6439C232.285 41.7398 232.333 41.8586 232.333 42.0003C232.333 42.142 232.285 42.2607 232.19 42.3565C232.094 42.4522 231.975 42.5 231.833 42.5H228.5V45.8334C228.5 45.975 228.452 46.0938 228.356 46.1896C228.26 46.2855 228.141 46.3334 228 46.3334C227.858 46.3334 227.739 46.2855 227.644 46.1896C227.548 46.0938 227.5 45.975 227.5 45.8334V42.5Z" fill="black"/>
<rect x="216" y="78" width="24" height="24" rx="12" fill="#CCCCCC"/>
<path d="M224.167 90.5C224.025 90.5 223.906 90.452 223.81 90.3562C223.715 90.2603 223.667 90.1415 223.667 89.9998C223.667 89.858 223.715 89.7393 223.81 89.6436C223.906 89.5479 224.025 89.5 224.167 89.5H231.833C231.975 89.5 232.094 89.5479 232.19 89.6438C232.285 89.7397 232.333 89.8585 232.333 90.0002C232.333 90.1419 232.285 90.2607 232.19 90.3564C232.094 90.4521 231.975 90.5 231.833 90.5H224.167Z" fill="#0D1220"/>
<rect x="256" y="16" width="40" height="100" rx="20" fill="#CCCCCC"/>
<path d="M256 40H296V96C296 107.046 287.046 116 276 116C264.954 116 256 107.046 256 96V40Z" fill="url(#paint0_linear_48_1555)"/>
<path d="M265.223 88L269.126 80.2784V80.2102H264.626V79.2727H270.217V80.2614L266.331 88H265.223ZM274.516 88.1193C274.158 88.1136 273.8 88.0455 273.442 87.9148C273.084 87.7841 272.757 87.5639 272.462 87.2543C272.167 86.9418 271.929 86.5199 271.75 85.9886C271.571 85.4545 271.482 84.7841 271.482 83.9773C271.482 83.2045 271.554 82.5199 271.699 81.9233C271.844 81.3239 272.054 80.8196 272.33 80.4105C272.605 79.9986 272.938 79.6861 273.327 79.473C273.719 79.2599 274.161 79.1534 274.652 79.1534C275.141 79.1534 275.576 79.2514 275.956 79.4474C276.34 79.6406 276.652 79.9105 276.894 80.2571C277.135 80.6037 277.292 81.0028 277.363 81.4545H276.323C276.226 81.0625 276.039 80.7372 275.76 80.4787C275.482 80.2202 275.113 80.0909 274.652 80.0909C273.976 80.0909 273.444 80.3849 273.054 80.973C272.668 81.5611 272.473 82.3864 272.471 83.4489H272.539C272.698 83.2074 272.887 83.0014 273.105 82.831C273.327 82.6577 273.571 82.5241 273.838 82.4304C274.105 82.3366 274.388 82.2898 274.686 82.2898C275.186 82.2898 275.644 82.4148 276.059 82.6648C276.473 82.9119 276.806 83.2543 277.056 83.6918C277.306 84.1264 277.431 84.625 277.431 85.1875C277.431 85.7273 277.31 86.2216 277.069 86.6705C276.827 87.1165 276.488 87.4716 276.05 87.7358C275.615 87.9972 275.104 88.125 274.516 88.1193ZM274.516 87.1818C274.874 87.1818 275.195 87.0923 275.479 86.9134C275.766 86.7344 275.992 86.4943 276.157 86.1932C276.324 85.892 276.408 85.5568 276.408 85.1875C276.408 84.8267 276.327 84.4986 276.165 84.2031C276.006 83.9048 275.786 83.6676 275.505 83.4915C275.226 83.3153 274.908 83.2273 274.55 83.2273C274.28 83.2273 274.029 83.2812 273.796 83.3892C273.563 83.4943 273.358 83.6392 273.182 83.8239C273.009 84.0085 272.873 84.2202 272.773 84.4588C272.674 84.6946 272.624 84.9432 272.624 85.2045C272.624 85.5511 272.705 85.875 272.867 86.1761C273.032 86.4773 273.256 86.7202 273.54 86.9048C273.827 87.0895 274.152 87.1818 274.516 87.1818ZM283.555 86.3636V85.9034C283.555 85.5852 283.621 85.294 283.751 85.0298C283.885 84.7628 284.078 84.5497 284.331 84.3906C284.587 84.2287 284.896 84.1477 285.26 84.1477C285.629 84.1477 285.939 84.2287 286.189 84.3906C286.439 84.5497 286.628 84.7628 286.756 85.0298C286.884 85.294 286.947 85.5852 286.947 85.9034V86.3636C286.947 86.6818 286.882 86.9744 286.751 87.2415C286.624 87.5057 286.433 87.7187 286.18 87.8807C285.93 88.0398 285.624 88.1193 285.26 88.1193C284.891 88.1193 284.58 88.0398 284.327 87.8807C284.074 87.7187 283.882 87.5057 283.751 87.2415C283.621 86.9744 283.555 86.6818 283.555 86.3636ZM284.425 85.9034V86.3636C284.425 86.6278 284.487 86.8651 284.612 87.0753C284.737 87.2827 284.953 87.3864 285.26 87.3864C285.558 87.3864 285.768 87.2827 285.891 87.0753C286.016 86.8651 286.078 86.6278 286.078 86.3636V85.9034C286.078 85.6392 286.018 85.4034 285.899 85.196C285.78 84.9858 285.567 84.8807 285.26 84.8807C284.962 84.8807 284.747 84.9858 284.616 85.196C284.489 85.4034 284.425 85.6392 284.425 85.9034ZM279.209 81.3693V80.9091C279.209 80.5909 279.274 80.2997 279.405 80.0355C279.538 79.7685 279.732 79.5554 279.984 79.3963C280.24 79.2344 280.55 79.1534 280.913 79.1534C281.283 79.1534 281.592 79.2344 281.842 79.3963C282.092 79.5554 282.281 79.7685 282.409 80.0355C282.537 80.2997 282.601 80.5909 282.601 80.9091V81.3693C282.601 81.6875 282.536 81.9801 282.405 82.2472C282.277 82.5114 282.087 82.7244 281.834 82.8864C281.584 83.0455 281.277 83.125 280.913 83.125C280.544 83.125 280.233 83.0455 279.98 82.8864C279.727 82.7244 279.536 82.5114 279.405 82.2472C279.274 81.9801 279.209 81.6875 279.209 81.3693ZM280.078 80.9091V81.3693C280.078 81.6335 280.141 81.8707 280.266 82.081C280.391 82.2884 280.607 82.392 280.913 82.392C281.212 82.392 281.422 82.2884 281.544 82.081C281.669 81.8707 281.732 81.6335 281.732 81.3693V80.9091C281.732 80.6449 281.672 80.4091 281.553 80.2017C281.433 79.9915 281.22 79.8864 280.913 79.8864C280.615 79.8864 280.401 79.9915 280.27 80.2017C280.142 80.4091 280.078 80.6449 280.078 80.9091ZM279.533 88L285.533 79.2727H286.504L280.504 88H279.533Z" fill="#0D1220"/>
<defs>
<linearGradient id="paint0_linear_48_1555" x1="276" y1="45.5" x2="276" y2="100" gradientUnits="userSpaceOnUse">
<stop stop-color="#81DDFF"/>
<stop offset="1" stop-color="#78ABFF"/>
</linearGradient>
</defs>
</svg>
