<svg width="200" height="200" viewBox="0 0 200 200" fill="none" xmlns="http://www.w3.org/2000/svg">
<g clip-path="url(#clip0_20_3033)">
<path d="M113.646 0.623219L128.684 9.90535C114.012 20.5353 106.124 48.1172 103.955 64.0839C105.033 47.4799 108.419 17.1678 113.646 0.623219ZM60.8445 24.1199C81.6271 26.9297 97.4506 39.9707 101.252 55.9758C84.4979 50.7061 59.8316 46.9074 39.1328 43.9382C22.6618 40.9177 3.74829 38.9583 -6.65649 26.0432C17.2385 27.7092 38.9171 23.5337 60.8445 24.1199ZM102.579 73.6246C103.376 74.0616 104.4 74.0616 105.198 73.6246C133.146 58.6848 154.331 57.1721 168.39 65.9313C182.449 74.6905 190.44 94.4499 190.44 124.383C190.44 143.811 181.978 163.175 167.123 175.392C152.268 187.608 131.094 192.96 104.775 184.339C104.231 184.164 103.63 184.164 103.086 184.339C76.7672 192.96 55.593 187.608 40.7378 175.392C25.8826 163.175 17.4207 143.811 17.4207 124.383C17.4207 93.8893 25.5824 73.9586 39.724 65.2624C60.1896 53.9362 85.6504 64.3838 102.579 73.6246Z" fill="#35CC8C"/>
</g>
<defs>
<clipPath id="clip0_20_3033">
<rect width="200" height="200" fill="white"/>
</clipPath>
</defs>
</svg>
